<?xml version="1.0" standalone="no"?>
<!DOCTYPE svg PUBLIC "-//W3C//DTD SVG 20010904//EN"
 "http://www.w3.org/TR/2001/REC-SVG-20010904/DTD/svg10.dtd">
<svg version="1.0" xmlns="http://www.w3.org/2000/svg"
 width="300.000000pt" height="300.000000pt" viewBox="0 0 300.000000 300.000000"
 preserveAspectRatio="xMidYMid meet">
<metadata>
Created by potrace 1.10, written by Peter Selinger 2001-2011
</metadata>
<g transform="translate(0.000000,300.000000) scale(0.100000,-0.100000)"
fill="#FFFF" stroke="none">
<path d="M2437 2714 c-3 -4 -24 -6 -46 -6 -35 1 -45 -5 -70 -35 -26 -32 -32
-35 -47 -23 -14 12 -18 12 -30 -5 -17 -22 -17 -32 -4 -40 6 -3 10 -1 10 4 0 6
7 11 16 11 12 0 7 -11 -17 -42 -18 -24 -34 -45 -36 -47 -1 -2 -10 2 -19 10
-14 11 -18 11 -30 -6 -8 -10 -14 -28 -14 -38 0 -19 1 -19 20 3 29 34 33 19 6
-21 l-24 -34 67 -11 c60 -11 68 -10 86 6 11 11 30 23 43 27 12 5 60 46 107 92
47 46 88 82 90 79 6 -6 -155 -183 -166 -183 -15 0 -85 -49 -107 -77 l-23 -28
58 31 c32 17 73 42 92 56 l34 26 19 -26 c25 -34 46 -34 58 -2 13 33 4 54 -21
48 -18 -5 -19 -6 -2 -18 28 -21 11 -26 -25 -8 l-33 16 43 44 c23 23 46 43 50
43 5 0 18 -11 30 -25 16 -19 25 -22 39 -14 23 12 25 57 3 66 -8 3 -20 1 -27
-6 -8 -8 -5 -11 11 -11 12 0 22 -4 22 -9 0 -9 -23 -8 -58 4 -23 8 -23 8 -3 29
10 11 21 37 23 56 3 32 1 35 -25 38 -16 2 -31 10 -34 18 -5 14 -54 20 -66 8z
m50 -34 c8 0 13 -6 10 -12 -2 -7 -10 -12 -18 -10 -7 2 -34 3 -61 4 -26 0 -48
4 -48 9 0 5 20 9 45 9 29 0 45 4 46 13 0 10 2 10 6 0 2 -7 11 -13 20 -13z
m-144 -48 c-10 -1 -31 -26 -47 -55 -20 -39 -34 -53 -52 -55 -30 -2 -22 25 8
30 14 2 31 23 51 62 28 55 31 58 44 40 12 -17 12 -19 -4 -22z m77 -2 c0 -11
-7 -20 -15 -20 -8 0 -15 -4 -15 -10 0 -18 18 -10 40 17 25 33 50 39 50 12 0
-12 -7 -19 -19 -19 -11 0 -23 -5 -27 -12 -4 -7 -3 -8 4 -4 19 12 14 -10 -7
-28 -11 -10 -25 -15 -31 -11 -9 5 -10 1 -5 -14 5 -18 2 -21 -19 -21 -27 0 -35
-14 -13 -24 6 -3 2 -3 -9 -1 -15 4 -32 -4 -55 -25 -19 -16 -38 -30 -44 -30 -5
0 -2 7 8 14 22 17 22 23 0 23 -10 0 -26 -10 -36 -21 l-18 -21 10 22 c17 35 13
38 -16 12 l-27 -24 24 33 c12 19 25 30 29 25 11 -14 31 -13 25 1 -4 11 0 13
15 9 34 -9 71 6 83 32 6 13 14 22 19 20 4 -3 11 -1 14 5 4 7 -8 8 -37 4 -38
-7 -41 -6 -28 8 9 8 25 20 38 27 12 6 22 18 22 26 0 8 9 15 20 15 13 0 20 -7
20 -20z m-86 -87 c3 -7 2 -13 -2 -14 -4 0 -17 -2 -30 -5 -19 -3 -21 -1 -13 14
12 22 38 25 45 5z"/>
<path d="M1874 2097 c-143 -178 -286 -359 -319 -402 -129 -168 -107 -151 -215
-159 -321 -23 -638 -234 -720 -482 -12 -35 -27 -64 -33 -64 -9 0 -8 -3 0 -8 7
-4 14 -25 15 -45 3 -30 6 -36 21 -31 11 3 17 0 17 -10 0 -8 8 -20 17 -26 16
-10 16 -11 1 -6 -29 9 -40 -17 -23 -58 8 -20 18 -36 21 -36 3 0 3 4 0 9 -3 5
0 11 7 14 19 7 39 -27 24 -42 -9 -9 -5 -18 16 -37 16 -14 34 -24 40 -21 17 6
48 -17 45 -34 -2 -7 4 -14 13 -16 11 -3 29 16 56 59 51 80 76 129 70 135 -9 8
-68 -87 -61 -98 4 -6 -1 -9 -12 -8 -11 2 -24 0 -30 -3 -6 -4 -27 5 -48 20 -21
14 -33 28 -26 30 6 2 19 -2 28 -10 9 -8 24 -18 32 -22 19 -10 -28 31 -52 45
-12 6 -18 6 -19 -1 -1 -5 -3 -14 -4 -20 -1 -5 -3 -19 -4 -31 0 -11 -6 -17 -11
-14 -6 4 -8 21 -5 38 5 24 -1 45 -24 87 -17 30 -31 62 -31 72 0 11 -6 15 -22
11 -22 -4 -23 -4 -4 11 13 10 15 16 7 16 -11 0 -11 3 0 17 12 15 12 16 -5 10
-15 -6 -17 -4 -12 15 3 13 6 26 6 31 0 4 7 7 16 7 13 0 15 7 11 28 -6 28 23
92 41 92 5 0 18 17 30 38 21 38 89 107 152 153 53 39 130 82 136 76 3 -3 -23
-20 -58 -38 -83 -45 -217 -176 -249 -246 -13 -29 -31 -52 -39 -53 -11 0 -12
-2 -3 -8 9 -6 10 -17 3 -41 -18 -63 13 -186 56 -222 8 -6 3 8 -10 32 -140 246
193 603 595 637 159 14 286 -22 391 -109 39 -33 54 -39 93 -39 39 0 46 -3 41
-16 -3 -9 -6 -18 -6 -20 0 -2 -5 -4 -11 -4 -5 0 -7 5 -3 12 5 8 2 9 -10 5 -10
-4 -15 -3 -11 3 3 6 -1 10 -9 10 -9 0 -16 -2 -16 -5 0 -13 25 -55 33 -55 5 0
7 -6 4 -14 -3 -8 7 -17 29 -24 27 -8 34 -7 34 4 0 8 -6 14 -14 14 -13 0 -26
20 -26 41 0 5 7 9 15 9 8 0 15 -6 15 -12 0 -10 2 -10 9 0 5 9 12 -6 19 -43 7
-32 10 -61 7 -65 -3 -4 1 -20 9 -35 10 -19 12 -35 6 -50 -5 -13 -6 -25 -4 -28
3 -3 -2 -21 -10 -41 -8 -20 -11 -34 -6 -31 6 4 6 -3 0 -19 -5 -14 -7 -32 -4
-39 2 -7 1 -24 -4 -36 l-8 -23 -12 26 c-7 16 -8 28 -2 31 6 4 10 12 10 18 0 7
-7 4 -14 -6 -9 -12 -11 -29 -6 -58 6 -32 4 -44 -12 -62 l-19 -22 11 23 c13 26
8 38 -10 27 -6 -4 -10 -21 -8 -37 2 -18 -2 -33 -9 -35 -7 -3 -13 2 -13 10 0
15 -24 30 -33 21 -3 -3 0 -19 6 -35 11 -29 10 -32 -43 -79 -30 -27 -61 -49
-67 -50 -7 0 -22 -9 -32 -19 -20 -20 -74 -51 -88 -51 -4 0 -3 4 4 8 15 9 5 54
-11 49 -6 -2 -11 -19 -11 -38 0 -35 -17 -45 -43 -26 -9 7 -11 6 -7 -5 7 -18
-10 -26 -45 -22 -14 1 -28 3 -32 3 -5 1 -8 9 -8 19 0 13 7 18 23 17 12 -1 28
5 35 14 8 9 10 10 6 2 -4 -9 -2 -12 7 -9 8 3 13 11 11 17 -1 6 3 11 10 11 6 0
9 2 6 5 -3 3 -23 -1 -44 -9 -54 -21 -161 -45 -274 -61 l-95 -14 101 2 c84 2
101 -1 99 -12 -1 -8 -7 -17 -13 -19 -7 -2 -10 -7 -7 -11 2 -5 -17 -6 -44 -3
-27 2 -58 -1 -70 -7 -18 -10 -22 -9 -31 13 -5 13 -18 27 -30 31 -11 3 -18 11
-15 16 4 5 1 9 -4 9 -6 0 -11 -4 -11 -10 0 -5 -10 -10 -22 -10 -13 0 -18 -4
-13 -8 6 -4 15 -17 22 -28 10 -19 9 -21 -5 -18 -9 3 -29 -7 -44 -21 -25 -23
-33 -24 -29 -2 0 4 -3 7 -8 7 -5 0 -12 12 -15 26 -6 21 -9 24 -21 14 -16 -14
-20 -40 -6 -40 5 0 11 -9 14 -21 3 -11 2 -19 -1 -17 -4 2 -28 14 -53 26 -26
12 -53 29 -60 38 -13 16 -10 16 35 10 57 -9 56 9 -2 19 -20 3 -44 10 -52 15
-14 9 -14 10 18 72 3 6 -54 38 -70 38 -5 0 -2 -13 7 -30 20 -38 19 -47 -3 -27
-10 9 -18 29 -17 44 0 16 -10 39 -23 53 -12 14 -37 46 -53 73 -17 26 -32 47
-34 47 -2 0 1 -15 5 -33 11 -52 69 -154 117 -207 24 -26 43 -57 43 -69 0 -13
15 -30 42 -48 91 -59 132 -67 150 -28 15 33 37 38 122 31 39 -3 100 -2 136 3
76 10 98 0 114 -51 6 -17 16 -33 23 -35 9 -3 9 3 1 25 -10 25 -8 33 15 64 15
19 33 35 40 35 25 0 211 94 273 138 80 57 163 150 197 219 53 107 65 196 43
301 -16 73 -27 117 -38 142 -28 64 -111 158 -130 147 -5 -3 -14 -2 -21 3 -7 5
-33 21 -58 36 l-46 26 -19 -21 c-19 -21 -19 -21 3 -16 12 3 21 2 20 -3 -1 -5
12 -20 28 -34 26 -22 24 -22 -19 5 -28 16 -56 30 -62 30 -7 0 -16 4 -19 10 -3
6 1 7 9 4 9 -3 16 -2 16 4 0 10 -14 14 -92 28 -28 4 -38 3 -38 -7 0 -7 -3 -10
-6 -6 -8 7 45 97 58 97 5 0 6 -4 3 -10 -3 -5 1 -10 9 -10 8 0 18 5 21 10 4 6
11 7 17 4 7 -4 8 -2 4 4 -4 7 -18 12 -32 12 -23 0 -24 2 -10 15 17 17 30 20
20 4 -4 -7 1 -9 12 -7 11 2 18 10 17 16 -2 7 3 12 10 12 6 0 22 16 34 34 17
26 27 33 43 29 13 -3 19 -11 16 -19 -7 -17 15 -18 33 -1 11 10 12 9 5 -3 -9
-16 -13 -21 -45 -60 -11 -14 -18 -20 -15 -14 8 16 -19 25 -33 11 -8 -8 -11 -8
-11 1 0 17 -17 15 -24 -3 -4 -11 1 -14 22 -11 15 1 33 -3 40 -11 10 -10 10
-13 -3 -13 -8 0 -15 -4 -15 -10 0 -21 -2 -25 -17 -43 -9 -9 -14 -20 -11 -23 3
-3 30 30 61 73 30 43 69 97 87 121 22 29 27 42 17 42 -22 0 -41 -26 -25 -34 7
-3 -3 -5 -22 -4 -19 1 -39 4 -45 7 -34 18 -81 2 -71 -24 3 -9 -2 -11 -15 -8
-19 5 -19 6 1 20 11 8 18 19 15 24 -4 5 -2 9 3 9 5 0 60 66 123 146 155 199
254 323 287 360 15 17 21 22 13 12 -20 -25 -2 -23 27 5 20 17 24 18 19 5 -5
-15 -4 -16 13 -5 19 11 18 12 -11 22 l-30 11 23 19 c17 15 19 16 9 3 -20 -27
2 -22 28 6 21 23 22 25 4 29 -17 4 -17 5 1 6 11 0 28 9 38 18 19 17 58 25 58
12 0 -13 -18 -20 -25 -9 -7 12 -25 4 -25 -12 0 -5 6 -8 14 -5 8 3 17 3 20 -1
16 -15 43 -9 59 14 11 14 17 27 15 29 -1 1 -33 6 -69 9 l-67 7 -258 -324z
m-436 -581 c3 -3 -21 -6 -54 -5 -42 0 -53 3 -39 9 20 9 83 6 93 -4z m-138 -5
c-18 -10 -118 -26 -109 -17 7 7 77 24 104 25 16 0 17 -1 5 -8z m-121 -25 c-2
-2 -29 -13 -59 -24 -30 -11 -64 -23 -75 -27 -47 -19 -2 9 52 31 51 21 94 31
82 20z m556 -50 c19 -15 19 -17 3 -29 -10 -8 -17 -16 -15 -18 1 -2 -2 -1 -7 3
-6 5 -2 14 10 24 10 8 13 13 7 9 -17 -8 -53 12 -53 31 0 16 17 10 55 -20z
m111 -88 c15 -21 24 -41 20 -45 -3 -3 -6 -1 -6 6 0 7 -5 9 -12 5 -7 -4 -8 -3
-4 5 8 12 -52 96 -62 87 -3 -3 2 -14 11 -24 10 -10 17 -22 17 -25 0 -15 -27
-6 -44 14 -17 20 -17 23 -2 31 14 8 15 12 4 26 -7 9 2 4 20 -12 17 -16 44 -47
58 -68z m-475 -825 c5 -23 2 -35 -13 -47 -10 -9 -20 -16 -23 -16 -10 0 -5 28
5 32 6 2 1 11 -10 20 -19 17 -20 17 -27 -10 l-7 -27 -6 30 c-8 39 6 57 44 53
25 -2 31 -8 37 -35z"/>
<path d="M2121 2321 c-13 -18 -16 -29 -8 -28 36 1 58 -4 52 -13 -3 -5 -12 -7
-21 -3 -14 5 -54 -22 -54 -38 0 -4 8 -10 18 -12 12 -3 11 -5 -6 -6 -13 0 -32
-11 -43 -23 -10 -13 -18 -18 -19 -11 0 6 5 15 12 19 7 5 4 10 -11 16 -26 9
-37 5 -52 -23 -8 -16 -7 -20 3 -18 7 2 26 0 42 -4 21 -6 34 -3 49 10 19 18 20
18 6 -5 -13 -21 -19 -23 -69 -18 -54 5 -56 4 -86 -32 -16 -20 -33 -42 -37 -48
-10 -18 45 -14 66 4 15 14 17 14 17 -1 0 -8 -6 -18 -12 -20 -8 -3 -6 -6 4 -6
16 -1 15 -4 -4 -36 -14 -25 -25 -34 -37 -30 -10 3 -25 -3 -36 -15 -15 -17 -16
-20 -3 -20 9 0 19 7 22 16 4 9 9 14 12 11 3 -3 -7 -25 -23 -48 -34 -53 -107
-131 -99 -106 8 24 -11 21 -25 -4 -8 -15 -8 -19 0 -15 6 4 18 3 27 -2 14 -8
26 3 65 54 27 35 49 65 49 68 0 3 12 18 26 33 15 15 34 39 43 53 9 14 65 90
125 170 97 130 106 145 86 148 -13 2 -33 -6 -48 -20 l-26 -23 17 28 c23 36 4
35 -22 -2z m-111 -186 c-12 -15 -3 -26 16 -18 21 8 17 -1 -13 -28 -15 -13 -21
-16 -14 -6 7 9 12 17 10 18 -44 8 -53 7 -64 -8 -8 -10 -16 -15 -20 -11 -4 3 7
22 25 41 22 24 37 33 51 30 14 -4 17 -9 9 -18z"/>
<path d="M1883 2014 c-18 -24 -29 -44 -25 -44 9 0 72 74 72 84 0 16 -18 0 -47
-40z"/>
<path d="M1806 1965 c-26 -31 -33 -45 -22 -45 8 0 29 20 46 45 17 25 27 45 22
45 -5 0 -26 -20 -46 -45z"/>
<path d="M1855 1930 c-18 -19 -17 -20 1 -20 11 0 25 9 32 20 10 16 10 20 -1
20 -8 0 -22 -9 -32 -20z"/>
<path d="M1746 1891 c-17 -19 -17 -20 15 -19 19 1 40 7 47 15 22 22 5 28 -20
7 -19 -17 -21 -17 -15 -1 8 23 -6 22 -27 -2z"/>
<path d="M1830 1783 c-46 -65 -107 -150 -137 -189 -56 -76 -60 -84 -40 -84 7
0 28 -8 47 -19 l35 -19 32 67 c17 36 36 89 42 116 6 28 33 94 60 148 26 53 48
97 47 97 -1 0 -40 -53 -86 -117z m-60 -168 c-20 -52 -41 -85 -51 -80 -5 4 -9
3 -8 -2 4 -22 -2 -25 -15 -8 -15 20 -8 33 48 87 35 34 38 35 26 3z"/>
<path d="M1711 1846 c-17 -20 0 -28 21 -9 10 9 18 11 18 5 0 -6 -6 -13 -12
-15 -9 -4 -8 -6 3 -6 15 -1 39 17 39 29 0 13 -59 9 -69 -4z"/>
<path d="M1747 1786 c-16 -13 -15 -14 10 -19 20 -4 34 0 48 14 19 19 19 19
-10 19 -17 0 -38 -7 -48 -14z"/>
<path d="M1696 1771 c-3 -5 -14 -7 -24 -4 -10 2 -24 -3 -31 -11 -11 -13 -11
-16 1 -16 8 0 20 6 27 13 10 10 11 9 6 -5 -4 -10 -4 -18 0 -18 9 0 30 23 33
38 2 14 -4 16 -12 3z"/>
<path d="M1638 1673 c6 -2 10 -8 7 -13 -3 -4 2 -10 10 -14 16 -6 29 9 20 24
-3 6 -16 10 -28 9 -12 0 -16 -3 -9 -6z"/>
<path d="M1490 1555 c-10 -12 -7 -15 15 -21 14 -3 29 -4 32 0 4 3 -2 6 -12 6
-14 0 -15 3 -5 15 10 12 10 15 -3 15 -8 0 -20 -7 -27 -15z"/>
<path d="M1557 1553 c13 -11 20 -23 16 -27 -3 -3 -2 -6 4 -6 10 0 27 29 21 36
-2 1 -17 6 -33 10 l-30 7 22 -20z"/>
<path d="M1258 1248 c-121 -162 -132 -178 -124 -178 2 0 48 60 102 133 53 72
108 147 122 165 13 17 22 32 19 32 -2 0 -56 -69 -119 -152z"/>
<path d="M1268 1333 c-131 -168 -193 -253 -185 -253 2 0 51 62 108 137 127
168 131 173 126 173 -2 0 -24 -26 -49 -57z"/>
<path d="M1359 1308 c-13 -18 -34 -49 -48 -67 -14 -19 -21 -32 -15 -29 12 8
98 128 90 128 -2 0 -15 -15 -27 -32z"/>
<path d="M1762 1293 c16 -31 19 -52 15 -115 -2 -52 0 -75 7 -72 27 10 -5 224
-34 224 -4 0 1 -17 12 -37z"/>
<path d="M1800 1201 c0 -26 17 -36 24 -14 2 10 2 2 0 -18 -6 -38 4 -52 44 -62
15 -3 22 -1 22 9 0 8 -7 14 -15 14 -9 0 -15 9 -15 25 0 14 5 25 10 25 6 0 10
5 10 11 0 6 -6 9 -13 6 -7 -3 -21 1 -32 9 -26 19 -35 18 -35 -5z"/>
<path d="M1258 1168 c-40 -55 -72 -104 -56 -88 20 21 91 120 85 120 -3 0 -16
-15 -29 -32z"/>
<path d="M1797 1103 c-4 -3 -7 -26 -7 -49 0 -33 5 -47 22 -58 12 -8 26 -12 32
-9 6 4 6 8 -2 11 -18 6 -15 18 14 49 24 26 24 27 6 34 -11 4 -23 12 -27 18 -7
12 -28 14 -38 4z"/>
<path d="M1020 1057 c0 -9 31 -21 98 -36 119 -27 154 -30 159 -13 3 7 -5 12
-20 12 -22 0 -164 30 -219 46 -11 3 -18 0 -18 -9z"/>
<path d="M1756 1046 c5 -14 4 -17 -5 -12 -9 6 -12 1 -10 -15 2 -29 -10 -61
-21 -54 -10 6 -23 -25 -14 -34 3 -3 10 2 15 12 6 9 14 17 19 17 13 0 13 -37 0
-45 -6 -3 -6 -15 0 -29 5 -13 6 -28 2 -32 -4 -5 1 -2 10 5 10 7 16 22 15 34
-1 14 7 25 26 35 35 17 34 25 -7 59 -27 21 -32 30 -24 41 8 9 8 16 -1 25 -10
9 -11 8 -5 -7z"/>
<path d="M1080 982 c0 -13 39 -29 115 -47 109 -26 142 -30 128 -14 -7 7 -61
25 -120 41 -121 31 -123 31 -123 20z"/>
<path d="M1666 931 c-4 -5 -2 -12 4 -16 6 -4 8 -11 5 -16 -4 -5 -1 -17 4 -26
10 -17 10 -16 11 2 0 16 2 17 9 6 10 -16 4 -41 -11 -41 -5 0 -12 9 -15 20 -3
11 -9 20 -13 20 -5 0 -12 -9 -15 -20 -3 -11 -11 -20 -16 -20 -6 0 -7 -4 -4
-10 3 -5 1 -10 -5 -10 -8 0 -8 -6 0 -20 6 -11 10 -26 8 -33 -5 -22 7 -21 50 7
23 15 40 31 37 37 -4 5 -1 16 5 24 9 11 8 22 -5 49 -20 41 -41 61 -49 47z m39
-121 c7 -12 -42 -36 -53 -26 -4 4 2 14 12 22 23 17 33 18 41 4z"/>
<path d="M930 885 c0 -29 3 -36 15 -31 8 3 15 2 15 -3 0 -5 15 -12 34 -15 19
-4 36 -12 39 -19 2 -6 11 0 21 16 10 15 22 27 27 27 12 0 0 -51 -16 -70 -7 -8
-47 -68 -89 -133 -76 -117 -76 -117 -52 -127 13 -5 31 -18 39 -30 9 -13 17
-17 22 -11 3 6 2 11 -4 11 -6 0 -6 11 -1 31 7 23 6 30 -3 26 -7 -2 -21 -1 -32
3 -17 6 -15 8 14 15 18 4 30 10 24 14 -5 3 -4 20 4 41 l12 35 0 -37 c1 -37 14
-57 26 -38 3 5 11 10 16 10 6 0 7 -4 4 -10 -3 -5 3 -10 14 -10 12 0 21 5 21
10 0 6 5 10 11 10 5 0 8 -4 4 -9 -3 -5 8 -9 25 -9 16 1 30 5 30 10 0 5 -5 6
-12 2 -8 -5 -10 4 -6 32 l5 39 -48 -3 c-79 -6 -86 7 -27 51 40 29 59 37 94 37
57 0 62 26 7 35 -81 14 -95 30 -49 55 14 7 28 20 31 29 3 8 3 13 0 9 -5 -5
-144 22 -197 38 -15 4 -18 -1 -18 -31z m120 -24 c0 -17 -22 -24 -31 -10 -7 12
-9 12 -9 0 0 -8 -3 -12 -6 -8 -3 3 -3 10 1 16 8 13 45 15 45 2z"/>
<path d="M1540 819 c-24 -20 -24 -20 -2 -9 30 15 40 5 23 -21 -16 -26 -5 -39
12 -14 12 16 14 16 20 1 4 -11 -3 -20 -23 -31 -17 -9 -30 -12 -29 -8 4 22 -3
31 -24 29 -18 -1 -23 -6 -19 -19 3 -13 0 -16 -12 -11 -12 5 -15 2 -10 -10 4
-12 10 -13 24 -6 29 16 37 12 12 -6 -25 -17 -29 -34 -7 -34 8 0 15 6 15 13 0
15 44 39 54 30 3 -3 -2 -13 -12 -20 -9 -8 -1 -6 18 6 22 13 34 27 32 38 -4 26
-34 93 -41 93 -3 0 -17 -10 -31 -21z"/>
<path d="M977 770 c-14 -11 -30 -20 -36 -20 -6 0 -11 -4 -11 -9 0 -14 25 -7
45 13 13 13 20 14 25 5 6 -8 11 -5 19 10 15 28 -6 29 -42 1z"/>
<path d="M1437 743 c3 -7 -1 -13 -9 -13 -7 0 -30 -8 -49 -18 -19 -10 -48 -17
-65 -17 -16 1 -44 -4 -62 -12 -18 -7 -37 -11 -42 -8 -6 4 -10 2 -10 -3 0 -5
-12 -7 -27 -4 -24 4 -25 3 -20 -19 4 -13 7 -34 7 -46 0 -26 25 -31 34 -8 6 17
47 20 63 4 7 -7 14 -6 24 4 8 7 20 12 28 9 10 -3 11 0 2 16 -13 25 -15 55 -2
48 4 -3 11 -19 14 -36 6 -27 27 -43 27 -20 0 5 13 16 29 24 22 12 31 12 40 3
10 -9 15 -8 25 6 7 9 18 17 25 17 8 0 9 5 1 19 -14 27 -13 58 3 64 6 2 0 4
-14 3 -17 -1 -25 -6 -22 -13z m13 -41 c0 -10 -41 -35 -47 -28 -11 11 7 36 27
36 11 0 20 -3 20 -8z m-176 -37 c-4 -8 -1 -15 5 -15 20 0 12 -18 -11 -23 -28
-8 -34 -2 -18 18 7 8 9 15 4 15 -5 0 -2 5 6 10 20 13 20 13 14 -5z"/>
<path d="M1645 729 c-48 -37 -59 -49 -23 -26 35 22 36 22 31 -7 -3 -13 0 -27
6 -30 16 -10 26 24 13 44 -8 13 -7 21 6 34 24 24 12 18 -33 -15z"/>
<path d="M1707 745 c-7 -16 8 -29 23 -20 15 9 12 35 -4 35 -8 0 -16 -7 -19
-15z"/>
<path d="M1592 668 c-14 -14 -16 -38 -4 -38 12 0 32 23 32 37 0 16 -12 17 -28
1z"/>
<path d="M790 562 c0 -11 12 -16 68 -27 30 -6 45 6 24 19 -20 12 -92 18 -92 8z"/>
</g>
</svg>
