<?xml version="1.0" standalone="no"?>
<!DOCTYPE svg PUBLIC "-//W3C//DTD SVG 20010904//EN"
 "http://www.w3.org/TR/2001/REC-SVG-20010904/DTD/svg10.dtd">
<svg version="1.0" xmlns="http://www.w3.org/2000/svg"
 width="300.000000pt" height="402.000000pt" viewBox="0 0 300.000000 402.000000"
 preserveAspectRatio="xMidYMid meet">
<metadata>
Created by potrace 1.10, written by Peter Selinger 2001-2011
</metadata>
<g transform="translate(0.000000,402.000000) scale(0.100000,-0.100000)"
fill="#FFF" stroke="none">
<path d="M2290 3765 c-16 -20 -5 -45 20 -45 27 0 25 -12 -5 -40 l-25 -23 0 22
c0 31 -28 38 -53 13 -17 -17 -18 -23 -7 -36 14 -18 40 -21 40 -6 0 5 -7 7 -15
4 -18 -7 -20 17 -3 34 18 18 25 15 31 -14 3 -18 -3 -35 -22 -56 -25 -31 -26
-31 -31 -8 -3 13 -11 25 -18 28 -8 2 -8 -4 2 -24 14 -25 13 -29 -12 -60 -26
-32 -27 -33 -32 -12 -3 12 -11 23 -18 24 -7 1 -8 0 -2 -3 19 -9 11 -59 -13
-81 -25 -24 -38 -28 -34 -11 4 20 -30 34 -47 20 -19 -16 -21 -47 -3 -54 8 -3
13 4 12 21 0 14 6 27 13 30 18 6 13 -47 -7 -71 -13 -16 -15 -16 -28 3 -18 25
-28 25 -54 -1 -16 -16 -18 -23 -8 -35 6 -8 21 -14 32 -14 19 0 18 -3 -11 -33
-32 -33 -32 -34 -17 -70 8 -20 15 -43 15 -51 0 -16 -131 -288 -513 -1068 -171
-350 -166 -343 -248 -319 -73 22 -94 97 -61 223 24 89 21 112 -18 128 -42 17
-87 3 -137 -43 -44 -40 -108 -148 -96 -161 4 -3 2 -6 -4 -6 -6 0 -13 -21 -16
-47 -23 -206 -49 -330 -78 -381 -46 -81 -95 -139 -183 -217 -100 -89 -183
-175 -213 -223 -13 -20 -32 -68 -44 -106 -26 -82 -22 -172 10 -239 11 -24 21
-47 21 -51 0 -4 20 -34 45 -66 42 -55 118 -119 158 -133 11 -4 15 -12 11 -18
-4 -8 -3 -9 4 -5 7 4 27 -4 45 -18 19 -15 39 -26 45 -26 6 0 68 -30 139 -67
231 -120 222 -116 281 -114 125 4 228 47 307 127 92 93 125 229 125 511 0 205
-1 203 170 388 78 83 110 154 110 240 0 42 -5 60 -20 75 -11 11 -23 20 -27 20
-14 0 -89 -54 -124 -88 -38 -37 -95 -58 -134 -48 -33 8 -85 58 -85 80 0 9 48
123 106 254 255 569 582 1309 589 1330 9 30 75 78 119 86 44 8 52 19 65 91 33
176 58 234 104 235 10 0 32 13 48 29 24 25 29 38 29 79 0 67 -27 102 -80 102
-26 0 -48 -8 -68 -25 -35 -29 -46 -32 -34 -7 19 37 -21 60 -48 27z m44 -3 c9
-15 -12 -35 -29 -28 -14 5 -15 9 -5 21 14 17 26 19 34 7z m122 -8 c33 -9 56
-57 48 -101 -8 -48 -27 -69 -73 -84 -20 -6 -40 -15 -46 -20 -5 -5 -26 -71 -45
-147 l-35 -137 -41 -15 c-22 -8 -52 -23 -67 -32 -14 -10 -28 -18 -31 -18 -3 0
20 52 50 116 30 64 53 118 51 120 -2 3 -12 -14 -22 -36 -11 -24 -21 -36 -25
-30 -5 8 -9 6 -13 -5 -4 -9 -3 -13 3 -10 14 9 12 -6 -6 -35 l-15 -25 7 25 c7
29 2 26 -16 -9 -8 -15 -8 -21 -1 -17 17 11 13 -7 -12 -61 -34 -73 -35 -74 -61
-62 l-23 11 34 80 c18 45 32 83 29 85 -2 2 -18 -31 -36 -74 -37 -90 -35 -87
-49 -79 -6 4 4 37 25 83 19 41 33 77 31 80 -2 2 -19 -30 -37 -72 -18 -41 -39
-80 -46 -86 -11 -9 -11 -4 1 24 8 20 15 44 14 54 -1 10 -7 0 -13 -22 -7 -22
-17 -39 -21 -38 -17 4 -33 79 -21 100 14 26 394 430 409 437 17 6 29 7 53 0z
m-426 -344 c6 -11 9 -20 8 -21 -46 -12 -54 -7 -42 25 8 22 21 20 34 -4z m-4
-244 c-41 -100 -50 -116 -58 -108 -6 6 0 29 16 60 14 28 26 55 26 59 -1 4 -14
-18 -31 -49 -16 -32 -32 -58 -34 -58 -3 0 8 27 25 60 22 44 34 58 46 53 8 -3
13 -11 10 -17z m25 -14 c-6 -12 -11 -24 -11 -29 1 -4 8 5 16 21 12 20 18 25
24 16 4 -7 13 -9 19 -6 19 12 11 -26 -17 -86 -20 -43 -31 -56 -40 -49 -11 7
-8 19 13 61 14 28 25 54 23 56 -5 4 -108 -201 -108 -216 0 -12 -10 -13 -30 0
-13 8 -8 22 28 94 23 46 42 88 42 93 0 14 41 76 46 70 3 -3 1 -14 -5 -25z m63
-69 c-14 -32 -50 -114 -81 -183 -30 -69 -56 -126 -57 -128 -2 -1 -15 2 -29 9
l-25 11 20 49 c19 45 35 59 51 43 3 -4 -3 -24 -14 -46 -11 -22 -18 -42 -16
-45 3 -2 15 17 27 44 116 262 135 303 146 303 2 0 -8 -26 -22 -57z m-177 -45
c-6 -22 -5 -22 8 -4 33 44 22 2 -27 -102 -51 -108 -77 -141 -64 -84 4 20 -1
15 -19 -18 -13 -25 -24 -49 -24 -55 0 -5 7 3 15 18 25 45 35 20 12 -28 -21
-43 -40 -56 -53 -35 -3 5 17 53 44 107 28 54 50 94 50 90 1 -5 -4 -18 -10 -30
-10 -21 -10 -22 5 -2 8 11 20 26 26 33 8 9 7 14 -4 18 -9 3 -13 10 -10 15 3 5
10 6 16 3 7 -5 8 -2 3 5 -4 7 1 30 10 52 20 43 30 51 22 17z m113 -37 c0 -5
-10 -31 -23 -58 -16 -36 -27 -48 -38 -44 -14 5 -12 13 8 59 14 28 31 52 39 52
8 0 14 -4 14 -9z m-113 -149 c-27 -58 -26 -57 -33 -49 -4 4 1 18 10 32 10 15
15 32 13 38 -2 7 -11 -5 -20 -25 -9 -21 -21 -38 -27 -38 -6 0 -5 11 5 30 8 16
20 41 25 55 8 22 13 24 30 15 19 -10 19 -11 -3 -58z m-57 -63 c0 -5 4 -7 10
-4 7 4 62 -16 78 -30 5 -5 -42 -95 -50 -95 -4 0 2 21 13 46 11 26 18 49 15 51
-2 2 -12 -16 -22 -41 -20 -49 -22 -50 -42 -37 -11 7 -10 16 8 51 12 23 19 44
17 47 -5 4 -36 -56 -63 -122 -8 -19 -13 -24 -13 -12 -1 10 8 35 19 57 23 45
27 69 4 27 -25 -45 -35 -20 -12 28 21 42 38 58 38 34z m-50 -100 c0 -17 -41
-91 -47 -85 -3 3 2 24 11 47 22 54 15 61 -9 9 -17 -38 -35 -53 -35 -29 0 5 -4
7 -10 4 -15 -9 -12 1 10 45 19 37 21 39 50 29 16 -6 30 -15 30 -20z m60 -49
c-5 -10 -14 -30 -20 -45 -9 -25 -11 -25 -40 -10 -20 10 -27 20 -23 31 3 8 12
13 20 10 9 -4 18 4 24 24 9 25 14 28 30 19 15 -8 17 -14 9 -29z m30 5 c0 -3
-10 -25 -21 -48 -12 -23 -21 -42 -19 -42 2 0 -7 -20 -19 -43 -34 -68 -38 -41
-4 30 17 35 33 73 37 86 6 19 26 32 26 17z m-204 -64 c-9 -16 -16 -34 -16 -38
1 -4 10 9 21 30 11 20 24 37 29 37 14 0 13 -5 -11 -52 -18 -36 -22 -39 -36
-26 -13 13 -13 20 1 53 9 21 19 36 22 32 3 -3 -2 -19 -10 -36z m94 2 c0 -11
-42 -84 -46 -80 -3 3 2 19 10 36 24 46 18 52 -7 6 -11 -22 -22 -42 -22 -45 -4
-18 -40 -80 -47 -80 -15 0 -8 20 32 99 33 67 43 78 60 74 11 -3 20 -7 20 -10z
m40 -24 c0 -13 -33 -79 -39 -79 -3 0 -12 4 -19 9 -20 12 22 93 43 85 8 -4 15
-10 15 -15z m-140 -53 c-1 -24 -37 -79 -44 -67 -8 12 -26 6 -26 -9 0 -5 7 -7
15 -4 19 8 19 2 1 -41 -14 -33 -36 -48 -36 -24 0 5 -4 7 -10 4 -5 -3 -10 -11
-10 -16 0 -6 4 -8 9 -4 18 11 22 -15 6 -45 -13 -25 -19 -29 -30 -20 -9 7 -15
8 -20 0 -3 -5 1 -10 9 -10 19 0 20 -10 4 -45 -8 -18 -18 -25 -30 -22 -10 3
-18 1 -18 -4 0 -5 7 -9 15 -9 19 0 19 -4 -1 -42 -15 -29 -18 -30 -29 -15 -6 9
-15 13 -19 9 -11 -11 10 36 101 220 63 128 86 166 98 162 8 -4 15 -11 15 -18z
m83 -30 c17 -13 17 -15 1 -50 -18 -37 -40 -47 -50 -22 -3 8 2 29 12 48 15 30
15 32 1 19 -10 -7 -17 -9 -17 -4 0 25 26 29 53 9z m2 -111 c-20 -42 -38 -75
-41 -72 -4 3 3 25 14 49 11 24 28 61 37 83 10 22 19 35 21 29 3 -6 -12 -46
-31 -89z m-109 6 c-14 -26 -36 -42 -36 -26 0 18 35 74 43 66 5 -5 2 -22 -7
-40z m19 -10 c-8 -17 -20 -31 -25 -31 -5 0 0 16 12 35 25 43 36 40 13 -4z m53
21 c10 -7 9 -16 -3 -44 -11 -29 -19 -35 -35 -31 -24 6 -25 15 -5 53 16 32 22
35 43 22z m-88 -62 c14 -9 7 -25 -10 -25 -5 0 -16 -9 -24 -20 -21 -30 -30 -12
-11 24 17 33 22 36 45 21z m57 -43 c-33 -83 -61 -136 -69 -131 -5 3 -7 13 -3
21 4 13 3 14 -10 3 -18 -15 -20 -1 -3 35 14 31 32 33 23 3 -7 -23 -7 -23 8 -3
14 18 14 21 -9 35 -26 16 -33 36 -10 27 8 -3 18 5 25 19 9 21 14 23 32 14 11
-7 18 -17 16 -23z m-31 -134 c-35 -76 -87 -192 -116 -258 -57 -130 -57 -131
-66 -123 -3 4 0 17 7 30 7 12 14 28 15 33 1 6 20 48 43 95 22 47 41 87 41 90
0 3 -12 6 -26 6 -34 2 -37 7 -23 38 8 16 18 25 27 21 7 -3 18 -5 23 -5 6 0 7
-10 4 -22 -14 -47 20 15 59 107 48 112 54 125 66 125 5 0 -20 -62 -54 -137z
m-76 93 c0 -8 -4 -18 -10 -21 -5 -3 -10 -12 -10 -18 0 -7 9 2 20 18 28 42 25
14 -5 -45 -27 -53 -34 -84 -9 -37 13 24 18 27 32 15 9 -7 18 -13 20 -14 1 0
-3 -15 -9 -32 l-11 -32 -31 16 c-18 9 -33 18 -35 19 -2 2 4 18 14 36 15 29 15
34 2 43 -14 8 -13 12 1 38 17 30 31 36 31 14z m-56 -117 c-15 -27 -24 -52 -21
-55 3 -3 8 4 12 15 3 12 11 19 16 16 5 -4 2 -20 -7 -37 -12 -24 -18 -28 -25
-17 -5 8 -9 10 -9 5 0 -6 -5 -5 -11 1 -13 13 46 137 61 128 6 -3 -2 -28 -16
-56z m-413 30 c11 -11 18 -28 15 -37 -34 -116 -38 -139 -32 -181 4 -32 3 -42
-5 -34 -20 20 -20 87 0 163 15 56 17 76 8 82 -16 10 -56 5 -87 -11 l-25 -12
25 20 c22 17 35 23 73 30 4 0 16 -8 28 -20z m-21 -18 c0 -5 -7 -14 -15 -21
-11 -9 -13 -15 -5 -20 9 -5 9 -18 1 -46 -25 -90 0 -204 49 -219 11 -3 20 -11
20 -16 0 -6 -5 -7 -12 -3 -7 4 -8 3 -4 -4 4 -7 16 -17 26 -22 16 -8 18 -7 14
4 -3 9 3 17 15 21 24 7 44 -2 36 -16 -4 -5 1 -9 10 -9 9 0 13 -5 10 -10 -4 -6
-11 -8 -16 -5 -5 4 -9 1 -9 -4 0 -6 8 -11 18 -11 16 -1 16 -1 0 -11 -12 -7
-24 -6 -38 1 -35 19 -84 -13 -114 -74 -14 -29 -26 -64 -26 -78 0 -13 -13 -45
-30 -71 -16 -26 -27 -47 -24 -47 3 0 -13 -17 -36 -37 -175 -155 -236 -243
-225 -324 9 -76 23 -121 45 -152 19 -25 21 -34 12 -67 -9 -35 -7 -41 17 -63
32 -31 137 -85 171 -89 14 -2 30 -6 35 -10 6 -3 27 -9 48 -13 32 -6 42 -4 58
14 11 11 24 21 29 21 19 0 70 -36 79 -56 l9 -21 -39 19 c-36 17 -41 17 -69 3
-45 -23 -57 -56 -37 -102 8 -21 24 -60 33 -87 20 -55 58 -106 80 -106 8 0 14
-7 14 -15 0 -13 25 -21 53 -16 20 3 -16 -39 -38 -45 -14 -3 -25 -10 -25 -14 0
-10 -80 -30 -122 -30 -19 0 -43 7 -55 15 -12 9 -26 15 -30 14 -20 -3 -27 2
-13 11 19 12 0 34 -33 36 -37 1 -69 15 -96 40 -14 13 -41 31 -60 40 -19 9 -43
24 -52 33 -23 21 -119 73 -119 65 0 -10 33 -33 48 -34 18 0 43 -26 34 -34 -3
-4 1 -4 11 0 9 3 17 2 17 -3 0 -25 -96 13 -145 58 -11 10 -24 18 -29 17 -13
-1 -116 103 -116 117 0 7 -8 19 -17 26 -25 21 -80 148 -86 201 -6 52 11 125
46 193 24 49 166 197 180 188 6 -3 7 -1 3 5 -3 6 -2 13 4 17 5 3 10 1 10 -5 0
-6 5 -8 10 -5 6 3 10 1 10 -6 0 -15 72 50 127 115 65 75 41 69 -33 -8 -36 -38
-68 -66 -71 -63 -6 7 21 37 34 37 4 0 24 22 43 48 19 26 41 53 48 60 6 7 12
17 12 22 0 4 7 11 16 14 13 5 15 1 10 -19 -10 -41 2 -29 27 28 29 63 43 124
55 237 5 47 11 92 13 100 2 8 -1 14 -7 13 -37 -7 35 210 83 248 16 13 17 13 4
-3 -7 -10 -10 -18 -5 -18 4 0 -3 -12 -17 -27 -13 -15 -17 -22 -7 -15 17 14 34
1 23 -18 -12 -19 4 -10 44 27 51 45 54 65 4 24 -43 -35 -52 -34 -27 5 28 41
104 82 104 55z m380 -12 c11 -8 12 -12 3 -16 -7 -2 -13 -14 -13 -25 0 -15 -4
-18 -22 -13 -22 7 -22 6 -4 -7 17 -13 17 -17 4 -41 -12 -24 -16 -26 -32 -14
-17 12 -16 16 10 70 30 61 31 62 54 46z m10 -90 c0 -5 5 -7 10 -4 16 10 12
-19 -6 -41 -14 -18 -15 -18 -8 6 6 24 6 24 -9 5 -20 -26 -33 -12 -19 20 12 25
32 34 32 14z m78 -34 c2 -2 -66 -155 -74 -163 -1 -2 -12 -1 -24 3 -17 5 -21
13 -17 31 3 16 0 24 -10 24 -10 0 -12 -6 -8 -20 6 -18 4 -19 -19 -9 -21 10
-23 14 -14 35 9 18 17 23 32 18 19 -6 19 -5 4 7 -14 12 -15 18 -5 37 11 19 15
20 31 9 14 -10 15 -17 7 -40 -7 -18 -7 -26 -1 -22 6 3 10 12 10 20 0 18 21 30
29 17 4 -7 12 -8 21 -2 13 8 12 10 -2 10 -24 0 -30 15 -17 44 10 22 15 24 33
14 12 -6 22 -12 24 -13z m-138 -15 c0 -20 -13 -40 -27 -40 -10 0 -12 6 -8 23
7 22 7 22 -9 2 -17 -22 -21 -13 -6 15 10 18 50 18 50 0z m-28 -49 c11 -1 -14
-51 -25 -51 -6 0 -8 -3 -4 -6 3 -4 -3 -24 -13 -45 -20 -39 -27 -68 -9 -37 5
10 17 15 27 12 13 -5 14 -4 3 4 -8 6 -11 18 -6 31 7 22 21 26 44 12 11 -7 10
-14 -5 -40 -10 -17 -22 -31 -27 -31 -5 0 -7 -7 -3 -15 7 -20 -1 -18 -50 8
l-41 22 33 72 c25 55 37 71 51 68 10 -2 21 -4 25 -4z m88 -122 c0 -3 -7 -14
-15 -25 -13 -16 -16 -17 -25 -4 -5 8 -10 11 -10 6 0 -6 -5 -5 -11 1 -8 8 -8
17 0 31 9 17 14 19 36 9 14 -7 25 -15 25 -18z m-137 -56 c30 -15 30 -15 21
-37 -8 -22 -54 0 -47 23 4 12 3 13 -5 2 -11 -16 -52 -6 -52 13 0 30 24 29 83
-1z m77 12 c0 -7 -8 -19 -17 -24 -16 -10 -16 -11 5 -17 40 -11 25 -48 -16 -37
-26 6 -26 10 -7 57 15 36 35 48 35 21z m48 -37 c-6 -13 -13 -29 -14 -36 -3
-17 -12 -27 -19 -20 -8 8 24 78 35 78 7 0 6 -9 -2 -22z m-179 -30 c-8 -14 -14
-16 -29 -8 -37 20 -22 55 16 38 19 -9 21 -14 13 -30z m-93 -3 c14 -22 15 -30
4 -53 -7 -15 -16 -41 -20 -59 -6 -25 -5 -30 6 -26 8 3 16 -2 20 -10 3 -9 12
-13 19 -11 7 3 28 -3 47 -12 33 -18 39 -20 58 -23 6 -1 5 -10 -2 -26 -10 -22
-12 -23 -23 -8 -7 9 -17 13 -23 9 -7 -4 -12 -3 -12 2 0 9 -37 25 -52 23 -5 -1
-8 4 -8 10 0 5 -4 8 -9 4 -5 -3 -17 2 -25 11 -9 9 -22 17 -29 18 -6 1 -18 6
-26 10 -9 6 -12 5 -7 -2 7 -12 -50 -135 -66 -141 -5 -2 4 -12 22 -22 17 -11
35 -17 41 -14 14 9 11 -23 -6 -56 -10 -18 -20 -27 -28 -22 -8 5 -8 2 1 -9 9
-11 9 -17 2 -20 -6 -2 -12 -10 -13 -18 -1 -8 -9 -30 -16 -48 -12 -27 -18 -32
-35 -27 -57 19 -66 13 -97 -58 -16 -38 -29 -71 -29 -73 0 -2 16 -12 35 -22 31
-15 34 -20 23 -35 -11 -15 -17 -16 -45 -5 -25 9 -35 9 -48 -2 -25 -21 -54 -20
-50 2 2 9 -1 17 -7 15 -13 -2 -26 45 -32 113 -5 51 1 83 14 75 11 -7 33 32 25
45 -3 5 0 12 6 16 8 4 9 3 5 -4 -14 -23 1 -12 55 41 66 65 96 104 49 62 -91
-79 -93 -81 -80 -60 16 26 106 100 121 100 7 0 28 21 47 47 29 42 38 60 41 90
1 4 8 4 18 1 10 -4 14 -2 10 4 -4 6 -2 13 4 15 6 2 13 22 14 43 l3 40 -13 -35
c-7 -19 -14 -27 -14 -18 -1 27 18 70 29 63 5 -3 10 3 10 14 0 66 54 94 86 46z
m138 9 c9 -3 16 -11 16 -17 0 -6 -3 -7 -7 -4 -3 4 -12 2 -19 -4 -17 -14 -35
-3 -27 16 6 16 13 18 37 9z m-75 -23 c8 -5 11 -16 8 -25 -5 -13 -11 -15 -26
-6 -12 6 -18 16 -15 25 7 17 13 18 33 6z m147 -12 c4 -7 -18 -62 -31 -77 -1
-1 -14 2 -28 9 -34 15 -25 43 12 35 l26 -6 -25 15 c-28 16 -41 19 -39 8 5 -32
-12 -42 -39 -25 -24 16 -3 40 33 38 21 -2 36 2 39 10 5 13 42 8 52 -7z m5 -73
c-12 -25 -21 -50 -21 -56 0 -11 -39 7 -51 23 -3 5 -9 8 -13 8 -20 -3 -25 1
-20 14 4 8 1 15 -5 15 -6 0 -11 -4 -11 -9 0 -5 -9 -7 -20 -4 -22 6 -22 6 -14
27 5 13 10 13 42 -2 21 -9 40 -21 44 -27 5 -7 8 -7 8 0 0 6 7 1 15 -9 14 -18
15 -18 25 8 27 69 33 80 37 69 2 -6 -5 -32 -16 -57z m-163 27 c-4 -20 -21 -18
-29 5 -6 16 -4 19 12 15 11 -3 19 -12 17 -20z m-20 -40 c-4 -20 -21 -18 -29 5
-6 16 -4 19 12 15 11 -3 19 -12 17 -20z m55 -29 c-3 -8 -10 -14 -17 -14 -21 0
-37 17 -30 33 4 13 10 14 29 5 14 -6 21 -16 18 -24z m422 -11 c-38 -61 -122
-109 -163 -94 -25 9 -25 9 14 10 35 1 49 9 100 56 32 30 61 54 63 55 2 0 -5
-12 -14 -27z m-371 5 c20 -9 23 -14 15 -25 -16 -18 -32 -16 -25 3 5 14 4 15
-8 5 -16 -13 -32 1 -21 19 8 13 9 12 39 -2z m442 -49 c-4 -22 -15 -58 -26 -78
-20 -40 -109 -142 -196 -227 -35 -34 -56 -63 -62 -90 -6 -21 -15 -136 -20
-255 -9 -194 -12 -222 -33 -268 -27 -59 -40 -66 -77 -47 -20 10 -34 31 -50 78
-31 86 -81 153 -121 161 -17 4 -31 11 -31 16 0 5 27 26 59 46 55 34 59 39 50
62 -12 31 -11 42 1 23 6 -9 10 -10 10 -3 0 15 -28 43 -43 43 -6 0 -2 -7 9 -15
10 -8 14 -15 8 -15 -5 0 -19 6 -30 14 -32 24 -56 -12 -38 -58 3 -9 15 -16 26
-16 24 0 19 -22 -7 -26 -10 -2 -22 -9 -27 -18 -4 -8 -24 -24 -43 -36 -19 -12
-33 -25 -31 -29 3 -4 1 -13 -3 -20 -7 -11 -15 -11 -45 0 -20 7 -36 17 -36 22
0 5 -14 7 -31 3 -20 -4 -44 0 -65 10 -52 25 -51 36 1 13 26 -11 49 -19 51 -16
3 3 -15 13 -40 22 -25 10 -43 22 -40 27 4 6 -4 5 -16 -2 -18 -10 -21 -9 -15 1
6 9 3 10 -10 5 -15 -5 -16 -4 -5 9 11 13 10 14 -4 9 -9 -3 -23 -1 -30 5 -12
10 -12 16 1 42 8 16 18 27 23 24 4 -3 7 3 6 13 -1 12 5 16 19 14 16 -2 17 -1
5 7 -26 18 2 34 33 20 29 -13 36 -29 13 -29 -9 0 -12 -8 -8 -25 2 -15 0 -25
-7 -25 -6 0 -11 -5 -11 -11 0 -8 5 -8 15 1 8 7 15 18 15 24 0 7 6 20 13 30 11
16 17 17 36 7 21 -12 22 -14 6 -38 -9 -13 -13 -28 -9 -31 4 -4 9 -1 11 6 3 6
9 9 15 6 6 -4 8 1 3 15 -4 15 -2 21 8 21 25 0 27 -12 6 -41 -19 -27 -19 -30
-3 -46 16 -16 16 -16 10 5 -5 16 -3 24 8 28 9 3 13 10 10 15 -8 14 5 29 21 23
13 -5 12 -10 -1 -36 -18 -35 -17 -39 15 -27 19 8 21 12 11 24 -15 18 -7 31 10
20 7 -4 10 -19 7 -35 -6 -29 7 -50 32 -50 11 0 11 4 -3 19 -11 12 -15 27 -11
40 4 14 0 24 -14 33 -15 9 -17 16 -10 30 9 17 11 17 35 2 13 -9 27 -14 31 -10
3 3 1 6 -5 6 -6 0 -2 21 12 53 13 28 26 60 30 70 3 10 10 16 15 12 5 -3 12 -1
16 5 3 5 -7 15 -22 22 -15 7 -30 13 -32 15 -2 1 9 24 25 50 16 26 27 52 26 56
-1 5 3 7 10 4 7 -2 12 -11 12 -20 -1 -9 5 -18 12 -21 21 -8 17 21 -6 44 -17
17 -18 23 -8 47 18 39 28 44 51 22 25 -23 34 -24 34 -5 0 8 -6 12 -13 9 -9 -3
-8 6 4 31 8 19 20 32 25 29 6 -3 7 -1 4 4 -4 6 0 27 9 48 12 30 17 35 29 25 8
-7 15 -8 15 -3 0 13 -49 35 -61 28 -5 -4 -6 -17 -3 -31 4 -17 1 -26 -10 -30
-26 -10 -29 1 -10 38 10 18 19 40 20 48 2 8 8 16 14 18 5 2 8 8 5 12 -3 5 0
12 6 16 8 4 9 3 5 -4 -4 -7 -3 -12 2 -12 6 0 24 -14 42 -30 18 -17 35 -28 38
-25 3 2 10 -2 16 -11 7 -9 34 -17 66 -20 47 -5 63 -2 110 23 34 18 64 43 79
66 14 22 32 37 44 37 17 0 19 -5 13 -41z m-604 -2 c14 -5 15 -10 5 -30 -11
-24 -13 -24 -39 -11 -31 16 -34 25 -15 54 10 16 14 18 22 7 6 -7 18 -16 27
-20z m61 -20 c13 12 7 -23 -7 -42 -20 -29 -29 -65 -17 -65 6 0 11 7 11 16 0 9
6 14 13 11 12 -4 11 -36 -2 -49 -8 -9 -81 22 -81 35 0 22 22 46 38 41 14 -5
14 -4 3 4 -12 9 -13 15 -3 37 10 21 16 24 26 16 7 -6 16 -8 19 -4z m57 -27
c16 -9 17 -15 8 -40 -12 -36 -32 -29 -24 9 5 25 5 25 -6 4 -12 -25 -23 -29
-34 -12 -3 6 0 15 7 20 8 5 10 9 6 9 -12 0 2 20 14 20 6 0 19 -5 29 -10z
m-134 -13 c3 -2 -2 -15 -9 -30 -11 -21 -16 -23 -33 -14 -27 15 -35 29 -22 44
9 11 53 11 64 0z m119 -78 c-4 -11 -2 -19 4 -19 6 0 10 5 9 11 -2 7 9 15 24
19 21 6 25 5 21 -6 -3 -8 -8 -12 -11 -9 -4 3 -11 -8 -17 -26 -10 -29 -12 -30
-27 -16 -12 13 -18 14 -26 4 -6 -7 -10 -16 -10 -20 0 -16 -46 -117 -53 -117
-14 0 -19 18 -7 23 8 2 9 8 4 13 -5 5 -11 4 -13 -3 -3 -7 -11 -13 -19 -13 -15
0 -18 18 -6 37 5 8 13 9 22 3 17 -11 37 -13 27 -4 -8 8 22 67 40 77 7 5 11 12
8 17 -3 4 -1 20 5 35 11 29 34 24 25 -6z m-97 -25 c2 -1 -4 -16 -13 -34 -13
-25 -20 -30 -38 -24 -12 3 -19 3 -15 -1 4 -5 3 -14 -3 -22 -8 -8 -8 -13 -1
-13 6 0 12 6 15 13 2 6 7 9 11 6 15 -14 -7 -40 -28 -34 -18 5 -19 4 -5 -7 14
-11 14 -17 2 -46 -12 -28 -16 -31 -33 -22 -11 6 -20 15 -20 20 0 10 66 151 84
178 6 10 11 11 24 0 10 -7 18 -13 20 -14z m42 -10 c0 -2 -8 -19 -17 -39 -17
-36 -27 -43 -38 -25 -9 14 22 67 39 67 9 0 16 -2 16 -3z m-45 -187 c-22 -52
-40 -27 -20 28 4 11 -4 2 -17 -19 -12 -22 -29 -41 -36 -42 -7 -1 -8 0 -3 2 6
3 8 11 5 19 -3 7 2 27 11 44 15 31 16 31 45 16 28 -15 29 -16 15 -48z m-164
18 c16 -9 35 -13 41 -9 7 5 8 3 3 -6 -6 -10 -4 -12 8 -7 11 4 17 1 17 -8 0
-12 -11 -10 -52 10 -29 14 -45 19 -35 11 13 -10 16 -21 12 -39 -6 -23 -9 -24
-36 -15 -33 11 -35 19 -13 53 19 29 17 29 55 10z m59 -55 c0 -18 -27 -40 -43
-34 -18 6 -21 21 -11 48 5 12 10 13 30 4 13 -6 24 -14 24 -18z m66 -46 c-3 -9
-6 -20 -6 -25 0 -4 -7 -6 -15 -3 -10 4 -13 13 -10 25 11 34 -2 20 -24 -26 -12
-25 -28 -45 -37 -45 -9 0 -13 5 -10 13 3 6 9 20 12 30 4 9 10 17 15 17 5 0 6
7 3 15 -4 8 -1 15 5 15 6 0 10 3 10 8 -3 20 3 21 32 7 20 -11 29 -21 25 -31z
m-161 23 c12 -10 14 -16 7 -21 -7 -4 -12 -13 -12 -19 0 -7 8 -2 18 10 15 19
19 20 35 9 14 -11 16 -19 7 -40 l-10 -26 -50 25 c-59 30 -69 67 -19 74 3 1 13
-5 24 -12z m203 -30 c-7 -12 -11 -29 -10 -39 2 -9 -2 -19 -9 -23 -8 -5 -9 -1
-4 15 5 15 4 20 -4 16 -6 -4 -11 -23 -11 -42 0 -34 -6 -40 -25 -26 -7 4 -2 26
15 60 14 29 30 49 35 45 4 -5 5 0 2 9 -4 12 -2 15 8 11 12 -4 12 -9 3 -26z
m-58 -33 c0 -11 -25 -54 -31 -54 -15 0 -22 22 -9 30 6 4 11 10 11 14 -3 20 1
25 14 20 8 -4 15 -8 15 -10z m-121 -23 c8 -5 11 -17 7 -32 l-7 -24 14 23 c13
22 15 23 30 8 8 -9 23 -16 31 -16 18 0 19 -2 10 -24 -8 -22 -34 -20 -34 2 0
11 -3 13 -8 5 -6 -9 -18 -7 -50 7 -45 20 -45 20 -36 44 7 18 22 20 43 7z m235
-66 c11 -8 17 -17 14 -20 -8 -8 -38 5 -38 17 0 5 -5 6 -12 2 -7 -4 -8 -3 -4 4
9 15 17 15 40 -3z m-44 -265 c33 -33 90 -127 96 -160 4 -16 3 -46 0 -66 -7
-33 -10 -35 -34 -30 -59 14 -132 137 -136 226 -1 29 2 34 18 32 11 -2 15 1 11
7 -11 19 24 12 45 -9z m280 -132 c-6 -18 -19 -46 -27 -63 -18 -34 -83 -105
-96 -105 -5 0 -22 -9 -38 -21 -50 -36 -32 -10 44 61 47 44 81 86 96 119 27 55
41 62 21 9z m-110 -23 c8 -2 17 -4 19 -4 2 -1 -2 -7 -8 -14 -6 -8 -8 -17 -4
-20 11 -12 -18 -35 -37 -30 -16 4 -19 13 -18 45 1 31 4 38 17 32 9 -3 23 -7
31 -9z"/>
<path d="M2347 3693 c-11 -10 13 -32 29 -26 20 8 17 33 -4 33 -10 0 -22 -3
-25 -7z"/>
<path d="M2294 3619 c-3 -6 -2 -15 4 -21 6 -6 8 -18 6 -27 -3 -9 2 -4 11 12
15 27 13 47 -5 47 -5 0 -12 -5 -16 -11z"/>
<path d="M2225 3550 c-4 -7 -3 -16 3 -22 14 -14 45 -2 40 15 -6 16 -34 21 -43
7z"/>
<path d="M2163 3475 c-3 -9 -3 -18 0 -22 10 -10 37 6 37 22 0 20 -29 20 -37 0z"/>
<path d="M2104 3409 c-3 -6 1 -18 10 -27 9 -9 16 -12 17 -7 0 6 2 18 4 28 4
19 -20 24 -31 6z"/>
<path d="M2157 3318 c-26 -56 -46 -103 -44 -105 2 -2 25 42 51 98 25 56 45
103 43 105 -2 2 -25 -42 -50 -98z"/>
<path d="M2040 3345 c-10 -11 -9 -17 3 -29 13 -13 16 -13 20 -1 3 7 1 16 -6
19 -7 2 -4 5 6 5 10 1 15 6 12 11 -9 14 -21 12 -35 -5z"/>
<path d="M1995 3033 c-10 -21 -24 -50 -32 -65 -7 -16 -11 -28 -8 -28 7 0 67
121 62 126 -2 3 -12 -12 -22 -33z"/>
<path d="M973 1978 c3 -9 0 -19 -9 -22 -8 -3 -14 -12 -14 -21 0 -23 14 -18 28
12 9 20 9 30 1 37 -9 8 -10 6 -6 -6z"/>
<path d="M589 1221 c-25 -10 -69 -48 -69 -59 0 -6 -15 -22 -33 -36 -28 -21
-34 -33 -35 -66 -1 -22 -3 -43 -4 -47 0 -5 1 -15 5 -23 3 -8 8 -22 10 -30 3
-8 6 3 6 25 1 29 12 54 42 97 22 32 37 58 32 58 -4 0 -21 -21 -38 -47 -21 -33
-31 -43 -33 -31 -4 20 45 88 63 88 6 0 20 10 31 22 13 14 14 19 4 14 -8 -4 -6
-1 4 8 10 8 24 17 30 19 6 2 9 7 6 9 -3 3 -12 3 -21 -1z"/>
<path d="M420 857 c0 -4 8 -24 19 -45 10 -20 16 -42 14 -49 -2 -6 1 -15 8 -19
18 -11 3 52 -21 90 -11 17 -20 27 -20 23z"/>
<path d="M612 556 c18 -19 35 -29 37 -23 4 12 -44 57 -60 57 -6 0 4 -15 23
-34z"/>
<path d="M1108 1335 c-8 -18 -17 -24 -29 -20 -11 4 -22 -1 -28 -12 -7 -13 -10
-14 -11 -4 0 8 -3 11 -7 8 -3 -4 3 -16 15 -27 13 -13 19 -27 15 -38 -12 -32 4
-7 36 56 17 34 29 62 26 62 -3 0 -11 -11 -17 -25z"/>
<path d="M1400 976 c0 -14 -28 -44 -65 -70 -30 -21 -11 -31 22 -11 40 24 80
95 53 95 -5 0 -10 -6 -10 -14z"/>
<path d="M1426 935 c-5 -13 19 -65 30 -65 6 0 -8 64 -16 73 -4 5 -10 1 -14 -8z"/>
<path d="M1322 818 c-5 -7 -9 -26 -8 -43 1 -26 5 -30 32 -33 21 -2 36 4 49 18
12 14 14 20 6 18 -7 -2 -16 3 -18 10 -3 8 1 10 14 5 17 -6 17 -5 -1 15 -21 24
-58 29 -74 10z m58 -9 c0 -6 -7 -8 -17 -4 -15 5 -16 4 -5 -6 17 -18 15 -49 -3
-49 -22 0 -40 51 -23 62 19 11 48 10 48 -3z"/>
<path d="M1396 668 c-20 -11 -21 -48 -2 -74 14 -18 17 -18 43 -4 39 22 40 70
2 81 -14 3 -33 2 -43 -3z m54 -12 c0 -2 3 -13 6 -23 6 -16 5 -15 -9 2 -8 11
-19 17 -23 12 -4 -4 -2 -7 4 -7 7 0 12 -9 12 -20 0 -25 -36 -27 -42 -2 -8 28
2 42 28 42 13 0 24 -2 24 -4z"/>
<path d="M1230 565 c-7 -8 -19 -15 -26 -15 -8 0 -11 -6 -8 -15 5 -11 10 -12
24 -3 10 7 16 17 12 23 -3 5 2 4 11 -4 15 -12 17 -11 17 8 0 25 -12 27 -30 6z"/>
</g>
</svg>
