<svg width="25" height="25" viewBox="0 0 25 25" fill="none" xmlns="http://www.w3.org/2000/svg">
<g id="Logo Instagram" clip-path="url(#clip0_306_2701)">
<path id="Icon" d="M12.98 2.60221C16.184 2.60221 16.564 2.61421 17.83 2.67221C21.082 2.82021 22.601 4.36321 22.749 7.59121C22.807 8.85621 22.818 9.23621 22.818 12.4402C22.818 15.6452 22.806 16.0242 22.749 17.2892C22.6 20.5142 21.085 22.0602 17.83 22.2082C16.564 22.2662 16.186 22.2782 12.98 22.2782C9.77598 22.2782 9.39598 22.2662 8.13098 22.2082C4.87098 22.0592 3.35998 20.5092 3.21198 17.2882C3.15398 16.0232 3.14198 15.6442 3.14198 12.4392C3.14198 9.23521 3.15498 8.85621 3.21198 7.59021C3.36098 4.36321 4.87598 2.81921 8.13098 2.67121C9.39698 2.61421 9.77598 2.60221 12.98 2.60221ZM12.98 0.439209C9.72098 0.439209 9.31298 0.453209 8.03298 0.511209C3.67498 0.711209 1.25298 3.12921 1.05298 7.49121C0.99398 8.77221 0.97998 9.18021 0.97998 12.4392C0.97998 15.6982 0.99398 16.1072 1.05198 17.3872C1.25198 21.7452 3.66998 24.1672 8.03198 24.3672C9.31298 24.4252 9.72098 24.4392 12.98 24.4392C16.239 24.4392 16.648 24.4252 17.928 24.3672C22.282 24.1672 24.71 21.7492 24.907 17.3872C24.966 16.1072 24.98 15.6982 24.98 12.4392C24.98 9.18021 24.966 8.77221 24.908 7.49221C24.712 3.13821 22.291 0.712209 17.929 0.512209C16.648 0.453209 16.239 0.439209 12.98 0.439209ZM12.98 6.27721C9.57698 6.27721 6.81798 9.03621 6.81798 12.4392C6.81798 15.8422 9.57698 18.6022 12.98 18.6022C16.383 18.6022 19.142 15.8432 19.142 12.4392C19.142 9.03621 16.383 6.27721 12.98 6.27721ZM12.98 16.4392C10.771 16.4392 8.97998 14.6492 8.97998 12.4392C8.97998 10.2302 10.771 8.43921 12.98 8.43921C15.189 8.43921 16.98 10.2302 16.98 12.4392C16.98 14.6492 15.189 16.4392 12.98 16.4392ZM19.386 4.59421C18.59 4.59421 17.945 5.23921 17.945 6.03421C17.945 6.82921 18.59 7.47421 19.386 7.47421C20.181 7.47421 20.825 6.82921 20.825 6.03421C20.825 5.23921 20.181 4.59421 19.386 4.59421Z" fill="#FFF"/>
</g>
<defs>
<clipPath id="clip0_306_2701">
<rect width="24" height="24" fill="white" transform="translate(0.97998 0.439209)"/>
</clipPath>
</defs>
</svg>
