<?xml version="1.0" standalone="no"?>
<!DOCTYPE svg PUBLIC "-//W3C//DTD SVG 20010904//EN"
 "http://www.w3.org/TR/2001/REC-SVG-20010904/DTD/svg10.dtd">
<svg version="1.0" xmlns="http://www.w3.org/2000/svg"
 width="900.000000pt" height="939.000000pt" viewBox="0 0 900.000000 939.000000"
 preserveAspectRatio="xMidYMid meet">
<metadata>
Created by potrace 1.10, written by Peter Selinger 2001-2011
</metadata>
<g transform="translate(0.000000,939.000000) scale(0.100000,-0.100000)"
fill="#CCC" stroke="none">
<path d="M4045 8164 c-141 -15 -304 -40 -375 -56 -25 -6 -74 -16 -110 -24
-119 -23 -262 -63 -275 -75 -5 -5 -18 -9 -30 -9 -11 0 -33 -7 -49 -15 -15 -8
-34 -15 -42 -15 -7 0 -28 -6 -46 -14 -18 -8 -53 -22 -78 -31 -25 -10 -63 -24
-85 -33 -54 -21 -369 -175 -427 -210 -158 -93 -296 -184 -400 -264 -216 -167
-331 -273 -539 -498 -48 -52 -112 -126 -141 -165 -29 -38 -55 -72 -58 -75 -8
-7 -102 -140 -115 -162 -5 -9 -32 -49 -59 -89 -27 -40 -60 -93 -73 -118 -14
-25 -40 -73 -59 -106 -52 -92 -164 -328 -164 -346 0 -6 -6 -23 -13 -37 -19
-38 -42 -91 -56 -132 -46 -134 -59 -176 -122 -410 -7 -25 -16 -65 -20 -90 -8
-52 -26 -144 -41 -215 -11 -51 -20 -143 -38 -412 -9 -120 -9 -206 0 -325 23
-332 30 -392 66 -545 8 -34 14 -71 14 -84 0 -12 7 -47 16 -78 8 -31 22 -81 30
-111 8 -30 22 -76 30 -101 7 -26 14 -52 14 -59 0 -7 6 -26 13 -43 17 -41 37
-96 44 -122 5 -21 25 -68 49 -118 8 -16 14 -33 14 -38 0 -17 111 -249 165
-344 19 -33 41 -73 49 -90 50 -100 245 -377 379 -539 128 -156 368 -390 527
-515 36 -28 70 -54 75 -59 6 -5 35 -26 65 -47 30 -21 78 -55 105 -75 45 -34
105 -71 243 -152 66 -39 388 -198 400 -198 6 0 23 -6 39 -14 70 -34 173 -74
264 -103 18 -5 89 27 106 49 19 23 25 77 13 113 -11 34 -62 75 -93 75 -9 0
-33 7 -54 16 -73 31 -98 42 -143 59 -120 48 -282 126 -380 183 -170 99 -193
113 -247 153 -29 22 -55 39 -59 39 -4 0 -17 9 -28 19 -12 11 -42 34 -67 53
-162 116 -407 347 -571 538 -71 83 -218 275 -218 286 0 3 -13 23 -30 44 -16
20 -57 84 -90 141 -33 57 -65 111 -70 119 -28 45 -159 320 -185 390 -9 25 -23
59 -30 75 -7 17 -15 39 -18 50 -3 11 -15 45 -27 75 -22 57 -47 138 -60 200 -4
19 -19 80 -33 135 -29 117 -45 209 -57 320 -5 44 -14 104 -20 134 -16 86 -13
599 5 701 8 47 15 104 15 127 0 23 4 53 10 67 5 14 14 58 20 98 5 40 17 100
25 133 8 33 21 87 30 120 38 154 65 233 175 505 27 65 84 180 134 270 20 36
43 79 52 95 8 17 23 44 34 60 11 17 23 37 27 45 3 8 26 41 50 72 24 31 43 59
43 62 0 3 28 42 62 87 35 45 72 93 83 108 89 119 309 348 460 477 134 115 380
293 485 351 19 10 53 30 75 44 37 23 251 130 335 167 19 8 44 19 54 25 11 5
31 13 45 17 14 5 51 18 81 30 167 64 432 136 600 164 295 49 298 49 625 50
327 0 449 -10 625 -49 36 -9 76 -15 89 -15 13 0 49 -7 80 -16 31 -9 79 -22
106 -29 110 -29 172 -48 203 -61 18 -8 39 -14 47 -14 8 0 29 -6 47 -14 18 -8
53 -22 78 -31 95 -36 126 -49 310 -140 74 -36 149 -75 165 -85 17 -11 39 -24
50 -30 11 -6 34 -19 50 -30 17 -11 37 -23 45 -27 64 -30 320 -224 455 -344
238 -210 488 -499 631 -727 21 -35 47 -75 56 -90 10 -15 22 -36 28 -47 6 -11
22 -40 36 -65 40 -68 128 -247 159 -320 15 -36 31 -69 36 -74 5 -6 9 -16 9
-24 0 -8 6 -28 14 -45 8 -18 22 -57 31 -87 10 -30 24 -70 31 -88 8 -18 14 -40
14 -48 0 -9 6 -30 14 -47 8 -18 17 -43 19 -57 3 -14 11 -45 17 -70 78 -313 95
-465 95 -870 0 -356 -7 -448 -52 -665 -14 -66 -28 -138 -33 -160 -8 -42 -31
-127 -50 -185 -7 -19 -16 -48 -22 -65 -5 -16 -13 -43 -18 -60 -5 -16 -18 -55
-30 -85 -12 -30 -24 -64 -27 -75 -3 -11 -18 -48 -34 -83 -16 -34 -29 -65 -29
-68 0 -8 -109 -224 -144 -284 -14 -25 -30 -54 -36 -65 -6 -11 -19 -33 -30 -50
-11 -16 -23 -37 -27 -45 -7 -14 -70 -107 -122 -181 -152 -213 -396 -485 -602
-671 -69 -62 -282 -228 -293 -228 -3 0 -25 -13 -49 -29 -24 -17 -75 -46 -113
-66 -38 -20 -76 -40 -84 -44 -16 -8 -63 -29 -115 -51 -220 -91 -559 -107 -755
-35 -208 76 -388 208 -522 383 -46 59 -73 105 -124 210 -70 145 -97 291 -98
517 0 156 11 365 21 392 9 26 45 64 70 73 11 5 33 25 49 45 23 31 28 50 35
123 4 51 3 91 -3 97 -5 5 -37 8 -73 7 -54 -3 -66 -1 -84 17 -12 12 -24 35 -27
51 -5 24 0 35 25 60 28 28 35 31 70 25 47 -8 78 6 91 41 16 41 2 72 -36 84
-19 7 -42 9 -50 6 -22 -8 -81 19 -94 44 -16 29 -3 75 25 94 14 9 46 16 73 16
62 0 86 17 86 63 0 54 -17 67 -88 67 -50 0 -65 4 -79 21 -31 35 -32 72 -4 105
24 27 30 29 98 29 l74 0 -4 76 c-3 78 20 175 57 246 9 17 33 62 52 100 l35 68
5 720 c3 425 1 725 -4 733 -5 7 -16 10 -23 7 -8 -3 -208 -5 -444 -5 l-430 -1
3 -717 c3 -727 4 -737 39 -802 87 -164 109 -232 109 -343 l0 -90 61 7 c48 5
67 2 90 -11 39 -23 49 -75 22 -111 -17 -23 -29 -27 -79 -30 -69 -4 -94 -21
-94 -67 0 -46 26 -65 89 -65 80 0 117 -46 91 -114 -10 -28 -61 -47 -103 -39
-14 3 -36 -2 -51 -12 -57 -38 -14 -135 54 -122 86 18 141 -61 89 -128 -21 -25
-26 -27 -93 -23 l-71 3 2 -80 c2 -107 17 -144 80 -194 29 -23 59 -53 66 -69 9
-17 17 -80 21 -167 4 -77 14 -185 22 -240 7 -55 14 -138 14 -184 0 -209 94
-463 245 -666 54 -74 220 -242 270 -275 156 -104 206 -131 310 -172 79 -31
141 -47 265 -68 129 -22 216 -25 305 -9 33 6 85 14 115 18 84 12 169 36 315
88 47 17 206 96 250 124 17 10 39 23 50 28 11 5 37 21 58 35 21 14 41 26 45
26 4 0 15 8 24 18 9 9 35 31 58 47 203 149 548 485 690 674 14 18 37 47 51 65
52 63 129 166 129 172 0 3 14 23 30 44 17 21 30 41 30 44 0 3 19 34 43 69 24
34 46 69 50 77 4 8 23 42 42 75 55 95 174 341 208 430 27 73 49 130 58 150 12
27 38 104 49 140 5 17 16 53 24 80 27 88 60 224 80 330 30 159 45 261 50 330
3 39 10 113 16 165 12 122 12 358 0 480 -6 52 -12 124 -15 160 -12 152 -66
443 -112 605 -8 28 -21 75 -29 105 -9 30 -22 68 -30 83 -8 16 -14 35 -14 42 0
14 -20 66 -46 118 -8 16 -14 33 -14 39 0 5 -6 24 -14 41 -7 18 -28 68 -46 112
-19 44 -39 87 -47 96 -7 8 -13 23 -13 31 0 9 -7 21 -15 28 -8 7 -15 21 -15 31
0 10 -4 20 -9 24 -6 3 -21 29 -35 58 -13 28 -36 69 -50 90 -14 21 -26 42 -26
46 0 4 -12 26 -27 48 -16 21 -32 47 -38 56 -67 112 -259 359 -393 505 -114
124 -169 178 -297 289 -33 28 -71 62 -85 74 -65 57 -342 259 -355 259 -2 0
-32 19 -67 42 -121 82 -435 238 -605 302 -109 41 -181 66 -218 76 -16 5 -43
13 -60 18 -391 131 -1007 193 -1450 146z m2056 -527 c-5 -5 -17 -7 -27 -5 -17
3 -17 4 1 21 14 15 20 16 26 5 5 -7 4 -17 0 -21z m-4077 -480 c-3 -9 -10 -17
-15 -17 -11 0 -12 34 -2 43 11 12 24 -8 17 -26z m-164 -157 c0 -5 -4 -10 -9
-10 -15 0 -61 -49 -61 -65 0 -8 -7 -15 -15 -15 -24 0 -17 19 22 61 36 37 63
50 63 29z m-140 -145 c-11 -14 -40 -21 -40 -10 0 15 35 44 44 35 6 -6 4 -15
-4 -25z m5414 29 c9 -3 16 -17 16 -30 0 -27 -15 -32 -24 -8 -4 10 -13 13 -26
9 -14 -4 -20 -2 -20 8 0 26 21 34 54 21z m-5498 -121 c-5 -12 -10 -13 -18 -5
-8 8 -8 15 3 28 15 18 25 4 15 -23z m-36 -37 c0 -15 -59 -50 -68 -41 -8 8 39
55 55 55 7 0 13 -6 13 -14z m-80 -91 c0 -23 -5 -35 -14 -35 -19 0 -28 28 -16
51 16 30 30 23 30 -16z m-62 -84 c5 -35 -13 -48 -37 -27 -16 15 -18 23 -10 38
14 25 43 19 47 -11z m6352 -773 c0 -7 9 -24 20 -38 22 -29 26 -50 8 -50 -20 0
-59 65 -52 84 7 19 24 22 24 4z m-3243 -166 c26 -15 89 -16 98 -2 10 17 44 11
65 -10 20 -20 20 -32 20 -591 -1 -422 2 -575 11 -585 9 -11 8 -18 -4 -32 -8
-9 -19 -30 -23 -46 -4 -16 -13 -41 -20 -55 -8 -14 -14 -34 -14 -45 0 -10 -11
-39 -24 -65 -23 -44 -76 -203 -76 -229 0 -22 -33 -66 -91 -120 -31 -28 -64
-68 -73 -87 -16 -34 -46 -48 -46 -22 0 7 -16 28 -35 47 -19 19 -35 42 -35 52
0 10 -5 18 -11 18 -7 0 -8 11 -4 30 5 23 3 30 -9 30 -9 0 -16 -8 -16 -20 0
-32 -44 -26 -74 11 -29 35 -31 49 -13 116 10 37 10 47 -1 51 -14 4 -72 114
-72 136 0 8 -6 19 -13 23 -36 23 -40 84 -44 711 -5 687 -9 652 67 672 21 6 50
8 62 5 13 -3 41 0 63 8 50 17 279 17 312 -1z m-105 -2004 l30 -57 -42 -65
c-24 -36 -46 -66 -49 -65 -12 1 -81 117 -81 137 0 11 7 25 15 32 8 7 15 19 15
26 0 22 39 56 61 52 13 -2 32 -24 51 -60z m-28 -255 c20 -20 39 -48 43 -61 6
-25 -34 -119 -62 -142 -16 -13 -21 -40 -7 -40 5 0 25 -24 45 -52 20 -29 49
-65 65 -80 47 -44 48 -74 2 -138 -22 -30 -53 -83 -69 -116 -28 -56 -54 -84
-64 -66 -2 4 -7 19 -11 34 -3 15 -29 56 -56 92 -87 113 -89 140 -20 214 28 29
50 57 50 62 0 5 10 14 21 21 28 15 21 59 -20 124 -17 27 -31 58 -31 68 0 20
58 117 70 117 4 0 23 -17 44 -37z m-3252 -635 c6 -17 -15 -58 -29 -58 -7 0
-13 4 -13 8 0 14 25 62 32 62 3 0 8 -5 10 -12z m3844 -1523 c-21 -16 -32 -13
-21 4 3 6 14 11 23 11 15 -1 15 -2 -2 -15z m-1986 -205 c0 -13 -5 -18 -15 -14
-8 4 -15 12 -15 20 0 8 7 14 15 14 8 0 15 -9 15 -20z"/>
<path d="M4385 7402 c-5 -4 -26 -27 -47 -52 -20 -25 -53 -62 -73 -84 -30 -31
-36 -43 -31 -65 3 -14 11 -55 16 -91 6 -36 15 -80 21 -98 9 -28 8 -41 -6 -72
-19 -42 -14 -110 8 -110 26 0 39 19 42 64 1 25 7 52 13 59 8 10 10 82 2 82 -1
0 -4 34 -6 75 -3 73 -2 76 32 114 26 31 37 37 46 28 14 -14 21 -152 7 -152 -5
0 -9 5 -9 10 0 6 -4 10 -10 10 -5 0 -10 -15 -10 -34 0 -25 5 -35 20 -39 14 -4
20 -14 20 -34 0 -15 4 -34 9 -41 10 -17 18 12 32 113 6 39 12 87 16 108 3 23
1 43 -6 50 -17 17 -14 67 4 67 8 0 15 -7 15 -16 0 -9 11 -29 25 -46 28 -33 29
-39 15 -123 -5 -34 -6 -73 -1 -90 l8 -30 7 40 c3 22 13 71 22 108 18 76 20 71
-56 147 -20 19 -48 52 -64 73 -28 37 -42 43 -61 29z"/>
<path d="M4492 6944 c-37 -25 -27 -89 16 -105 31 -12 42 1 42 53 0 68 -15 82
-58 52z"/>
<path d="M4249 6787 c-9 -20 -9 -33 1 -57 14 -33 20 -36 39 -17 17 17 188 16
220 -2 21 -12 26 -11 38 5 16 22 17 55 1 77 -11 14 -19 15 -51 6 -41 -11 -176
-8 -214 6 -18 6 -25 2 -34 -18z"/>
<path d="M4267 6673 c-9 -8 -9 -67 -1 -76 16 -16 33 6 27 36 -6 36 -16 51 -26
40z"/>
<path d="M4250 6545 c-13 -34 -13 -48 3 -68 11 -15 20 -15 78 -6 47 8 87 9
135 1 78 -11 94 -5 94 37 0 15 -6 34 -12 43 -12 15 -18 15 -75 0 -49 -13 -72
-14 -120 -6 -32 6 -66 14 -75 18 -14 6 -20 2 -28 -19z"/>
<path d="M4256 6408 c-8 -31 -8 -503 0 -562 5 -36 11 -46 23 -44 35 7 44 56
46 248 3 223 2 210 20 210 22 0 18 16 -10 44 -14 14 -25 36 -25 50 0 33 -20
76 -35 76 -7 0 -15 -10 -19 -22z"/>
<path d="M4526 6338 c-5 -65 -3 -445 3 -506 0 -7 6 -10 11 -7 13 8 14 582 1
589 -5 4 -12 -31 -15 -76z"/>
<path d="M4434 6369 c-12 -20 -9 -498 3 -510 9 -9 13 -2 18 23 8 40 1 486 -8
494 -3 3 -8 0 -13 -7z"/>
</g>
</svg>
