<svg width="25" height="25" viewBox="0 0 25 25" fill="none" xmlns="http://www.w3.org/2000/svg">
<g id="LinkedIn" clip-path="url(#clip0_306_2705)">
<path id="Icon" d="M19.98 0.439209H5.97998C3.21898 0.439209 0.97998 2.67821 0.97998 5.43921V19.4392C0.97998 22.2002 3.21898 24.4392 5.97998 24.4392H19.98C22.742 24.4392 24.98 22.2002 24.98 19.4392V5.43921C24.98 2.67821 22.742 0.439209 19.98 0.439209ZM8.97998 19.4392H5.97998V8.43921H8.97998V19.4392ZM7.47998 7.17121C6.51398 7.17121 5.72998 6.38121 5.72998 5.40721C5.72998 4.43321 6.51398 3.64321 7.47998 3.64321C8.44598 3.64321 9.22998 4.43321 9.22998 5.40721C9.22998 6.38121 8.44698 7.17121 7.47998 7.17121ZM20.98 19.4392H17.98V13.8352C17.98 10.4672 13.98 10.7222 13.98 13.8352V19.4392H10.98V8.43921H13.98V10.2042C15.376 7.61821 20.98 7.42721 20.98 12.6802V19.4392Z" fill="#FFF"/>
</g>
<defs>
<clipPath id="clip0_306_2705">
<rect width="24" height="24" fill="white" transform="translate(0.97998 0.439209)"/>
</clipPath>
</defs>
</svg>
