<?xml version="1.0" standalone="no"?>
<!DOCTYPE svg PUBLIC "-//W3C//DTD SVG 20010904//EN"
 "http://www.w3.org/TR/2001/REC-SVG-20010904/DTD/svg10.dtd">
<svg version="1.0" xmlns="http://www.w3.org/2000/svg"
 width="900.000000pt" height="900.000000pt" viewBox="0 0 900.000000 900.000000"
 preserveAspectRatio="xMidYMid meet">
<metadata>
Created by potrace 1.10, written by Peter Selinger 2001-2011
</metadata>
<g transform="translate(0.000000,900.000000) scale(0.100000,-0.100000)"
fill="#000000" stroke="none">
<path d="M4270 7840 c-52 -5 -159 -13 -238 -18 -108 -7 -147 -13 -160 -26 -12
-10 -36 -16 -69 -16 -57 0 -86 -8 -78 -21 3 -5 -7 -11 -22 -15 -60 -13 -69
-16 -99 -31 -19 -10 -41 -13 -57 -9 -34 8 -42 8 -42 -1 -1 -20 -19 -33 -46
-33 -17 0 -37 -7 -45 -15 -9 -8 -28 -15 -43 -15 -16 0 -34 -7 -41 -15 -7 -8
-20 -15 -29 -15 -10 0 -26 -7 -37 -15 -10 -8 -29 -15 -40 -15 -12 0 -27 -7
-34 -15 -7 -8 -18 -15 -25 -15 -11 0 -300 -143 -350 -173 -41 -25 -243 -178
-282 -214 -23 -21 -72 -63 -109 -93 -273 -222 -463 -413 -631 -637 -91 -119
-173 -237 -186 -263 -4 -8 -16 -28 -27 -45 -11 -16 -24 -39 -30 -50 -6 -11
-26 -47 -44 -80 -49 -87 -157 -304 -166 -334 -5 -14 -18 -51 -30 -81 -11 -30
-30 -84 -41 -120 -11 -36 -25 -78 -30 -95 -6 -16 -16 -53 -23 -81 -7 -27 -16
-56 -20 -62 -7 -12 -17 -77 -36 -232 -5 -41 -14 -91 -19 -110 -6 -19 -11 -66
-11 -105 0 -38 -6 -88 -12 -110 -6 -22 -12 -67 -13 -100 -2 -103 -2 -104 -40
-119 l-34 -15 5 -191 c4 -127 10 -206 20 -232 8 -22 14 -66 14 -98 0 -32 7
-74 15 -93 8 -20 15 -49 15 -64 0 -26 14 -78 42 -158 6 -16 13 -50 16 -75 2
-25 11 -54 18 -65 8 -11 14 -28 14 -38 0 -11 6 -33 14 -50 13 -32 33 -82 62
-159 9 -24 23 -59 31 -78 9 -19 22 -51 31 -70 8 -19 18 -42 23 -50 4 -8 24
-49 44 -90 20 -41 41 -82 46 -90 5 -8 12 -22 16 -30 19 -42 131 -222 169 -272
24 -31 44 -59 44 -63 0 -15 142 -192 245 -305 102 -112 151 -160 329 -321 51
-45 291 -229 300 -229 3 0 33 -19 68 -43 88 -58 100 -66 123 -77 11 -6 34 -19
50 -30 17 -11 36 -22 43 -25 28 -12 38 -16 57 -28 91 -55 116 -67 133 -67 11
0 25 -7 32 -15 7 -8 18 -15 25 -15 7 0 39 -13 71 -29 33 -15 82 -36 109 -45
28 -10 57 -22 66 -26 9 -5 34 -12 55 -15 22 -4 49 -13 61 -21 12 -8 34 -14 47
-14 14 0 40 -6 58 -14 40 -17 117 -36 178 -45 25 -4 55 -13 67 -19 12 -7 46
-12 77 -12 30 0 88 -7 128 -16 107 -23 708 -24 823 0 44 9 105 16 136 16 31 0
76 7 99 15 23 8 57 15 76 15 18 0 45 5 61 11 15 6 46 14 68 19 22 4 54 13 70
18 17 6 55 17 85 26 105 30 185 58 195 67 5 5 17 9 27 9 9 0 34 7 55 16 21 9
52 23 68 29 75 32 105 46 185 84 47 23 121 61 165 86 44 24 87 48 95 52 8 4
43 26 78 50 35 24 65 43 68 43 3 0 33 21 68 48 35 26 74 54 86 62 69 47 238
189 344 289 78 74 256 266 256 276 0 4 20 30 45 58 25 29 45 57 45 64 0 7 4
13 9 13 4 0 22 21 39 48 16 26 51 76 77 112 25 36 50 74 56 85 5 11 15 29 21
40 39 60 66 108 101 175 21 41 42 79 48 85 5 5 9 16 9 24 0 8 20 56 43 105 45
93 51 108 93 233 13 40 28 81 33 90 8 17 15 42 42 148 6 22 15 67 20 100 6 33
17 80 25 105 8 25 14 65 14 90 0 25 5 61 11 80 6 19 15 82 20 140 5 58 13 137
18 175 16 110 13 370 -4 435 -8 30 -15 81 -15 113 0 32 -7 74 -15 94 -8 19
-15 55 -15 79 0 24 -6 58 -14 76 -8 18 -18 60 -24 93 -5 33 -17 85 -26 115
-10 30 -20 69 -23 85 -3 17 -12 39 -19 50 -8 11 -14 29 -14 40 0 11 -6 29 -14
40 -7 11 -16 31 -19 45 -6 32 -25 84 -47 135 -54 122 -72 161 -81 175 -5 8
-12 22 -15 30 -13 37 -92 187 -121 232 -18 27 -33 54 -33 60 0 6 -13 27 -28
47 -16 20 -32 43 -36 51 -15 32 -34 60 -118 172 -49 64 -88 119 -88 121 0 3
-17 23 -38 44 -21 21 -51 54 -66 73 -69 86 -246 260 -365 360 -30 25 -61 52
-70 61 -9 9 -63 51 -121 93 -58 42 -112 82 -120 89 -8 8 -22 16 -31 19 -8 4
-42 23 -75 44 -73 48 -95 61 -114 70 -8 4 -33 19 -55 33 -55 34 -168 91 -181
91 -6 0 -17 7 -24 15 -7 8 -25 15 -40 15 -15 0 -33 7 -40 15 -7 8 -20 15 -29
15 -10 0 -26 7 -37 15 -10 8 -29 15 -40 15 -12 0 -27 7 -34 15 -7 8 -23 15
-37 15 -13 0 -34 6 -46 13 -12 8 -51 22 -87 31 -36 9 -78 22 -95 27 -39 14
-129 38 -180 49 -22 5 -58 13 -80 19 -22 6 -60 11 -85 11 -25 0 -56 7 -70 15
-15 9 -54 14 -101 15 -42 0 -121 4 -175 9 -164 16 -294 19 -394 11z m575 -178
c17 -6 64 -16 105 -22 116 -16 214 -34 226 -42 6 -4 31 -10 55 -14 24 -4 53
-13 64 -20 11 -8 33 -14 50 -14 17 0 35 -4 40 -8 6 -4 37 -16 70 -26 33 -10
77 -26 97 -37 20 -10 44 -19 53 -19 8 0 23 -4 33 -9 9 -6 49 -24 87 -41 39
-18 97 -46 130 -62 33 -17 78 -39 100 -50 22 -11 47 -24 55 -29 8 -5 32 -16
52 -25 20 -8 39 -22 42 -30 3 -8 16 -14 30 -14 13 0 26 -7 30 -15 3 -8 15 -15
26 -15 11 0 23 -6 26 -14 3 -7 21 -22 40 -32 19 -10 34 -22 34 -26 0 -5 20
-18 45 -30 25 -12 45 -28 45 -35 0 -11 35 -33 60 -37 5 -1 49 -41 124 -113 24
-24 51 -43 60 -43 9 0 16 -6 16 -12 0 -7 14 -24 30 -37 17 -13 55 -49 86 -80
127 -129 150 -151 165 -156 10 -3 20 -21 24 -41 3 -20 14 -38 24 -42 22 -9 73
-67 94 -107 8 -16 31 -47 51 -67 20 -20 36 -41 36 -46 0 -5 6 -15 13 -21 8 -6
19 -29 26 -51 9 -32 16 -40 29 -36 12 4 18 0 19 -12 2 -31 32 -97 42 -94 6 1
11 -6 11 -17 0 -10 7 -24 15 -31 8 -7 15 -20 15 -30 0 -10 6 -20 14 -23 7 -3
17 -18 21 -34 3 -15 22 -59 40 -98 18 -38 36 -80 39 -92 4 -11 13 -27 21 -33
8 -7 15 -27 15 -46 0 -20 6 -37 16 -42 14 -8 32 -59 69 -197 7 -27 18 -63 24
-78 6 -16 11 -43 11 -61 0 -17 4 -36 8 -42 5 -5 17 -63 26 -129 10 -66 22
-144 27 -172 6 -29 15 -101 20 -160 5 -60 14 -142 19 -183 13 -111 11 -234 -5
-333 -8 -48 -17 -133 -21 -188 -4 -55 -11 -102 -15 -105 -5 -3 -9 -25 -9 -49
0 -24 -6 -64 -14 -87 -8 -24 -19 -65 -25 -93 -11 -54 -30 -128 -56 -215 -9
-30 -20 -72 -24 -93 -5 -21 -14 -44 -20 -50 -6 -6 -11 -20 -11 -30 0 -10 -6
-31 -13 -45 -36 -70 -107 -233 -107 -245 -1 -7 -12 -30 -25 -52 -14 -22 -28
-47 -32 -55 -4 -8 -25 -46 -48 -85 -22 -38 -44 -77 -48 -85 -37 -74 -219 -335
-301 -431 -97 -112 -147 -167 -194 -213 -105 -99 -129 -122 -190 -171 -34 -27
-62 -53 -62 -57 0 -5 -5 -8 -10 -8 -14 0 -110 -72 -110 -82 0 -4 -5 -8 -11 -8
-6 0 -28 -14 -49 -30 -21 -17 -43 -30 -49 -30 -6 0 -11 -5 -11 -10 0 -6 -10
-15 -22 -20 -24 -10 -59 -31 -68 -40 -18 -18 -72 -50 -84 -50 -8 0 -18 -5 -21
-11 -4 -5 -17 -15 -28 -20 -34 -15 -68 -36 -80 -48 -6 -6 -21 -11 -33 -11 -13
0 -25 -4 -28 -9 -4 -5 -27 -19 -54 -31 -26 -12 -60 -28 -77 -35 -16 -8 -55
-24 -85 -35 -30 -11 -64 -25 -75 -30 -11 -4 -47 -16 -80 -25 -64 -18 -136 -40
-200 -60 -37 -12 -68 -19 -260 -60 -75 -16 -174 -31 -295 -45 -41 -4 -121 -13
-178 -20 -122 -14 -346 -8 -512 15 -63 8 -144 19 -180 24 -36 5 -81 14 -100
20 -19 6 -51 11 -70 11 -19 1 -46 7 -60 15 -14 8 -36 14 -48 15 -13 0 -38 6
-55 14 -18 8 -41 16 -52 19 -11 3 -51 17 -90 31 -38 14 -77 26 -85 26 -8 0
-41 13 -75 29 -120 59 -195 91 -209 91 -7 0 -16 7 -20 15 -3 8 -14 15 -25 15
-11 0 -23 5 -26 11 -4 5 -30 21 -58 35 -56 27 -57 27 -167 96 -177 112 -344
239 -467 354 -29 27 -58 54 -65 60 -7 6 -60 62 -118 124 -58 62 -113 122 -123
132 -27 28 -205 266 -246 328 -82 125 -281 516 -281 553 0 7 -7 22 -15 33 -8
10 -15 25 -15 32 0 8 -6 28 -13 45 -22 52 -47 133 -47 153 0 11 -7 28 -15 38
-8 11 -15 29 -15 40 0 12 -6 41 -14 66 -8 25 -21 68 -30 96 -9 29 -16 69 -16
90 0 22 -6 51 -14 65 -7 14 -16 64 -20 111 -4 48 -12 101 -17 120 -17 56 -13
619 6 706 8 40 15 96 15 123 0 27 7 66 15 86 8 19 15 50 15 68 0 18 7 52 15
75 8 23 15 57 15 74 1 17 7 42 15 56 8 14 14 39 15 55 0 17 6 39 14 50 7 11
16 36 18 55 6 39 23 91 44 132 8 14 14 35 14 46 0 11 7 25 15 32 8 7 15 20 15
29 0 8 13 43 29 76 16 33 32 67 35 75 3 8 10 22 15 30 5 8 14 26 20 40 5 14
24 48 40 75 17 28 35 60 41 73 5 12 28 50 50 83 22 33 40 63 40 65 0 3 20 32
45 64 25 32 45 63 45 69 0 5 6 14 13 18 7 4 30 31 50 58 20 28 40 55 44 60 82
109 322 351 467 470 27 22 54 45 60 50 6 6 27 21 46 34 19 14 39 30 43 38 4 7
15 13 22 13 8 0 15 5 15 10 0 6 8 13 18 17 9 3 33 19 53 35 20 15 42 28 47 28
6 0 15 6 19 13 8 12 32 29 68 47 11 6 34 19 50 30 17 11 40 24 52 29 11 5 24
15 28 20 3 6 14 11 24 11 10 0 24 7 31 15 7 8 20 15 30 15 10 0 23 7 30 15 7
8 20 15 30 15 10 0 23 7 30 15 7 8 23 15 35 15 12 0 28 7 35 15 7 8 20 15 29
15 10 0 26 7 37 15 10 8 28 15 39 15 12 0 26 5 32 11 6 6 26 14 44 19 39 10
90 27 137 46 18 8 44 14 57 14 14 0 42 6 62 14 107 38 385 88 593 106 136 12
648 5 685 -8z m2918 -2958 c5 -49 6 -207 4 -351 -5 -217 -8 -266 -21 -285 -11
-16 -16 -46 -16 -101 0 -44 -7 -100 -15 -126 -17 -56 -45 -182 -45 -207 0 -11
-7 -28 -15 -38 -8 -11 -15 -34 -15 -52 0 -17 -7 -45 -15 -60 -8 -16 -15 -39
-15 -51 0 -12 -4 -25 -10 -28 -5 -3 -10 -14 -10 -23 0 -10 -9 -34 -20 -55 -11
-20 -20 -48 -20 -61 0 -13 -7 -29 -15 -36 -8 -7 -15 -19 -15 -26 0 -15 -4 -25
-38 -91 -12 -23 -22 -50 -22 -60 0 -11 -4 -23 -10 -29 -5 -5 -32 -52 -59 -104
-67 -131 -84 -162 -98 -178 -7 -7 -13 -17 -13 -22 0 -5 -20 -38 -45 -74 -25
-37 -45 -69 -45 -72 0 -2 -5 -10 -10 -17 -34 -40 -80 -107 -80 -117 0 -6 -7
-13 -15 -16 -8 -4 -15 -10 -15 -15 0 -8 -23 -37 -65 -83 -6 -6 -28 -33 -50
-61 -58 -72 -279 -289 -371 -365 -43 -36 -80 -68 -82 -72 -2 -5 -10 -8 -17 -8
-7 0 -15 -7 -19 -15 -3 -8 -15 -15 -26 -15 -11 0 -20 -4 -20 -8 0 -10 -96 -82
-109 -82 -6 0 -14 -6 -18 -12 -9 -15 -37 -33 -70 -48 -13 -5 -23 -14 -23 -20
0 -5 -7 -10 -14 -10 -8 0 -35 -13 -59 -30 -25 -16 -49 -30 -55 -30 -5 0 -15
-7 -22 -15 -7 -8 -20 -15 -30 -15 -10 0 -23 -7 -30 -15 -15 -18 -63 -20 -58
-2 3 6 15 13 27 15 12 2 25 10 28 18 3 8 13 14 23 14 10 0 23 7 30 15 7 8 20
15 30 15 10 0 20 7 24 15 3 8 14 15 25 15 10 0 21 7 25 15 3 8 14 15 25 15 11
0 24 6 28 13 9 14 37 32 71 47 12 5 22 14 22 20 0 5 6 10 14 10 8 0 16 3 18 7
5 12 66 53 78 53 5 0 10 4 10 10 0 5 12 16 28 24 15 8 43 30 63 48 19 18 57
51 85 73 81 65 262 245 317 315 29 36 57 70 63 75 6 6 33 39 60 75 27 36 55
69 62 73 6 4 12 12 12 16 0 5 28 51 63 103 94 142 111 170 136 219 12 24 31
58 42 74 10 17 22 37 25 45 4 8 19 42 35 76 16 33 29 65 29 71 0 6 7 16 15 23
8 7 15 22 15 34 0 12 5 27 12 34 13 13 38 75 45 114 3 15 11 33 19 39 8 6 14
24 14 39 0 16 6 41 14 57 22 44 46 125 46 154 0 15 7 32 15 39 8 7 15 29 15
49 0 20 6 56 14 81 29 93 46 180 46 242 0 34 7 83 16 107 13 37 15 100 14 365
-1 377 -3 339 13 334 7 -3 15 -38 20 -94z"/>
<path d="M4105 7554 c-33 -7 -81 -13 -107 -14 -26 0 -57 -5 -70 -10 -13 -6
-72 -21 -133 -34 -146 -33 -226 -53 -233 -61 -9 -9 99 5 123 15 11 5 49 14 85
19 36 5 88 15 115 21 28 6 66 12 85 15 19 2 69 8 110 14 41 6 107 11 147 11
76 0 102 13 58 30 -35 13 -106 11 -180 -6z"/>
<path d="M4045 7389 c-22 -5 -78 -14 -125 -19 -47 -5 -102 -16 -122 -24 -21
-9 -49 -16 -63 -16 -14 0 -33 -4 -43 -9 -9 -6 -34 -13 -54 -16 -21 -3 -38 -10
-38 -15 0 -16 74 -12 96 5 10 8 35 15 54 15 19 0 57 7 84 15 27 8 71 15 98 15
27 0 59 5 70 11 12 6 76 16 142 20 66 5 125 14 130 19 13 13 -173 11 -229 -1z"/>
<path d="M4101 7269 c-14 -5 -61 -14 -105 -19 -116 -14 -196 -29 -233 -46 -17
-8 -43 -14 -58 -14 -14 0 -36 -5 -48 -12 -12 -6 -35 -15 -52 -19 -43 -10 -96
-29 -127 -45 -14 -8 -32 -14 -40 -14 -8 0 -42 -13 -76 -30 -34 -16 -69 -30
-76 -30 -8 0 -16 -7 -20 -15 -3 -8 -13 -15 -23 -15 -22 -1 -80 -47 -70 -56 8
-8 85 24 105 43 7 7 21 13 31 13 9 0 26 7 37 15 10 8 27 15 36 15 9 0 31 8 50
17 18 9 45 22 60 30 14 7 37 13 50 13 12 0 32 7 42 15 11 8 32 15 47 15 15 0
30 4 34 9 3 6 27 13 53 16 26 4 61 13 79 21 17 8 48 14 70 14 21 0 56 7 78 15
22 8 60 14 85 15 25 0 61 4 80 10 19 5 73 11 120 14 47 3 137 8 200 13 l115 8
-95 6 c-143 10 -322 9 -349 -2z"/>
<path d="M3516 7260 c7 -7 19 -7 35 -1 23 9 22 10 -10 10 -24 1 -32 -2 -25 -9z"/>
<path d="M4244 7141 c5 -8 246 -3 255 5 2 2 -55 4 -128 4 -73 0 -130 -4 -127
-9z"/>
<path d="M4035 7120 l-50 -5 40 -6 c22 -3 51 -3 65 1 38 10 3 16 -55 10z"/>
<path d="M3885 7080 c3 -5 17 -10 31 -10 13 0 24 5 24 10 0 6 -14 10 -31 10
-17 0 -28 -4 -24 -10z"/>
<path d="M3961 7001 c-19 -12 22 -18 139 -20 101 -2 150 5 150 20 0 12 -270
12 -289 0z"/>
<path d="M4603 6993 c9 -2 25 -2 35 0 9 3 1 5 -18 5 -19 0 -27 -2 -17 -5z"/>
<path d="M3820 6970 c-11 -7 0 -10 37 -10 28 0 55 5 58 10 8 13 -75 13 -95 0z"/>
<path d="M3735 6940 c-3 -5 3 -10 14 -10 11 0 23 5 26 10 3 6 -3 10 -14 10
-11 0 -23 -4 -26 -10z"/>
<path d="M3090 6900 c0 -5 6 -10 14 -10 8 0 18 5 21 10 3 6 -3 10 -14 10 -12
0 -21 -4 -21 -10z"/>
<path d="M3978 6873 c-10 -3 -18 -11 -18 -19 0 -16 55 -20 65 -5 7 13 -25 29
-47 24z"/>
<path d="M2994 6835 c-4 -8 -14 -15 -24 -15 -11 0 -22 -4 -25 -10 -4 -6 5 -10
19 -10 14 0 26 4 26 9 0 5 9 13 20 16 24 7 27 25 5 25 -9 0 -18 -7 -21 -15z"/>
<path d="M3845 6829 c-4 -6 -5 -13 -1 -16 8 -8 56 6 56 17 0 13 -47 13 -55 -1z"/>
<path d="M3258 6773 c-24 -6 -23 -23 2 -23 11 0 20 7 20 15 0 8 -1 14 -2 14
-2 -1 -11 -3 -20 -6z"/>
<path d="M4190 6772 c-74 -3 -102 -10 -94 -24 5 -7 67 -8 213 -3 194 6 221 9
210 19 -6 6 -254 12 -329 8z"/>
<path d="M4643 6753 c15 -2 37 -2 50 0 12 2 0 4 -28 4 -27 0 -38 -2 -22 -4z"/>
<path d="M3170 6730 c0 -5 9 -10 20 -10 11 0 20 5 20 10 0 6 -9 10 -20 10 -11
0 -20 -4 -20 -10z"/>
<path d="M4790 6730 c-11 -7 1 -9 40 -9 42 1 49 3 30 9 -35 11 -53 11 -70 0z"/>
<path d="M3968 6723 c18 -2 45 -2 60 0 15 2 0 4 -33 4 -33 0 -45 -2 -27 -4z"/>
<path d="M3850 6700 c-12 -8 -9 -10 13 -10 16 0 26 4 22 10 -8 12 -16 12 -35
0z"/>
<path d="M4963 6689 c14 -8 22 -8 30 0 8 8 3 11 -18 11 -26 -1 -28 -2 -12 -11z"/>
<path d="M3083 6683 c-18 -6 -16 -23 1 -23 17 0 30 16 19 23 -5 2 -14 2 -20 0z"/>
<path d="M3736 6671 c-3 -5 0 -11 7 -13 17 -7 38 2 31 13 -7 12 -31 12 -38 0z"/>
<path d="M3216 6662 c-3 -6 -1 -14 5 -17 15 -10 25 3 12 16 -7 7 -13 7 -17 1z"/>
<path d="M4025 6660 c-15 -7 -10 -9 23 -9 23 -1 42 4 42 9 0 12 -37 12 -65 0z"/>
<path d="M2984 6620 c-40 -30 -64 -38 -64 -20 0 6 -7 10 -15 10 -13 0 -13 -3
-3 -20 11 -17 9 -23 -18 -47 -17 -16 -46 -39 -65 -52 -19 -14 -38 -30 -42 -38
-4 -7 -13 -13 -20 -13 -17 0 -142 -133 -128 -138 6 -2 41 24 79 59 37 34 88
78 115 97 26 20 47 40 47 44 0 4 4 8 9 8 6 0 25 14 43 30 18 17 36 30 40 30 5
0 16 8 26 18 9 9 31 27 47 39 26 20 28 22 9 23 -11 0 -38 -13 -60 -30z"/>
<path d="M3645 6640 c-4 -6 7 -10 27 -10 25 0 29 3 18 10 -19 13 -37 13 -45 0z"/>
<path d="M3150 6632 c0 -14 11 -21 26 -15 21 8 17 23 -6 23 -11 0 -20 -4 -20
-8z"/>
<path d="M3855 6629 c-4 -6 -5 -13 -2 -16 8 -8 67 7 67 18 0 13 -57 11 -65 -2z"/>
<path d="M3500 6580 c0 -5 9 -10 21 -10 11 0 17 5 14 10 -3 6 -13 10 -21 10
-8 0 -14 -4 -14 -10z"/>
<path d="M3365 6525 c-33 -19 -71 -40 -85 -47 -13 -7 -35 -23 -49 -35 -24 -23
-24 -23 -2 -23 19 0 30 4 81 31 80 42 96 52 105 64 6 7 22 15 35 17 13 1 25 9
28 16 7 23 -52 11 -113 -23z"/>
<path d="M4285 6539 c-4 -6 -5 -13 -2 -15 7 -8 57 7 57 17 0 13 -47 11 -55 -2z"/>
<path d="M2435 6480 c-10 -11 -15 -23 -12 -26 4 -4 9 1 13 10 3 9 12 16 20 16
8 0 14 5 14 10 0 16 -15 12 -35 -10z"/>
<path d="M4095 6480 c-4 -6 6 -10 22 -10 22 0 25 2 13 10 -19 12 -27 12 -35 0z"/>
<path d="M3925 6451 c-6 -11 9 -23 19 -14 9 9 7 23 -3 23 -6 0 -12 -4 -16 -9z"/>
<path d="M2192 6431 c-8 -5 -12 -17 -10 -27 3 -15 6 -14 21 9 18 27 13 34 -11
18z"/>
<path d="M4213 6409 c-25 -9 -30 -19 -10 -19 15 0 43 17 37 23 -3 3 -15 1 -27
-4z"/>
<path d="M4066 6401 c-4 -5 -1 -11 5 -13 19 -6 89 4 89 13 0 12 -87 12 -94 0z"/>
<path d="M3650 6354 c0 -12 6 -15 23 -10 12 3 26 6 30 6 5 0 5 5 2 10 -10 17
-55 12 -55 -6z"/>
<path d="M2120 6335 c0 -8 5 -15 10 -15 6 0 10 7 10 15 0 8 -4 15 -10 15 -5 0
-10 -7 -10 -15z"/>
<path d="M3175 6322 c-39 -23 -39 -23 -130 -95 -95 -76 -143 -117 -159 -135
-6 -8 -31 -35 -56 -61 -48 -50 -126 -141 -149 -174 -8 -12 -22 -28 -31 -37
-24 -24 -111 -155 -149 -224 -71 -130 -131 -250 -131 -261 0 -7 -7 -18 -15
-25 -8 -7 -15 -25 -15 -39 0 -15 -7 -36 -15 -47 -8 -10 -15 -30 -15 -44 0 -14
-7 -36 -15 -50 -8 -14 -14 -39 -15 -56 0 -17 -7 -37 -15 -44 -8 -7 -15 -29
-15 -49 -1 -20 -7 -47 -15 -61 -8 -14 -15 -47 -15 -75 -1 -27 -7 -68 -15 -90
-21 -58 -21 -532 0 -590 8 -22 15 -59 15 -82 0 -23 5 -45 12 -49 8 -5 9 25 4
122 -15 253 -17 475 -6 489 6 7 14 62 17 122 3 68 11 114 19 123 7 9 16 41 20
73 4 31 13 62 20 68 8 6 14 22 14 35 0 25 23 100 46 151 8 17 14 36 14 41 0 6
7 23 15 39 7 15 23 48 33 73 25 60 40 92 51 110 5 8 17 33 27 55 21 44 96 158
119 182 8 8 15 21 15 29 0 8 5 14 11 14 13 0 48 40 49 56 0 6 20 33 45 59 24
27 46 52 47 56 3 9 88 104 153 172 50 52 105 97 119 97 6 0 35 23 65 51 30 28
65 55 78 60 24 9 32 30 11 28 -7 0 -26 -8 -43 -17z"/>
<path d="M3510 6295 c-7 -8 -20 -15 -30 -15 -10 0 -23 -7 -30 -15 -7 -8 -19
-15 -26 -15 -8 0 -14 -7 -14 -15 0 -8 -9 -15 -20 -15 -23 0 -65 -38 -65 -60 0
-9 -15 -18 -43 -24 -23 -5 -42 -13 -42 -17 0 -5 -12 -15 -27 -23 -31 -16 -52
-34 -165 -138 -43 -39 -78 -77 -78 -85 0 -7 -4 -13 -9 -13 -9 0 -81 -68 -81
-76 0 -2 -8 -12 -17 -23 -10 -10 -29 -33 -43 -51 -14 -18 -32 -40 -40 -50 -8
-9 -24 -32 -34 -51 -11 -19 -25 -38 -33 -42 -7 -4 -13 -16 -13 -26 0 -11 -7
-21 -15 -25 -8 -3 -15 -15 -15 -26 0 -11 -7 -23 -15 -26 -8 -4 -15 -14 -15
-24 0 -10 -7 -20 -15 -24 -8 -3 -15 -16 -15 -30 0 -13 -7 -26 -15 -30 -8 -3
-15 -13 -15 -23 0 -23 -39 -103 -51 -103 -5 0 -9 -18 -9 -39 0 -25 -5 -41 -15
-45 -8 -3 -15 -18 -15 -33 0 -15 -7 -37 -15 -47 -8 -11 -15 -35 -15 -53 0 -21
-6 -36 -15 -39 -12 -5 -15 -24 -15 -84 0 -60 -3 -79 -15 -84 -11 -4 -15 -22
-15 -71 0 -36 3 -65 8 -65 18 1 43 52 38 78 -7 30 13 97 29 99 6 1 9 -6 7 -15
-15 -85 -18 -220 -4 -234 15 -15 20 2 27 93 3 46 12 103 20 127 8 23 15 60 15
82 0 21 4 41 9 44 5 4 12 24 16 47 4 22 13 53 21 67 8 15 14 37 14 50 0 13 7
30 15 38 8 9 15 26 15 38 0 13 7 29 15 36 8 7 15 20 15 30 0 10 7 23 15 30 8
7 15 23 15 36 0 13 4 24 10 24 5 0 13 12 16 28 4 15 20 46 35 70 16 24 29 47
29 53 0 5 4 9 9 9 5 0 13 10 17 23 6 19 24 45 77 107 7 8 28 35 47 60 19 25
43 54 55 66 67 69 94 103 85 109 -6 3 -13 -1 -16 -9 -3 -9 -10 -16 -14 -16
-11 0 -80 -70 -80 -81 0 -5 -4 -9 -9 -9 -5 0 -25 -14 -45 -32 -25 -22 -36 -40
-36 -60 0 -15 -5 -28 -11 -28 -14 0 -48 -41 -49 -57 0 -7 -7 -13 -15 -13 -8 0
-15 -8 -15 -18 0 -10 -8 -25 -19 -34 -10 -8 -21 -22 -24 -29 -3 -10 -8 -11
-16 -3 -9 9 -5 22 18 57 17 24 31 48 31 51 0 11 138 182 173 214 9 9 17 23 17
32 0 16 41 60 56 60 5 0 20 12 33 25 13 14 27 25 31 25 5 0 11 8 14 18 3 9 14
22 24 27 63 35 82 51 80 70 -2 15 4 21 22 23 13 2 30 13 38 23 7 10 24 19 37
19 16 0 39 15 64 43 39 41 40 42 55 22 20 -26 20 -32 -2 -39 -9 -3 -32 -19
-49 -35 -17 -15 -39 -31 -50 -35 -17 -7 -17 -8 0 -18 14 -7 23 -6 35 5 9 7 46
31 82 52 36 21 67 42 70 46 3 4 29 19 59 34 33 17 49 31 43 37 -12 12 -57 1
-73 -18 -6 -8 -19 -14 -28 -14 -9 0 -22 -5 -29 -12 -9 -9 -17 -8 -37 2 -30 16
-32 30 -5 30 11 0 20 4 20 9 0 5 16 12 35 15 19 4 38 13 42 20 5 7 16 15 26
19 9 3 17 11 17 17 0 16 -46 12 -60 -5z m-801 -844 c19 -12 6 -43 -16 -39 -21
4 -31 48 -11 48 7 0 19 -4 27 -9z m-21 -80 c3 -16 -2 -24 -17 -28 -15 -4 -21
-13 -21 -33 0 -16 -7 -30 -15 -34 -8 -3 -15 -15 -15 -26 0 -11 -4 -20 -10 -20
-15 0 -12 36 3 49 12 9 22 35 43 109 6 21 29 8 32 -17z m-98 -195 c0 -23 -35
-64 -45 -54 -3 3 -1 16 4 29 5 13 12 32 15 42 8 24 26 12 26 -17z m-60 -171
c0 -14 -4 -25 -10 -25 -11 0 -14 33 -3 43 11 11 13 8 13 -18z m-26 -64 c8 -12
-3 -41 -15 -41 -5 0 -9 11 -9 25 0 25 14 34 24 16z"/>
<path d="M2522 6217 c-40 -40 -72 -76 -72 -82 -1 -5 -16 -26 -35 -45 -19 -19
-35 -40 -35 -47 0 -7 -6 -13 -14 -13 -7 0 -21 -16 -30 -35 -9 -19 -21 -35 -25
-35 -5 0 -12 -12 -15 -26 -5 -20 -11 -24 -29 -20 -12 3 -16 3 -9 0 26 -12 16
-32 -48 -99 -11 -12 -20 -26 -20 -33 0 -7 -9 -22 -20 -34 -10 -11 -22 -35 -26
-52 -3 -17 -10 -33 -13 -36 -11 -8 -65 -100 -88 -150 -59 -127 -88 -207 -112
-305 -7 -27 -18 -63 -26 -80 -7 -16 -21 -73 -30 -125 -9 -52 -21 -104 -26
-115 -11 -23 -17 -230 -7 -240 20 -20 28 14 28 114 0 84 3 111 15 121 9 8 15
30 15 59 1 25 7 64 15 86 8 22 15 52 15 66 0 15 7 29 15 33 11 4 15 20 15 54
0 30 5 54 14 61 8 6 16 26 19 44 7 46 33 111 46 115 6 2 11 19 11 37 0 19 6
38 13 42 15 10 47 69 47 88 0 7 7 18 15 25 8 7 15 23 15 36 0 13 6 27 13 31 6
4 21 26 32 48 11 22 25 44 32 48 7 4 13 17 13 28 0 11 14 33 30 49 17 16 30
34 30 40 0 11 82 125 104 145 6 6 18 21 27 35 22 33 78 99 160 187 21 23 39
44 39 47 0 19 -34 -4 -98 -67z"/>
<path d="M4215 6210 c-11 -5 -40 -9 -65 -9 -56 -1 -90 -10 -90 -24 0 -13 135
-3 153 11 8 7 31 16 53 21 l39 9 -35 0 c-19 0 -44 -3 -55 -8z"/>
<path d="M3953 6163 c-25 -9 -12 -23 21 -23 40 0 66 8 66 21 0 9 -66 11 -87 2z"/>
<path d="M3855 6129 c-4 -6 -5 -13 -1 -16 8 -9 76 7 76 17 0 14 -67 13 -75 -1z"/>
<path d="M4167 6019 c-37 -4 -73 -12 -80 -17 -7 -5 -34 -13 -61 -17 -27 -3
-56 -10 -65 -15 -9 -4 -36 -16 -61 -25 -78 -30 -267 -124 -320 -160 -29 -19
-56 -35 -61 -35 -4 0 -12 -6 -16 -12 -4 -7 -24 -24 -43 -38 -83 -57 -211 -186
-289 -290 -67 -88 -121 -172 -121 -188 0 -5 -4 -12 -8 -14 -10 -4 -52 -85 -52
-99 0 -6 -7 -17 -15 -25 -8 -9 -15 -25 -15 -37 0 -12 -7 -31 -15 -41 -8 -11
-15 -30 -15 -42 0 -13 -4 -25 -9 -29 -6 -3 -13 -26 -17 -52 -4 -25 -13 -58
-20 -72 -8 -14 -14 -55 -14 -91 0 -38 -5 -71 -12 -78 -8 -8 -12 -68 -12 -199
0 -215 22 -409 48 -429 9 -6 16 -21 16 -33 0 -11 5 -21 10 -21 13 0 13 37 0
45 -5 3 -7 117 -5 293 5 311 11 409 29 431 6 8 11 28 12 45 2 47 20 103 38
121 9 9 16 23 16 32 0 8 6 29 14 46 7 18 19 52 26 77 8 25 20 52 27 61 7 8 13
19 13 24 0 4 17 32 38 63 20 30 42 61 47 71 51 80 58 88 135 170 25 26 57 61
71 78 14 17 64 58 110 92 46 33 91 68 100 76 9 8 23 15 31 15 9 0 18 7 22 15
3 8 12 15 20 15 8 0 35 16 60 35 26 19 51 35 57 35 6 0 28 14 49 30 21 17 50
30 64 30 14 0 26 5 26 10 0 6 13 10 29 10 16 0 36 7 44 15 15 14 88 35 138 40
15 1 44 11 65 22 22 11 56 23 76 27 33 6 57 22 47 30 -11 9 -93 12 -152 5z"/>
<path d="M3161 5961 c-14 -11 -20 -21 -13 -25 11 -7 42 19 42 35 0 12 -1 12
-29 -10z"/>
<path d="M3129 5642 c-68 -69 -169 -192 -169 -206 0 -3 -12 -22 -26 -43 -14
-21 -30 -47 -35 -58 -5 -11 -13 -27 -17 -35 -25 -43 -33 -59 -52 -100 -12 -25
-28 -58 -35 -73 -8 -16 -15 -39 -15 -52 0 -12 -7 -28 -15 -35 -8 -7 -15 -29
-15 -50 0 -21 -7 -43 -15 -50 -8 -7 -15 -24 -15 -39 -1 -14 -7 -37 -15 -51 -9
-16 -14 -55 -15 -105 0 -51 -5 -86 -12 -93 -9 -9 -14 -64 -16 -183 -4 -172 0
-219 18 -219 6 0 10 73 10 193 0 139 3 196 12 205 7 7 16 51 19 98 4 47 12 91
18 97 6 6 11 25 11 42 1 16 7 41 15 55 8 14 14 37 15 51 0 15 7 32 15 39 8 7
15 21 15 32 0 11 6 32 13 46 8 15 22 45 32 67 9 22 21 47 26 55 5 8 15 29 23
45 7 17 30 54 50 84 20 29 36 55 36 58 0 3 14 22 30 43 17 21 30 42 30 47 0 5
8 16 18 25 9 8 28 30 42 49 14 18 46 54 73 79 26 26 47 50 47 54 0 20 -34 -4
-101 -72z"/>
<path d="M4397 5699 c-9 -5 -22 -7 -27 -4 -17 11 -213 -16 -270 -37 -30 -11
-71 -23 -90 -28 -61 -14 -154 -50 -182 -70 -15 -11 -32 -20 -38 -20 -5 0 -15
-9 -22 -20 -7 -11 -20 -20 -30 -20 -9 0 -35 -18 -58 -40 -23 -22 -45 -40 -49
-40 -4 0 -27 -20 -52 -44 -24 -25 -54 -48 -66 -51 -14 -3 -23 -13 -23 -25 0
-11 -9 -24 -20 -30 -22 -12 -73 -87 -122 -178 -90 -172 -108 -209 -108 -230 0
-12 -7 -39 -16 -60 -8 -20 -18 -68 -21 -107 -3 -38 -9 -74 -13 -80 -6 -9 -13
-145 -11 -200 1 -11 1 -45 1 -75 -1 -30 6 -84 15 -120 9 -36 20 -82 24 -103 5
-21 15 -45 23 -55 9 -9 22 -42 29 -72 7 -30 25 -76 40 -101 15 -25 36 -66 47
-90 10 -24 33 -61 51 -83 17 -21 31 -43 31 -48 0 -5 19 -28 43 -52 23 -23 56
-58 73 -77 57 -63 129 -122 179 -148 28 -14 72 -43 99 -64 27 -20 57 -37 67
-37 10 0 39 -11 64 -24 25 -14 67 -28 93 -31 26 -3 54 -10 63 -15 25 -13 167
-32 189 -25 12 4 27 2 34 -5 11 -8 55 -8 173 1 128 9 168 15 208 34 28 13 78
31 113 41 35 10 67 24 71 32 6 11 13 12 29 3 18 -10 24 -8 37 13 9 14 29 27
43 31 15 3 45 19 67 36 22 16 48 32 58 35 9 4 17 12 17 20 0 7 20 25 45 40 25
14 54 39 65 54 11 16 29 32 40 35 10 3 22 14 25 24 3 10 18 32 33 48 68 77 78
89 89 113 7 14 17 33 23 43 26 44 30 53 36 67 3 8 20 44 39 80 39 77 60 138
56 163 -1 10 3 24 9 32 6 7 10 19 9 27 -2 7 2 29 9 48 6 19 14 71 16 115 2 44
7 96 10 116 4 27 2 38 -9 43 -17 6 -20 33 -4 38 8 3 7 22 -1 67 -6 35 -9 74
-6 86 3 12 -1 30 -9 41 -8 10 -15 33 -15 49 0 17 -9 49 -20 73 -11 24 -25 62
-31 85 -6 23 -20 52 -31 64 -13 13 -18 28 -14 41 5 14 1 21 -15 25 -15 4 -20
12 -17 30 2 16 -7 33 -29 53 -17 16 -34 43 -37 59 -4 20 -22 43 -52 65 -57 44
-58 46 -124 119 -30 33 -60 61 -66 61 -7 0 -32 18 -55 40 -24 22 -47 40 -52
40 -5 0 -20 9 -34 20 -14 11 -34 20 -43 20 -10 0 -23 6 -29 14 -7 8 -34 20
-62 26 -27 7 -52 16 -55 21 -3 5 -14 9 -24 9 -11 0 -34 9 -52 20 -18 11 -47
20 -65 20 -17 0 -35 5 -39 11 -4 6 -19 9 -36 5 -16 -3 -38 -1 -48 4 -28 15
-172 22 -193 9z m218 -87 c39 -5 92 -16 118 -26 26 -9 54 -16 62 -16 9 0 23
-4 33 -9 9 -5 55 -28 102 -51 83 -40 120 -60 130 -70 3 -3 25 -18 50 -35 58
-38 230 -210 267 -267 15 -23 33 -49 40 -56 14 -14 94 -179 111 -227 51 -146
67 -246 66 -410 0 -148 -20 -275 -58 -388 -30 -87 -81 -194 -102 -215 -8 -7
-14 -18 -14 -24 0 -5 -13 -27 -30 -48 -16 -21 -30 -41 -30 -44 0 -15 -106
-125 -184 -191 -26 -22 -53 -45 -59 -50 -20 -17 -100 -68 -142 -91 -23 -11
-50 -26 -60 -32 -42 -23 -89 -42 -103 -42 -7 0 -28 -6 -45 -14 -99 -44 -398
-70 -513 -45 -27 5 -70 14 -96 19 -148 28 -356 132 -476 239 -75 65 -89 79
-117 112 -16 19 -39 48 -50 63 -11 16 -25 33 -30 40 -19 20 -85 133 -85 145 0
6 -4 11 -8 11 -9 0 -37 61 -47 103 -4 15 -11 30 -16 33 -5 3 -9 14 -9 26 0 11
-7 34 -15 51 -34 74 -57 301 -44 437 11 125 27 221 38 234 5 6 12 28 16 49 4
20 11 40 16 43 5 3 9 12 9 20 0 16 38 106 49 114 3 3 15 23 26 44 61 121 219
289 359 380 46 31 88 56 92 56 4 0 15 6 23 14 9 7 43 24 76 37 33 12 64 27 70
31 5 4 23 8 40 8 17 0 40 7 51 15 12 8 52 17 90 21 38 4 78 11 89 15 24 10
212 5 310 -9z"/>
<path d="M4272 5463 c-20 -7 -53 -13 -72 -13 -19 0 -46 -7 -60 -15 -14 -8 -35
-14 -46 -15 -12 0 -27 -7 -34 -15 -7 -8 -24 -15 -39 -15 -15 0 -32 -5 -38 -11
-13 -13 -47 -33 -81 -49 -45 -20 -108 -68 -177 -136 -71 -70 -165 -185 -165
-202 0 -5 -7 -15 -15 -22 -8 -7 -15 -20 -15 -30 0 -10 -7 -20 -15 -24 -8 -3
-15 -16 -15 -29 0 -14 -6 -30 -14 -36 -8 -7 -17 -30 -21 -52 -4 -21 -11 -41
-16 -45 -5 -3 -9 -15 -9 -27 0 -12 -7 -40 -15 -62 -15 -44 -19 -343 -5 -400
10 -39 11 -32 16 187 3 137 8 194 19 215 8 15 15 42 15 59 0 17 7 37 15 44 8
7 15 24 15 38 0 14 6 33 13 41 7 9 22 36 32 61 21 47 114 180 127 180 5 0 8 4
8 10 0 22 152 158 193 173 9 4 17 11 17 17 0 5 9 10 19 10 11 0 22 4 25 9 8
13 84 51 102 51 8 0 17 7 20 15 4 9 19 15 39 15 18 0 38 7 45 15 7 8 29 15 49
15 20 0 49 7 65 15 19 10 62 16 130 17 55 0 110 5 121 9 18 7 18 8 -5 9 -112
7 -197 4 -228 -7z"/>
<path d="M4348 4621 c-99 -74 -105 -83 -111 -152 -6 -80 18 -135 81 -187 39
-32 50 -36 97 -35 51 1 102 25 157 73 9 8 24 21 32 28 22 18 22 134 1 152 -8
7 -15 16 -15 21 0 4 -13 27 -29 51 -22 33 -41 48 -78 61 -65 23 -91 21 -135
-12z m109 -56 c45 -19 66 -43 83 -95 15 -44 7 -71 -34 -117 -42 -49 -139 -37
-176 21 -40 65 -21 135 49 181 44 29 35 28 78 10z"/>
<path d="M5390 4288 c0 -20 -4 -40 -10 -43 -5 -3 -10 -11 -10 -18 0 -19 27 16
33 43 4 14 2 32 -3 40 -7 11 -10 5 -10 -22z"/>
<path d="M5356 4158 c-7 -34 -3 -44 13 -33 13 7 15 65 2 65 -5 0 -11 -14 -15
-32z"/>
<path d="M5320 4070 c0 -16 -4 -30 -9 -30 -5 0 -12 -13 -16 -30 -4 -16 -11
-30 -16 -30 -5 0 -12 -12 -15 -27 -4 -15 -14 -34 -21 -42 -15 -14 -14 -31 2
-34 5 -1 11 7 13 18 3 11 10 24 18 28 8 4 14 19 14 31 0 13 7 26 15 30 8 3 15
14 15 24 0 11 7 25 15 32 8 7 15 23 15 36 0 15 -6 24 -15 24 -10 0 -15 -10
-15 -30z"/>
<path d="M5200 3855 c0 -8 7 -15 15 -15 8 0 15 7 15 15 0 8 -7 15 -15 15 -8 0
-15 -7 -15 -15z"/>
<path d="M5162 3809 c-7 -12 -11 -23 -9 -26 6 -6 47 28 47 39 0 16 -26 7 -38
-13z"/>
<path d="M5086 3714 c-4 -10 -1 -14 6 -12 15 5 23 28 10 28 -5 0 -13 -7 -16
-16z"/>
<path d="M1850 5645 c0 -8 5 -15 10 -15 6 0 10 7 10 15 0 8 -4 15 -10 15 -5 0
-10 -7 -10 -15z"/>
<path d="M1890 5585 c0 -8 5 -15 10 -15 6 0 10 7 10 15 0 8 -4 15 -10 15 -5 0
-10 -7 -10 -15z"/>
<path d="M1865 5507 c-4 -10 -5 -21 -1 -24 10 -10 18 4 13 24 -4 17 -4 17 -12
0z"/>
<path d="M1622 5498 c6 -18 28 -21 28 -4 0 9 -7 16 -16 16 -9 0 -14 -5 -12
-12z"/>
<path d="M1767 5443 c-11 -10 -8 -43 3 -43 6 0 10 11 10 25 0 26 -2 29 -13 18z"/>
<path d="M2333 5434 c-3 -8 -1 -20 6 -27 8 -8 11 -4 11 16 0 30 -7 35 -17 11z"/>
<path d="M2300 5365 c0 -14 5 -25 10 -25 6 0 10 11 10 25 0 14 -4 25 -10 25
-5 0 -10 -11 -10 -25z"/>
<path d="M1800 5354 c0 -14 4 -23 10 -19 6 3 10 15 10 26 0 10 -4 19 -10 19
-5 0 -10 -12 -10 -26z"/>
<path d="M2165 5367 c-4 -10 -5 -21 -1 -24 10 -10 18 4 13 24 -4 17 -4 17 -12
0z"/>
<path d="M2486 5363 c-4 -9 -2 -21 4 -27 7 -7 10 -2 10 17 0 31 -5 34 -14 10z"/>
<path d="M2270 5285 c0 -8 5 -15 10 -15 6 0 10 7 10 15 0 8 -4 15 -10 15 -5 0
-10 -7 -10 -15z"/>
<path d="M5765 5283 c4 -10 10 -26 12 -35 3 -10 9 -18 14 -18 5 0 9 -7 9 -15
0 -16 54 -121 75 -145 7 -8 16 -25 19 -37 4 -13 12 -23 17 -23 15 0 10 47 -6
54 -8 3 -15 16 -15 30 0 14 -4 27 -9 31 -6 3 -20 27 -33 53 -13 26 -26 49 -30
50 -5 2 -8 8 -8 14 0 6 -12 22 -26 35 -21 19 -25 20 -19 6z"/>
<path d="M2130 5271 c0 -12 5 -21 10 -21 6 0 10 6 10 14 0 8 -4 18 -10 21 -5
3 -10 -3 -10 -14z"/>
<path d="M1770 5255 c0 -14 5 -25 10 -25 6 0 10 11 10 25 0 14 -4 25 -10 25
-5 0 -10 -11 -10 -25z"/>
<path d="M2247 5243 c-11 -10 -8 -43 3 -43 6 0 10 11 10 25 0 26 -2 29 -13 18z"/>
<path d="M2100 5204 c0 -15 -7 -32 -16 -38 -11 -8 -14 -24 -12 -56 3 -43 4
-43 11 -15 4 17 14 50 22 75 18 53 18 60 5 60 -5 0 -10 -12 -10 -26z"/>
<path d="M1677 5153 c-11 -10 -8 -43 3 -43 6 0 10 11 10 25 0 26 -2 29 -13 18z"/>
<path d="M2207 5123 c-6 -31 0 -46 14 -38 12 8 12 65 0 65 -5 0 -11 -12 -14
-27z"/>
<path d="M1528 5134 c-5 -4 -8 -19 -8 -33 1 -23 2 -24 11 -8 11 19 9 53 -3 41z"/>
<path d="M1710 5045 c0 -19 2 -35 5 -35 10 0 24 40 19 54 -11 28 -24 17 -24
-19z"/>
<path d="M7420 5049 c0 -5 6 -31 12 -57 l13 -47 5 45 c3 25 4 51 2 58 -5 15
-32 16 -32 1z"/>
<path d="M2180 5027 c-10 -21 -11 -30 -2 -39 17 -17 24 -5 20 34 l-4 33 -14
-28z"/>
<path d="M2041 4995 c1 -40 1 -40 10 -10 5 18 5 33 -1 39 -7 7 -10 -4 -9 -29z"/>
<path d="M6946 5012 c-3 -6 1 -41 10 -79 15 -65 26 -178 40 -433 4 -67 2 -154
-5 -210 -6 -52 -15 -133 -20 -180 -11 -111 -59 -307 -117 -484 -13 -38 -21
-74 -17 -79 8 -13 52 44 53 69 0 11 7 29 15 40 8 10 15 35 15 55 0 20 6 42 14
48 7 6 16 34 19 62 4 28 10 56 16 63 5 6 11 29 14 51 3 22 10 60 16 85 5 25
10 70 11 101 0 30 7 79 16 108 12 41 14 86 11 200 -3 132 -9 197 -37 401 -20
150 -38 208 -54 182z"/>
<path d="M1486 4935 c-4 -28 -13 -63 -21 -80 -8 -16 -22 -48 -31 -70 l-16 -40
-13 30 c-11 25 -15 27 -20 12 -11 -26 3 -67 19 -61 22 8 29 -14 8 -25 -29 -15
-35 -52 -11 -58 10 -3 19 -14 19 -25 0 -10 -4 -16 -10 -13 -33 21 -27 -35 8
-77 22 -27 29 -15 35 63 3 40 11 77 17 83 5 5 10 42 10 81 0 47 5 78 15 91 15
20 19 86 6 119 -6 15 -10 8 -15 -30z"/>
<path d="M5920 4966 c0 -8 5 -27 12 -43 6 -15 15 -50 19 -78 4 -27 15 -81 24
-120 23 -98 23 -308 0 -384 -9 -31 -21 -70 -26 -87 -5 -17 -9 -53 -9 -80 0
-32 -9 -67 -25 -99 -13 -27 -25 -60 -25 -72 0 -12 -7 -39 -16 -60 -46 -106
-74 -160 -88 -172 -9 -8 -16 -22 -16 -32 0 -10 -4 -20 -9 -23 -5 -3 -19 -25
-31 -48 -45 -86 -206 -272 -342 -394 -38 -35 -88 -93 -88 -103 0 -5 -17 -21
-37 -37 -21 -16 -42 -32 -48 -36 -53 -44 -133 -98 -143 -98 -7 0 -45 -12 -85
-26 -39 -15 -92 -30 -117 -34 -86 -15 -174 -41 -190 -55 -9 -8 -33 -15 -53
-15 -20 0 -39 -5 -43 -11 -7 -12 3 -11 156 11 47 7 92 15 100 18 8 3 50 17 93
32 43 15 83 32 89 38 7 7 19 12 28 12 9 0 31 11 50 25 19 14 39 25 46 25 23 0
126 52 172 88 111 84 311 273 379 357 49 61 113 159 113 172 0 6 4 13 8 15 9
4 82 145 82 160 0 5 7 16 15 24 8 9 15 25 15 38 0 12 4 26 9 31 13 15 41 109
48 162 3 27 9 53 14 59 5 5 11 55 14 110 4 54 11 109 17 121 19 39 -11 410
-36 448 -9 13 -16 35 -16 47 0 13 -6 33 -14 44 -8 11 -16 33 -18 49 -3 29 -28
49 -28 21z"/>
<path d="M2150 4934 c-14 -37 -12 -64 5 -64 11 0 15 12 15 45 0 51 -6 57 -20
19z"/>
<path d="M7352 4930 c0 -19 2 -27 5 -17 2 9 2 25 0 35 -3 9 -5 1 -5 -18z"/>
<path d="M2008 4917 c-5 -10 -8 -34 -8 -53 0 -19 -6 -45 -14 -57 -11 -17 -15
-67 -16 -217 -3 -273 -1 -320 9 -320 4 0 10 114 13 253 3 170 9 259 17 275 7
12 11 48 9 80 -2 37 -6 51 -10 39z"/>
<path d="M7230 4911 c0 -12 5 -21 10 -21 6 0 10 6 10 14 0 8 -4 18 -10 21 -5
3 -10 -3 -10 -14z"/>
<path d="M1410 4905 c0 -8 5 -15 10 -15 6 0 10 7 10 15 0 8 -4 15 -10 15 -5 0
-10 -7 -10 -15z"/>
<path d="M1680 4858 c0 -38 3 -49 10 -38 13 20 13 90 0 90 -5 0 -10 -24 -10
-52z"/>
<path d="M2330 4879 c0 -11 5 -17 10 -14 6 3 10 13 10 21 0 8 -4 14 -10 14 -5
0 -10 -9 -10 -21z"/>
<path d="M1610 4860 c0 -11 5 -20 10 -20 6 0 10 9 10 20 0 11 -4 20 -10 20 -5
0 -10 -9 -10 -20z"/>
<path d="M2071 4818 c0 -67 9 -100 24 -99 6 1 11 -22 12 -51 8 -167 33 -180
33 -18 0 116 -4 140 -25 140 -9 0 -15 15 -17 42 -2 23 -9 43 -15 46 -10 3 -13
-13 -12 -60z"/>
<path d="M6710 4825 c0 -24 7 -70 15 -102 11 -40 15 -106 14 -223 0 -166 -5
-227 -32 -375 -8 -44 -21 -114 -27 -155 -7 -41 -16 -79 -20 -85 -5 -5 -11 -32
-15 -60 -4 -27 -11 -52 -15 -55 -3 -3 -14 -30 -24 -60 -27 -84 -127 -298 -186
-395 -16 -27 -33 -57 -37 -65 -13 -27 -65 -103 -142 -205 -111 -148 -444 -473
-521 -509 -11 -5 -20 -13 -20 -18 0 -4 -6 -8 -12 -8 -18 -1 -70 -48 -66 -61 2
-5 21 3 43 19 22 16 52 35 67 43 134 72 414 337 558 529 113 151 211 319 297
510 59 129 63 141 63 164 0 13 7 29 15 36 8 7 15 26 15 42 0 16 5 39 12 51 12
23 20 59 38 167 6 36 17 97 25 135 28 138 26 573 -3 583 -7 2 -12 21 -12 42 0
50 -10 100 -21 100 -5 0 -9 -20 -9 -45z"/>
<path d="M6840 4846 c0 -14 5 -26 10 -26 6 0 10 9 10 19 0 11 -4 23 -10 26 -6
4 -10 -5 -10 -19z"/>
<path d="M7527 4863 c-11 -10 -8 -111 3 -118 6 -4 10 18 10 59 0 66 -1 72 -13
59z"/>
<path d="M7257 4813 c-8 -44 2 -125 14 -117 12 7 12 141 0 148 -5 3 -11 -11
-14 -31z"/>
<path d="M7376 4765 c-9 -25 4 -126 15 -119 11 6 11 91 0 118 -7 19 -8 19 -15
1z"/>
<path d="M1657 4763 c-11 -10 -8 -51 3 -58 6 -4 10 8 10 29 0 37 -2 41 -13 29z"/>
<path d="M1921 4720 c0 -36 2 -41 10 -27 7 12 7 27 0 45 -9 25 -9 24 -10 -18z"/>
<path d="M6867 4693 c-3 -5 -2 -15 2 -22 7 -10 10 -10 16 -1 4 6 3 16 -3 22
-5 5 -12 6 -15 1z"/>
<path d="M6513 4625 c0 -33 2 -45 4 -27 2 18 2 45 0 60 -2 15 -4 0 -4 -33z"/>
<path d="M7138 4648 c-3 -18 -2 -87 2 -153 l7 -120 1 153 c2 150 -1 183 -10
120z"/>
<path d="M2046 4635 c-9 -25 -7 -193 3 -199 14 -9 20 45 15 129 -5 84 -8 95
-18 70z"/>
<path d="M2296 4617 c-8 -32 2 -79 15 -71 11 6 11 51 0 79 -7 17 -8 17 -15 -8z"/>
<path d="M2375 4618 c-3 -13 -2 -41 4 -63 6 -29 9 -33 10 -15 1 14 8 38 16 54
20 38 19 46 -5 46 -12 0 -22 -9 -25 -22z"/>
<path d="M1816 4592 c-3 -5 -5 -26 -4 -48 1 -21 -2 -69 -6 -105 -5 -42 -4 -69
3 -73 18 -12 25 19 27 121 2 92 -5 129 -20 105z"/>
<path d="M1650 4436 c0 -92 4 -157 10 -161 7 -4 10 48 10 149 0 92 -4 157 -10
161 -7 4 -10 -48 -10 -149z"/>
<path d="M2427 4584 c-11 -11 -8 -54 3 -54 5 0 10 -15 10 -32 0 -56 12 -128
21 -128 8 0 15 105 10 140 -2 8 -4 28 -4 45 -2 29 -24 45 -40 29z"/>
<path d="M1380 4504 c0 -3 14 -19 30 -37 22 -23 29 -26 24 -12 -10 29 -54 69
-54 49z"/>
<path d="M1589 4505 c-7 -7 -2 -185 5 -192 3 -4 6 39 6 95 0 99 -1 108 -11 97z"/>
<path d="M7252 4413 c-12 -58 -6 -110 13 -115 13 -4 19 152 7 164 -6 6 -14
-14 -20 -49z"/>
<path d="M6507 4434 c-11 -11 -8 -54 3 -54 6 0 13 6 16 14 7 17 -9 50 -19 40z"/>
<path d="M2380 4391 c0 -11 4 -21 9 -21 18 0 21 18 6 30 -13 10 -15 9 -15 -9z"/>
<path d="M6881 4365 c-6 -19 -11 -76 -11 -132 1 -77 -3 -110 -19 -155 -12 -32
-21 -69 -21 -84 0 -46 24 -20 48 52 18 56 23 95 25 207 1 76 0 140 -4 142 -3
2 -11 -11 -18 -30z"/>
<path d="M1810 4325 c0 -8 5 -15 10 -15 6 0 10 7 10 15 0 8 -4 15 -10 15 -5 0
-10 -7 -10 -15z"/>
<path d="M2375 4330 c-9 -15 5 -94 19 -102 6 -4 9 -32 8 -73 -3 -52 0 -66 12
-71 9 -3 16 -12 16 -19 0 -8 5 -17 12 -21 8 -5 9 0 4 17 -5 13 -12 60 -17 103
-5 44 -13 84 -19 90 -5 5 -10 25 -10 42 0 34 -14 52 -25 34z"/>
<path d="M2435 4329 c-4 -6 -5 -13 -2 -16 7 -7 27 6 27 18 0 12 -17 12 -25 -2z"/>
<path d="M6470 4280 c0 -22 5 -40 10 -40 6 0 10 18 10 40 0 22 -4 40 -10 40
-5 0 -10 -18 -10 -40z"/>
<path d="M2117 4263 c-7 -43 2 -123 14 -123 12 0 12 147 0 154 -5 3 -11 -11
-14 -31z"/>
<path d="M2477 4223 c-9 -8 -9 -46 -1 -67 12 -31 24 -16 24 29 0 42 -7 54 -23
38z"/>
<path d="M7527 4223 c-10 -9 -7 -104 3 -128 6 -14 9 5 9 58 1 77 0 83 -12 70z"/>
<path d="M1850 4169 c0 -24 4 -38 10 -34 6 3 10 22 10 41 0 19 -4 34 -10 34
-5 0 -10 -18 -10 -41z"/>
<path d="M2697 4204 c-3 -6 -4 -30 -2 -54 2 -25 4 -53 4 -63 1 -10 6 -15 11
-12 11 7 11 88 0 119 -4 11 -9 15 -13 10z"/>
<path d="M1380 4124 c0 -34 4 -53 10 -49 6 3 10 28 10 56 0 27 -4 49 -10 49
-5 0 -10 -25 -10 -56z"/>
<path d="M6437 4088 c-4 -52 -3 -86 4 -93 14 -14 31 14 24 40 -2 11 -5 46 -5
78 0 86 -16 69 -23 -25z"/>
<path d="M7380 4053 c0 -77 3 -114 10 -107 12 12 20 134 13 187 -11 75 -23 34
-23 -80z"/>
<path d="M7257 4121 c-6 -26 3 -72 14 -65 12 7 12 71 0 78 -5 3 -11 -3 -14
-13z"/>
<path d="M2511 4008 c0 -18 4 -42 9 -53 6 -15 9 -6 9 33 1 28 -3 52 -9 52 -5
0 -10 -15 -9 -32z"/>
<path d="M7495 3973 c-3 -38 -10 -76 -15 -85 -15 -27 -25 -148 -12 -148 6 0
14 17 17 38 3 20 13 62 21 93 16 62 19 169 5 169 -5 0 -12 -30 -16 -67z"/>
<path d="M1680 3995 c0 -19 5 -35 10 -35 6 0 10 16 10 35 0 19 -4 35 -10 35
-5 0 -10 -16 -10 -35z"/>
<path d="M2727 3998 c8 -46 13 -48 13 -5 0 21 -4 37 -10 37 -5 0 -7 -14 -3
-32z"/>
<path d="M1610 3999 c0 -11 5 -17 10 -14 6 3 10 13 10 21 0 8 -4 14 -10 14 -5
0 -10 -9 -10 -21z"/>
<path d="M7224 4005 c-4 -8 -3 -27 1 -42 5 -21 8 -24 16 -12 12 19 11 69 -1
69 -6 0 -13 -7 -16 -15z"/>
<path d="M2436 4003 c-3 -3 -6 -24 -6 -45 0 -27 4 -38 15 -38 11 0 15 11 15
39 0 38 -10 57 -24 44z"/>
<path d="M2154 3979 c-3 -6 -1 -16 5 -22 8 -8 11 -5 11 11 0 24 -5 28 -16 11z"/>
<path d="M6397 3941 c-10 -21 -15 -45 -11 -54 3 -10 -2 -20 -15 -26 -18 -10
-19 -15 -9 -36 10 -22 8 -28 -10 -45 -26 -24 -29 -25 -35 -2 -3 10 -5 6 -6
-11 -1 -17 3 -26 9 -22 6 3 10 -1 10 -9 0 -8 -4 -18 -10 -21 -5 -3 -10 -15
-10 -26 0 -10 -4 -19 -10 -19 -5 0 -10 7 -10 15 0 8 -4 15 -10 15 -13 0 -13
-37 0 -45 12 -8 2 -54 -16 -76 -8 -8 -14 -21 -14 -27 0 -7 -4 -12 -10 -12 -5
0 -9 8 -7 18 1 9 -2 18 -8 19 -6 1 -9 -19 -7 -51 2 -41 -1 -55 -13 -59 -8 -4
-15 -14 -15 -22 0 -9 -13 -28 -30 -42 -16 -13 -30 -32 -30 -40 0 -13 -3 -13
-15 -3 -16 13 -18 9 -15 -32 2 -33 -30 -83 -102 -159 -10 -11 -18 -24 -18 -29
0 -6 -7 -13 -15 -16 -8 -4 -15 -15 -15 -26 0 -13 -5 -18 -14 -15 -16 6 -59
-45 -68 -80 -11 -43 39 -15 83 47 17 25 39 52 49 60 26 22 160 205 160 218 0
6 6 15 13 19 13 8 22 23 63 103 10 19 26 46 36 59 10 13 18 34 18 46 0 13 7
25 15 29 8 3 15 14 15 25 0 11 5 23 10 26 6 3 10 19 10 34 0 16 7 34 15 41 8
7 15 18 15 24 0 6 7 25 16 41 9 17 16 45 15 63 -1 20 3 32 11 32 9 0 14 18 15
55 2 30 -1 55 -5 55 -5 0 -16 -17 -25 -39z"/>
<path d="M1486 3952 c-8 -26 2 -48 15 -35 6 6 6 19 1 34 l-9 24 -7 -23z"/>
<path d="M7077 3913 c-3 -16 -1 -32 4 -37 5 -6 9 4 9 27 0 44 -6 48 -13 10z"/>
<path d="M7357 3933 c-11 -10 -8 -133 3 -133 6 0 10 30 10 70 0 70 -1 76 -13
63z"/>
<path d="M2466 3903 c-11 -11 -6 -42 8 -50 8 -4 16 -26 18 -48 2 -22 7 -38 13
-35 12 6 8 71 -6 85 -5 5 -9 17 -9 26 0 20 -14 32 -24 22z"/>
<path d="M1717 3844 c-14 -14 -8 -64 8 -64 16 0 18 23 6 53 -3 10 -10 15 -14
11z"/>
<path d="M7194 3826 c-8 -21 -1 -49 14 -54 8 -2 12 8 12 32 0 36 -16 49 -26
22z"/>
<path d="M2214 3769 c-3 -6 -1 -16 5 -22 8 -8 11 -5 11 11 0 24 -5 28 -16 11z"/>
<path d="M7320 3731 c0 -22 -7 -46 -15 -55 -17 -16 -21 -101 -5 -91 6 3 10 16
10 28 0 12 7 35 15 51 17 32 20 106 5 106 -5 0 -10 -18 -10 -39z"/>
<path d="M1744 3739 c-3 -6 -1 -16 5 -22 8 -8 11 -5 11 11 0 24 -5 28 -16 11z"/>
<path d="M1670 3720 c0 -11 5 -20 10 -20 6 0 10 9 10 20 0 11 -4 20 -10 20 -5
0 -10 -9 -10 -20z"/>
<path d="M6750 3705 c0 -14 5 -25 10 -25 6 0 10 11 10 25 0 14 -4 25 -10 25
-5 0 -10 -11 -10 -25z"/>
<path d="M7436 3708 c-9 -34 -7 -88 3 -88 11 0 21 36 21 78 0 37 -15 43 -24
10z"/>
<path d="M7168 3687 c-5 -27 0 -47 13 -47 12 0 12 57 0 64 -5 3 -11 -4 -13
-17z"/>
<path d="M7020 3640 c0 -19 3 -21 12 -12 9 9 9 15 0 24 -9 9 -12 7 -12 -12z"/>
<path d="M1550 3635 c0 -8 5 -15 10 -15 6 0 10 7 10 15 0 8 -4 15 -10 15 -5 0
-10 -7 -10 -15z"/>
<path d="M6728 3644 c-5 -4 -8 -16 -8 -28 0 -14 3 -17 11 -9 6 6 9 19 7 28 -1
9 -6 13 -10 9z"/>
<path d="M7139 3615 c-9 -8 3 -75 12 -69 11 7 12 74 1 74 -5 0 -11 -2 -13 -5z"/>
<path d="M7404 3586 c-7 -31 4 -55 17 -35 12 19 11 59 -1 59 -5 0 -12 -11 -16
-24z"/>
<path d="M7070 3570 c0 -11 5 -20 10 -20 6 0 10 9 10 20 0 11 -4 20 -10 20 -5
0 -10 -9 -10 -20z"/>
<path d="M7260 3525 c0 -19 5 -35 10 -35 6 0 10 16 10 35 0 19 -4 35 -10 35
-5 0 -10 -16 -10 -35z"/>
<path d="M1762 3521 c4 -13 18 -16 19 -4 0 4 -5 9 -11 12 -7 2 -11 -2 -8 -8z"/>
<path d="M7105 3520 c-3 -6 -3 -20 1 -32 6 -21 7 -21 20 -3 8 10 14 25 14 32
0 15 -26 18 -35 3z"/>
<path d="M6180 3499 c0 -11 5 -17 10 -14 6 3 10 13 10 21 0 8 -4 14 -10 14 -5
0 -10 -9 -10 -21z"/>
<path d="M7374 3497 c-3 -9 -3 -25 1 -34 6 -16 8 -16 18 5 7 16 7 26 -1 34 -8
8 -13 7 -18 -5z"/>
<path d="M6668 3494 c-5 -4 -8 -19 -8 -33 1 -23 2 -24 11 -8 11 19 9 53 -3 41z"/>
<path d="M6955 3491 c-6 -11 9 -23 19 -14 9 9 7 23 -3 23 -6 0 -12 -4 -16 -9z"/>
<path d="M1797 3463 c-3 -5 -2 -15 2 -22 7 -10 10 -10 16 -1 4 6 3 16 -3 22
-5 5 -12 6 -15 1z"/>
<path d="M7238 3444 c-5 -4 -8 -15 -8 -25 0 -9 -7 -19 -15 -23 -10 -3 -15 -19
-15 -47 0 -54 19 -47 37 15 14 48 14 94 1 80z"/>
<path d="M6638 3434 c-5 -4 -8 -14 -8 -22 0 -9 -7 -23 -16 -33 -9 -10 -14 -26
-12 -36 3 -13 10 -7 27 25 20 40 26 84 9 66z"/>
<path d="M7010 3425 c0 -8 5 -15 10 -15 6 0 10 7 10 15 0 8 -4 15 -10 15 -5 0
-10 -7 -10 -15z"/>
<path d="M7080 3409 c0 -17 4 -28 10 -24 6 3 10 17 10 31 0 13 -4 24 -10 24
-5 0 -10 -14 -10 -31z"/>
<path d="M6900 3348 c0 -19 2 -20 10 -8 13 19 13 30 0 30 -5 0 -10 -10 -10
-22z"/>
<path d="M6985 3357 c-4 -10 -5 -21 -1 -24 10 -10 18 4 13 24 -4 17 -4 17 -12
0z"/>
<path d="M7050 3344 c0 -14 4 -23 10 -19 6 3 10 15 10 26 0 10 -4 19 -10 19
-5 0 -10 -12 -10 -26z"/>
<path d="M7017 3291 c-8 -30 9 -48 22 -23 15 28 14 42 -3 42 -7 0 -16 -9 -19
-19z"/>
<path d="M6865 3287 c-4 -10 -5 -21 -1 -24 10 -10 18 4 13 24 -4 17 -4 17 -12
0z"/>
<path d="M7170 3285 c0 -13 -44 -110 -71 -155 -23 -39 -49 -95 -49 -104 0 -16
38 -38 45 -26 3 6 1 10 -4 10 -6 0 -11 9 -11 20 0 11 4 20 9 20 5 0 13 10 16
23 11 36 37 91 52 105 7 7 13 22 13 31 0 10 7 24 15 31 8 7 15 23 15 36 0 15
-6 24 -15 24 -8 0 -15 -7 -15 -15z"/>
<path d="M6835 3229 c-4 -11 -4 -23 -2 -26 9 -8 27 7 27 22 0 23 -18 27 -25 4z"/>
<path d="M6986 3224 c-7 -19 2 -37 15 -29 12 8 12 45 0 45 -5 0 -12 -7 -15
-16z"/>
<path d="M6960 3155 c0 -8 5 -15 10 -15 6 0 10 7 10 15 0 8 -4 15 -10 15 -5 0
-10 -7 -10 -15z"/>
<path d="M6930 3100 c0 -11 5 -20 10 -20 6 0 10 9 10 20 0 11 -4 20 -10 20 -5
0 -10 -9 -10 -20z"/>
<path d="M6900 3040 c0 -11 5 -20 10 -20 6 0 10 9 10 20 0 11 -4 20 -10 20 -5
0 -10 -9 -10 -20z"/>
<path d="M6807 3034 c-4 -4 -7 -14 -7 -23 0 -11 3 -12 11 -4 6 6 10 16 7 23
-2 6 -7 8 -11 4z"/>
<path d="M7020 2991 c0 -10 -6 -24 -14 -30 -8 -7 -17 -23 -20 -36 -4 -14 -11
-25 -16 -25 -6 0 -10 -7 -10 -15 0 -9 -6 -18 -14 -21 -8 -3 -16 -17 -19 -32
-6 -24 -25 -53 -71 -104 -9 -10 -16 -22 -16 -28 0 -10 -8 -21 -62 -82 -18 -20
-40 -46 -48 -58 -29 -43 -105 -135 -122 -148 -9 -6 -40 -38 -70 -69 -29 -31
-66 -69 -82 -83 -16 -14 -51 -46 -77 -72 -27 -27 -55 -48 -64 -48 -8 0 -15 -7
-15 -15 0 -8 -4 -15 -10 -15 -5 0 -31 -20 -57 -45 -26 -24 -54 -45 -60 -45
-16 0 -17 -12 -1 -28 18 -18 26 -15 30 11 2 15 10 22 24 22 12 0 33 15 49 33
18 22 33 31 45 27 13 -4 19 1 24 18 3 14 15 27 26 30 11 3 20 11 20 19 0 7 16
24 36 38 20 13 41 33 46 45 6 11 37 43 68 70 32 28 59 53 59 58 1 4 20 27 44
51 23 24 56 60 72 80 17 20 51 58 78 86 26 27 47 56 47 65 0 8 18 34 40 56 22
23 40 50 40 60 0 11 9 27 20 36 11 10 20 26 20 36 0 14 5 17 19 12 21 -6 38
10 21 20 -19 12 -10 26 12 19 20 -6 21 -5 10 9 -15 18 -7 63 14 71 19 7 18 46
-1 46 -8 0 -15 -8 -15 -19z"/>
<path d="M5797 2950 c-16 -20 -23 -40 -12 -40 15 0 55 34 55 46 0 20 -23 17
-43 -6z"/>
<path d="M6840 2939 c0 -11 5 -17 10 -14 6 3 10 13 10 21 0 8 -4 14 -10 14 -5
0 -10 -9 -10 -21z"/>
<path d="M5744 2895 c-4 -8 -12 -15 -20 -15 -8 0 -14 -7 -14 -15 0 -8 5 -15
10 -15 13 0 50 37 50 50 0 16 -20 12 -26 -5z"/>
<path d="M6810 2890 c0 -19 3 -21 12 -12 9 9 9 15 0 24 -9 9 -12 7 -12 -12z"/>
<path d="M5540 2850 c0 -5 -11 -12 -25 -16 -14 -3 -25 -10 -25 -15 0 -5 -9 -9
-20 -9 -11 0 -23 -7 -26 -15 -4 -8 -15 -15 -25 -15 -20 0 -122 -70 -114 -79 5
-4 42 11 75 30 8 5 25 13 38 19 12 5 22 14 22 20 0 5 9 10 20 10 11 0 23 7 26
15 4 8 11 15 18 15 6 1 25 12 41 25 23 19 26 25 13 25 -10 0 -18 -4 -18 -10z"/>
<path d="M6757 2824 c-4 -4 -7 -14 -7 -23 0 -11 3 -12 11 -4 6 6 10 16 7 23
-2 6 -7 8 -11 4z"/>
<path d="M6413 2780 c-26 -20 -30 -40 -9 -40 18 0 38 26 34 44 -2 12 -7 11
-25 -4z"/>
<path d="M6720 2765 c0 -8 5 -15 10 -15 6 0 10 7 10 15 0 8 -4 15 -10 15 -5 0
-10 -7 -10 -15z"/>
<path d="M6287 2634 c-11 -14 -17 -28 -14 -30 8 -8 47 29 47 43 0 20 -13 15
-33 -13z"/>
<path d="M6630 2645 c0 -8 5 -15 10 -15 6 0 10 7 10 15 0 8 -4 15 -10 15 -5 0
-10 -7 -10 -15z"/>
<path d="M6600 2605 c0 -8 -7 -15 -15 -15 -8 0 -15 -4 -15 -10 0 -11 -20 -35
-62 -77 -16 -14 -28 -33 -28 -41 0 -16 62 45 110 108 31 40 35 50 21 50 -6 0
-11 -7 -11 -15z"/>
<path d="M6135 2490 c-3 -5 1 -10 9 -10 8 0 18 5 21 10 3 6 -1 10 -9 10 -8 0
-18 -4 -21 -10z"/>
<path d="M6389 2380 c-34 -33 -64 -60 -68 -60 -11 0 -53 -50 -42 -50 18 0 101
63 101 77 0 7 5 13 10 13 11 0 50 36 50 46 0 4 8 13 18 20 9 8 12 14 5 14 -7
0 -40 -27 -74 -60z"/>
<path d="M5513 2403 c-31 -16 -49 -40 -38 -51 10 -10 95 37 95 53 0 19 -16 18
-57 -2z"/>
<path d="M6025 2399 c-4 -6 -5 -13 -2 -16 7 -7 27 6 27 18 0 12 -17 12 -25 -2z"/>
<path d="M6100 2230 c0 -5 7 -10 15 -10 8 0 15 5 15 10 0 6 -7 10 -15 10 -8 0
-15 -4 -15 -10z"/>
<path d="M6210 2215 c0 -9 6 -12 15 -9 8 4 15 10 15 15 0 5 -7 9 -15 9 -8 0
-15 -7 -15 -15z"/>
<path d="M6166 2185 c-3 -8 -12 -15 -21 -15 -8 0 -15 -4 -15 -10 0 -16 30 -12
36 5 4 8 12 15 20 15 8 0 14 5 14 10 0 16 -27 12 -34 -5z"/>
<path d="M4945 2170 c-8 -13 20 -24 42 -16 15 6 15 8 3 16 -20 13 -37 12 -45
0z"/>
<path d="M5987 2153 c-12 -11 -8 -23 8 -23 8 0 15 7 15 15 0 16 -12 20 -23 8z"/>
<path d="M4835 2141 c-19 -8 -18 -9 6 -16 34 -8 74 -3 74 10 0 13 -54 17 -80
6z"/>
<path d="M5935 2119 c-4 -6 -5 -13 -2 -16 7 -7 27 6 27 18 0 12 -17 12 -25 -2z"/>
<path d="M4648 2103 c12 -2 32 -2 45 0 12 2 2 4 -23 4 -25 0 -35 -2 -22 -4z"/>
<path d="M5748 1988 c9 -9 15 -9 24 0 9 9 7 12 -12 12 -19 0 -21 -3 -12 -12z"/>
<path d="M6105 1979 c-5 -5 -19 -16 -30 -24 -20 -14 -19 -14 4 -15 13 0 30 8
37 18 13 16 15 16 30 -3 15 -18 16 -18 10 -2 -3 10 -6 23 -6 28 0 12 -32 11
-45 -2z"/>
<path d="M5680 1960 c0 -5 6 -10 14 -10 8 0 18 5 21 10 3 6 -3 10 -14 10 -12
0 -21 -4 -21 -10z"/>
<path d="M5631 1946 c-8 -10 -9 -16 -1 -21 13 -8 30 3 30 21 0 18 -14 18 -29
0z"/>
<path d="M5820 1944 c0 -17 22 -14 28 4 2 7 -3 12 -12 12 -9 0 -16 -7 -16 -16z"/>
<path d="M5265 1780 c3 -5 13 -10 21 -10 8 0 14 5 14 10 0 6 -9 10 -21 10 -11
0 -17 -4 -14 -10z"/>
<path d="M5129 1754 c-7 -8 -21 -13 -31 -11 -19 5 -77 -7 -113 -23 -11 -5 -47
-11 -80 -14 -81 -7 -98 -10 -110 -18 -6 -3 -43 -10 -83 -13 -39 -4 -72 -12
-72 -16 0 -15 133 -10 160 6 15 9 54 14 98 15 55 0 74 4 78 15 5 11 23 15 75
15 55 0 69 3 69 15 0 9 9 15 24 15 31 0 56 10 56 21 0 15 -57 10 -71 -7z"/>
<path d="M5154 1675 c-4 -8 -18 -15 -34 -15 -42 0 -65 -10 -48 -21 23 -15 78
-11 78 6 0 9 9 15 23 15 12 0 33 3 45 7 18 4 20 8 10 14 -22 14 -68 10 -74 -6z"/>
<path d="M4915 1620 c-3 -5 -4 -14 -1 -18 3 -4 -49 -6 -115 -4 -81 3 -124 1
-132 -7 -8 -8 -1 -11 29 -13 137 -5 140 -6 126 -20 -19 -19 -14 -30 11 -26 15
2 21 9 19 21 -2 10 3 17 13 17 8 0 15 -5 15 -10 0 -12 112 -4 145 10 11 5 33
11 49 15 16 3 25 10 20 14 -30 27 -166 43 -179 21z"/>
<path d="M2515 7269 c-4 -6 -5 -13 -2 -16 7 -7 27 6 27 18 0 12 -17 12 -25 -2z"/>
<path d="M2460 7230 c0 -5 -7 -10 -15 -10 -8 0 -15 -7 -15 -15 0 -19 0 -19 40
10 30 22 31 25 12 25 -12 0 -22 -4 -22 -10z"/>
<path d="M2348 7152 c-43 -44 -47 -52 -18 -45 11 3 20 9 20 14 0 5 16 17 35
26 19 9 35 23 35 30 0 25 -35 13 -72 -25z"/>
<path d="M2235 7057 c-22 -24 -56 -53 -75 -65 -19 -11 -52 -39 -74 -62 -21
-22 -43 -40 -47 -40 -5 0 -9 -6 -9 -12 -1 -7 -14 -24 -30 -38 -30 -24 -38 -40
-21 -40 11 0 111 101 111 112 0 5 6 8 13 8 6 1 32 21 57 45 25 25 50 45 55 45
6 0 23 14 39 30 16 17 33 30 38 30 4 0 8 7 8 15 0 27 -25 16 -65 -28z"/>
<path d="M1935 6770 c-10 -11 -13 -20 -8 -20 13 0 38 29 31 35 -3 3 -13 -4
-23 -15z"/>
<path d="M1845 6683 c-27 -30 -61 -71 -74 -89 -13 -19 -28 -34 -33 -34 -4 0
-8 -5 -8 -11 0 -6 -21 -37 -46 -70 -28 -36 -43 -66 -40 -75 7 -18 26 -9 26 12
0 8 4 14 8 14 10 0 82 96 82 109 0 6 6 14 13 18 7 4 37 37 67 73 30 35 61 71
68 78 6 7 12 18 12 23 0 22 -29 4 -75 -48z"/>
<path d="M1592 6352 c-30 -36 -71 -104 -72 -119 0 -20 21 -15 27 6 3 11 11 22
19 25 8 3 14 11 14 18 0 8 14 28 30 46 17 18 30 37 30 43 0 17 -25 7 -48 -19z"/>
<path d="M1497 6203 c-4 -3 -7 -15 -7 -25 0 -10 -4 -18 -10 -18 -5 0 -12 -11
-16 -25 -3 -13 -12 -29 -20 -36 -16 -13 -19 -39 -5 -39 5 0 13 10 17 22 3 12
13 28 20 36 8 7 14 19 14 27 0 7 7 15 15 19 8 3 15 15 15 26 0 20 -11 26 -23
13z"/>
<path d="M1344 5915 c-7 -17 4 -37 17 -30 12 8 12 45 -1 45 -6 0 -13 -7 -16
-15z"/>
<path d="M1200 5538 c0 -19 2 -20 10 -8 13 19 13 30 0 30 -5 0 -10 -10 -10
-22z"/>
<path d="M1165 5440 c-8 -13 4 -32 16 -25 12 8 12 35 0 35 -6 0 -13 -4 -16
-10z"/>
<path d="M1080 5026 c0 -14 5 -26 10 -26 6 0 10 9 10 19 0 11 -4 23 -10 26 -6
4 -10 -5 -10 -19z"/>
<path d="M1046 4840 c-6 -30 -11 -80 -12 -110 -1 -30 -5 -74 -9 -97 -5 -29 -3
-43 4 -43 6 0 11 16 11 36 0 19 5 44 10 55 6 10 9 62 8 117 -3 96 -3 97 -12
42z"/>
</g>
</svg>
