<?xml version="1.0" standalone="no"?>
<!DOCTYPE svg PUBLIC "-//W3C//DTD SVG 20010904//EN"
 "http://www.w3.org/TR/2001/REC-SVG-20010904/DTD/svg10.dtd">
<svg version="1.0" xmlns="http://www.w3.org/2000/svg"
 width="512.000000pt" height="512.000000pt" viewBox="0 0 512.000000 512.000000"
 preserveAspectRatio="xMidYMid meet">

<g transform="translate(0.000000,512.000000) scale(0.100000,-0.100000)"
fill="#000000" stroke="none">
<path d="M175 4534 c-58 -20 -106 -64 -140 -125 -39 -71 -42 -170 -7 -239 12
-25 251 -333 532 -685 l510 -639 2 -1087 c3 -1086 3 -1088 24 -1116 51 -69
136 -93 207 -57 89 46 625 359 645 378 54 49 52 5 52 975 l0 899 516 649 c284
356 525 667 536 690 22 50 25 132 7 192 -17 57 -82 129 -144 157 l-50 24
-1325 -1 c-1124 0 -1331 -3 -1365 -15z m2515 -310 c0 -3 -35 -50 -77 -105
l-78 -98 -996 -1 -996 0 -69 87 c-38 48 -75 95 -82 105 -13 17 27 18 1142 18
636 0 1156 -3 1156 -6z m-426 -536 c-4 -7 -127 -164 -274 -348 -147 -184 -275
-348 -286 -365 -18 -28 -19 -61 -22 -916 l-3 -887 -139 -81 c-76 -45 -141 -81
-144 -81 -4 0 -6 432 -6 959 0 629 -4 969 -10 987 -6 14 -131 178 -278 362
-147 185 -275 346 -285 359 l-18 23 736 0 c586 0 735 -3 729 -12z"/>
<path d="M3893 4105 c-35 -8 -87 -26 -115 -42 -70 -37 -159 -126 -192 -191
l-26 -52 -193 0 c-105 0 -208 -5 -227 -10 -20 -5 -51 -26 -70 -45 -30 -31 -35
-43 -38 -98 -3 -52 0 -67 20 -96 45 -66 68 -71 299 -71 l207 0 27 -53 c52
-104 158 -192 274 -227 206 -64 438 32 536 222 l30 58 291 0 c285 0 292 0 324
23 50 33 72 70 77 124 5 65 -26 120 -87 151 -43 21 -54 22 -325 22 l-280 0
-25 47 c-63 119 -198 219 -329 243 -68 13 -101 12 -178 -5z m175 -331 c84 -54
79 -189 -9 -236 -101 -54 -223 31 -204 143 8 45 59 104 97 112 34 7 90 -2 116
-19z"/>
<path d="M2978 2950 c-116 -29 -237 -126 -293 -233 l-30 -57 -113 0 c-127 0
-155 -9 -195 -62 -50 -66 -43 -149 16 -206 43 -42 81 -52 199 -52 l98 0 26
-52 c60 -118 198 -215 337 -238 182 -29 380 68 466 229 l32 61 742 2 742 3 38
24 c51 31 81 91 74 149 -5 50 -29 87 -77 120 l-33 22 -741 0 -741 0 -30 58
c-43 83 -120 156 -211 199 -68 33 -86 36 -172 39 -54 2 -114 -1 -134 -6z m187
-330 c36 -22 65 -73 65 -114 0 -92 -89 -159 -177 -134 -69 19 -116 96 -98 165
3 15 23 44 44 65 34 33 44 38 86 38 30 0 60 -7 80 -20z"/>
<path d="M4260 1799 c-120 -23 -261 -131 -311 -236 l-24 -52 -740 -1 c-708 0
-742 -1 -782 -20 -106 -48 -120 -195 -25 -268 l35 -27 753 -3 752 -2 32 -56
c105 -187 315 -281 513 -229 128 33 246 125 297 232 l24 51 117 4 c127 3 148
11 193 72 32 43 29 132 -6 178 -42 55 -80 68 -200 68 l-105 0 -24 52 c-29 64
-116 153 -185 190 -93 50 -209 67 -314 47z m143 -323 c53 -22 87 -70 87 -123
0 -145 -191 -197 -256 -71 -36 69 -11 154 56 189 41 23 69 24 113 5z"/>
</g>
</svg>
