<?xml version="1.0" standalone="no"?>
<!DOCTYPE svg PUBLIC "-//W3C//DTD SVG 20010904//EN"
 "http://www.w3.org/TR/2001/REC-SVG-20010904/DTD/svg10.dtd">
<svg version="1.0" xmlns="http://www.w3.org/2000/svg"
 width="538.000000pt" height="586.000000pt" viewBox="0 0 538.000000 586.000000"
 preserveAspectRatio="xMidYMid meet">

<g transform="translate(0.000000,586.000000) scale(0.100000,-0.100000)"
fill="#FFFFFF" stroke="none">
<path d="M2467 5117 c-12 -5 -41 -7 -65 -4 -23 3 -45 1 -48 -4 -3 -5 -22 -9
-42 -9 -55 0 -105 -6 -124 -14 -9 -4 -21 -5 -27 -2 -5 4 -13 1 -16 -4 -4 -6
-17 -10 -28 -9 -12 1 -30 -1 -39 -5 -9 -4 -21 -5 -27 -2 -5 4 -13 1 -16 -5 -4
-5 -13 -8 -21 -5 -7 3 -16 0 -20 -5 -3 -6 -15 -9 -25 -6 -11 3 -19 1 -19 -5 0
-5 -8 -8 -17 -7 -10 1 -31 -3 -46 -10 -16 -6 -33 -9 -38 -5 -5 3 -9 0 -9 -6 0
-7 -7 -10 -15 -6 -8 3 -15 1 -15 -5 0 -6 -6 -9 -12 -7 -7 3 -24 -1 -37 -8 -14
-7 -28 -11 -33 -8 -4 3 -8 0 -8 -6 0 -7 -6 -10 -12 -8 -7 3 -19 -2 -27 -9 -7
-8 -19 -12 -27 -9 -7 3 -14 0 -16 -5 -2 -5 -13 -11 -26 -12 -12 0 -22 -5 -22
-10 0 -4 -4 -5 -10 -2 -5 3 -10 1 -10 -5 0 -6 -4 -8 -10 -5 -5 3 -10 1 -10 -5
0 -6 -4 -8 -10 -5 -5 3 -10 1 -10 -5 0 -6 -4 -8 -10 -5 -5 3 -10 1 -10 -5 0
-6 -4 -8 -10 -5 -5 3 -10 1 -10 -5 0 -6 -4 -8 -10 -5 -5 3 -10 1 -10 -6 0 -7
-3 -10 -6 -6 -3 3 -14 -3 -25 -14 -11 -11 -24 -17 -28 -14 -5 2 -12 -2 -15
-11 -3 -8 -10 -12 -16 -9 -5 3 -10 1 -10 -6 0 -7 -3 -10 -6 -6 -4 3 -15 -4
-26 -16 -11 -12 -16 -15 -13 -7 4 8 -4 2 -19 -15 -14 -16 -25 -26 -26 -21 0 6
-6 1 -14 -10 -8 -10 -18 -19 -23 -20 -4 0 -38 -31 -76 -68 -37 -37 -62 -65
-55 -61 7 4 0 -5 -15 -19 -15 -14 -24 -26 -20 -26 4 -1 -2 -9 -14 -19 -12 -10
-19 -21 -16 -25 3 -3 -2 -8 -11 -12 -9 -3 -13 -10 -10 -15 3 -5 -2 -12 -10
-15 -9 -3 -13 -10 -10 -15 3 -5 0 -9 -5 -9 -6 0 -10 -3 -9 -7 4 -11 -23 -73
-31 -73 -4 0 -8 -10 -8 -22 -1 -13 -7 -24 -12 -26 -5 -2 -7 -10 -4 -18 3 -8 0
-14 -6 -14 -6 0 -10 -3 -10 -7 1 -5 0 -12 -1 -18 -1 -5 -3 -14 -4 -20 -9 -54
-19 -102 -24 -109 -16 -27 -14 -357 3 -398 4 -9 4 -21 1 -27 -4 -5 -1 -13 4
-16 6 -4 10 -17 9 -28 -1 -12 2 -30 6 -40 4 -10 5 -21 1 -24 -3 -3 -1 -12 5
-19 6 -8 9 -20 6 -29 -4 -8 -2 -17 4 -21 6 -3 8 -12 5 -20 -3 -7 -1 -16 5 -20
6 -3 8 -12 5 -20 -3 -8 0 -14 5 -14 6 0 9 -9 6 -20 -3 -11 -1 -20 3 -20 8 0
26 -73 23 -97 0 -7 3 -13 9 -13 5 0 8 -6 7 -12 -1 -7 3 -26 10 -43 7 -16 14
-40 14 -52 1 -13 6 -23 11 -23 4 0 6 -7 2 -15 -3 -8 -1 -15 5 -15 6 0 9 -7 5
-15 -3 -8 -1 -15 5 -15 6 0 9 -7 5 -15 -3 -8 -1 -15 5 -15 6 0 9 -7 5 -15 -3
-8 -1 -15 5 -15 6 0 9 -7 5 -15 -3 -8 -1 -15 4 -15 8 0 26 -57 22 -72 -1 -5 3
-8 9 -8 6 0 9 -6 6 -14 -3 -8 -1 -16 4 -18 5 -2 11 -13 12 -26 0 -12 5 -22 10
-22 5 0 7 -6 4 -14 -3 -8 -1 -16 4 -18 5 -2 11 -13 12 -26 0 -12 5 -22 10 -22
5 0 7 -7 3 -15 -3 -8 -1 -15 5 -15 6 0 8 -4 5 -9 -4 -5 -2 -11 3 -13 5 -1 11
-12 13 -23 1 -11 9 -26 16 -34 7 -7 11 -20 8 -27 -3 -8 -1 -14 5 -14 6 0 8 -4
5 -9 -4 -5 -2 -11 3 -13 5 -1 11 -12 13 -23 1 -11 9 -26 16 -34 7 -7 11 -20 8
-27 -3 -8 -1 -14 5 -14 6 0 7 -4 4 -10 -3 -5 -2 -10 3 -10 10 0 35 -54 35 -76
0 -8 4 -14 9 -14 5 0 6 -4 3 -10 -3 -5 -1 -10 5 -10 6 0 8 -4 5 -10 -3 -5 -2
-10 3 -10 10 0 35 -54 35 -76 0 -8 4 -14 9 -14 5 0 6 -5 3 -10 -3 -6 -1 -10 5
-10 6 0 8 -4 5 -10 -3 -5 -1 -10 5 -10 6 0 8 -4 5 -10 -3 -5 -1 -10 5 -10 6 0
8 -4 5 -10 -3 -5 -1 -10 5 -10 6 0 8 -4 5 -10 -3 -5 -1 -10 5 -10 6 0 8 -4 5
-10 -3 -5 -1 -10 5 -10 6 0 8 -4 5 -10 -3 -5 -1 -10 5 -10 6 0 8 -4 5 -10 -3
-5 -1 -10 5 -10 6 0 8 -4 5 -10 -3 -5 -1 -10 5 -10 6 0 8 -4 5 -10 -3 -6 -1
-10 5 -10 6 0 8 -5 5 -10 -3 -5 -1 -10 5 -10 6 0 9 -4 6 -9 -4 -5 -3 -11 2
-13 13 -5 71 -115 65 -122 -4 -3 0 -6 7 -6 7 0 11 -3 7 -6 -3 -3 3 -15 13 -27
11 -11 17 -24 14 -29 -3 -4 0 -8 6 -8 6 0 8 -4 5 -10 -3 -5 -2 -10 2 -10 5 0
17 -13 26 -30 10 -16 15 -30 12 -30 -3 0 3 -10 15 -22 19 -20 24 -33 21 -50 0
-5 4 -8 10 -8 5 0 8 -4 5 -9 -3 -5 1 -12 10 -15 8 -3 13 -10 10 -15 -3 -5 1
-12 10 -15 9 -4 14 -9 11 -12 -3 -3 3 -14 14 -25 11 -11 17 -24 14 -28 -2 -5
2 -12 11 -15 8 -3 13 -10 10 -15 -3 -5 1 -12 10 -15 8 -3 12 -10 9 -16 -3 -5
-1 -10 5 -10 6 0 9 -4 6 -9 -3 -5 1 -12 10 -15 8 -3 13 -10 10 -15 -3 -5 1
-12 10 -15 8 -3 13 -10 10 -15 -3 -5 1 -12 10 -15 9 -4 14 -9 10 -13 -3 -3 3
-13 14 -20 11 -8 18 -18 15 -23 -3 -4 2 -11 11 -14 9 -4 14 -9 10 -13 -3 -3 3
-13 14 -20 11 -8 18 -18 15 -23 -3 -4 2 -11 11 -14 9 -4 14 -9 11 -12 -3 -4 4
-15 16 -25 12 -10 18 -18 13 -19 -4 0 2 -9 15 -20 13 -10 21 -19 16 -20 -4 0
7 -14 25 -31 18 -17 26 -28 18 -24 -8 4 -1 -4 15 -18 16 -14 30 -29 30 -34 0
-5 16 -24 35 -42 19 -18 28 -30 20 -26 -8 4 11 -16 42 -44 31 -29 73 -71 93
-94 20 -23 34 -35 30 -27 -3 8 10 -3 31 -25 20 -22 34 -33 30 -25 -4 8 2 4 13
-9 12 -13 21 -19 21 -15 1 5 9 0 18 -11 10 -11 24 -21 32 -23 8 -2 20 -10 26
-17 6 -8 14 -12 17 -8 4 3 7 1 7 -6 0 -7 4 -9 10 -6 5 3 10 1 10 -5 0 -6 5 -8
10 -5 6 3 10 2 10 -4 0 -6 7 -8 15 -5 8 4 15 2 15 -3 0 -10 16 -12 100 -12 84
0 100 2 100 12 0 5 7 7 15 3 8 -3 15 -1 15 5 0 6 5 7 10 4 6 -3 10 -1 10 5 0
6 5 8 10 5 6 -3 10 -1 10 6 0 7 3 9 7 6 3 -4 11 0 17 8 6 7 18 15 26 17 8 2
22 12 32 23 9 11 17 16 18 11 0 -4 9 2 21 15 11 13 17 17 13 9 -4 -8 10 3 30
25 21 22 34 33 31 25 -4 -8 10 4 30 27 20 23 62 65 93 94 31 28 50 48 42 44
-8 -4 1 8 20 26 19 18 35 37 35 42 0 5 14 20 30 34 17 14 23 22 15 18 -8 -4 0
7 18 24 18 17 29 31 25 31 -5 1 3 10 16 20 13 11 19 20 15 20 -5 1 1 9 13 19
12 10 19 21 16 25 -3 3 2 8 11 12 9 3 14 10 11 14 -3 5 4 15 15 23 11 7 17 17
14 20 -4 4 1 9 10 13 9 3 14 10 11 14 -3 5 4 15 15 23 11 7 17 17 14 20 -4 4
1 9 10 13 9 3 13 10 10 15 -3 5 2 12 10 15 9 3 13 10 10 15 -3 5 2 12 10 15 9
3 13 10 10 15 -3 5 0 9 6 9 6 0 8 5 5 10 -3 6 1 13 9 16 9 3 13 10 10 15 -3 5
2 12 10 15 9 3 13 10 11 15 -3 4 3 17 14 28 11 11 17 22 14 25 -3 3 2 8 11 12
9 3 13 10 10 15 -3 5 2 12 10 15 9 3 13 10 10 15 -3 5 0 9 5 9 6 0 10 3 10 8
-3 17 2 30 21 50 12 12 18 22 15 22 -3 0 2 14 12 30 9 17 21 30 26 30 4 0 5 5
2 10 -3 6 -1 10 5 10 6 0 9 4 6 8 -3 5 3 18 14 29 10 12 16 24 13 27 -4 3 0 6
7 6 7 0 11 3 7 6 -6 7 52 117 65 122 5 2 6 8 2 13 -3 5 0 9 6 9 6 0 8 5 5 10
-3 6 -1 10 5 10 6 0 8 5 5 10 -3 6 -1 10 5 10 6 0 8 5 5 10 -3 6 -1 10 5 10 6
0 8 5 5 10 -3 6 -1 10 5 10 6 0 8 5 5 10 -3 6 -1 10 5 10 6 0 8 5 5 10 -3 6
-1 10 5 10 6 0 8 5 5 10 -3 6 -1 10 5 10 6 0 8 5 5 10 -3 6 -1 10 5 10 6 0 8
5 5 10 -3 6 -1 10 5 10 6 0 8 5 5 10 -3 6 -1 10 5 10 6 0 8 5 5 10 -3 6 -2 10
3 10 5 0 9 6 9 14 0 22 25 76 35 76 5 0 6 5 3 10 -3 6 -1 10 5 10 6 0 8 5 5
10 -3 6 -2 10 3 10 5 0 9 6 9 14 0 22 25 76 35 76 5 0 6 5 3 10 -3 6 -2 10 4
10 6 0 8 6 5 14 -3 7 1 20 8 27 7 8 15 23 16 34 2 11 8 22 13 23 5 2 7 8 3 13
-3 5 -1 9 5 9 6 0 8 6 5 14 -3 7 1 20 8 27 7 8 15 23 16 34 2 11 8 22 13 23 5
2 7 8 3 13 -3 5 -1 9 5 9 6 0 8 7 5 15 -4 8 -2 15 3 15 5 0 10 10 10 22 1 13
7 24 12 26 5 2 7 10 4 18 -3 8 -1 14 4 14 5 0 10 10 10 22 1 13 7 24 12 26 5
2 7 10 4 18 -3 8 0 14 6 14 6 0 10 3 9 8 -4 15 14 72 22 72 5 0 7 7 4 15 -4 8
-1 15 5 15 6 0 8 7 5 15 -4 8 -1 15 5 15 6 0 8 7 5 15 -4 8 -1 15 5 15 6 0 8
7 5 15 -4 8 -1 15 5 15 6 0 8 7 5 15 -4 8 -2 15 2 15 5 0 10 10 11 23 0 12 7
36 14 52 7 17 11 36 10 43 -1 6 2 12 7 12 6 0 9 6 9 13 -3 24 15 97 23 97 4 0
6 9 3 20 -3 11 0 20 6 20 5 0 8 6 5 14 -3 8 -1 17 5 20 6 4 8 13 5 20 -3 8 -1
17 5 20 6 4 8 13 4 21 -3 9 0 21 6 29 6 7 8 16 5 19 -4 3 -3 14 1 24 4 10 7
28 6 40 -1 11 2 24 8 27 6 4 8 13 5 21 -3 8 -2 19 2 26 16 26 18 368 2 395 -5
7 -15 55 -24 109 -1 6 -3 15 -4 20 -1 6 -2 13 -1 18 0 4 -4 7 -10 7 -6 0 -9 6
-6 14 3 8 1 16 -4 18 -5 2 -11 13 -12 26 0 12 -4 22 -8 22 -8 0 -35 62 -31 73
1 4 -3 7 -9 7 -5 0 -8 4 -5 9 3 5 -1 12 -10 15 -8 3 -13 10 -10 15 3 5 -1 12
-10 15 -9 4 -14 9 -11 12 3 4 -4 15 -16 25 -12 10 -18 18 -14 19 4 0 -5 12
-20 26 -15 14 -22 23 -15 19 7 -4 -18 24 -55 61 -38 37 -72 68 -76 68 -5 1
-15 10 -23 20 -8 11 -14 16 -14 10 -1 -5 -12 5 -26 21 -15 17 -23 23 -19 15 3
-8 -2 -5 -13 7 -11 12 -22 19 -26 16 -3 -4 -6 -1 -6 6 0 7 -5 9 -10 6 -6 -3
-13 1 -16 9 -3 9 -10 13 -15 11 -4 -3 -17 3 -28 14 -11 11 -22 17 -25 14 -3
-4 -6 -1 -6 6 0 7 -4 9 -10 6 -5 -3 -10 -1 -10 5 0 6 -4 8 -10 5 -5 -3 -10 -1
-10 5 0 6 -4 8 -10 5 -5 -3 -10 -1 -10 5 0 6 -4 8 -10 5 -5 -3 -10 -1 -10 5 0
6 -4 8 -10 5 -5 -3 -10 -1 -10 5 0 6 -4 8 -10 5 -5 -3 -10 -2 -10 2 0 5 -10
10 -22 10 -13 1 -24 7 -26 12 -2 5 -9 8 -16 5 -8 -3 -20 1 -27 9 -8 7 -20 12
-27 9 -6 -2 -12 1 -12 8 0 6 -4 9 -8 6 -5 -3 -19 1 -33 8 -13 7 -30 11 -37 8
-6 -2 -12 1 -12 7 0 6 -7 8 -15 5 -8 -4 -15 -1 -15 6 0 6 -4 9 -9 6 -5 -4 -22
-1 -38 5 -15 7 -36 11 -45 10 -10 -1 -18 2 -18 7 0 6 -8 8 -19 5 -10 -3 -22 0
-25 6 -4 5 -13 8 -20 5 -8 -3 -17 -1 -20 5 -4 6 -13 8 -21 5 -8 -3 -20 -2 -27
2 -7 5 -23 7 -35 6 -11 -2 -24 1 -27 7 -4 6 -13 8 -21 5 -8 -3 -20 -2 -27 2
-13 9 -56 14 -116 14 -19 0 -39 3 -45 7 -22 13 -607 22 -640 10z m680 -828
c135 -65 198 -206 159 -359 -16 -63 -53 -126 -115 -200 -17 -19 -36 -56 -42
-82 -12 -44 -10 -61 31 -245 42 -187 45 -206 44 -343 -1 -165 -18 -246 -80
-384 -79 -177 -86 -214 -92 -483 l-4 -243 -39 0 -39 0 0 838 0 838 29 17 c80
47 79 178 -2 227 -64 40 -158 15 -192 -49 -32 -63 -8 -150 50 -181 l25 -13 0
-839 0 -838 -85 0 -85 0 0 573 0 572 35 28 c64 51 66 143 5 202 -27 26 -39 30
-90 30 -51 0 -63 -4 -89 -29 -62 -60 -60 -152 4 -203 l35 -28 0 -572 0 -573
-85 0 -85 0 0 308 0 308 29 17 c57 34 78 124 41 184 -51 84 -179 84 -230 0
-37 -60 -18 -143 40 -182 l30 -20 0 -307 0 -308 -39 0 -38 0 -7 61 c-8 84 -38
144 -101 209 -55 56 -75 92 -75 135 0 24 604 1733 637 1802 23 48 81 107 134
133 91 47 187 47 286 -1z m-629 -325 l30 -6 -51 -149 c-29 -82 -56 -149 -62
-149 -5 0 -25 9 -42 20 -27 16 -33 26 -33 53 0 36 52 201 71 223 12 15 39 17
87 8z m-162 -536 c2 -2 -20 -70 -48 -150 -55 -156 -58 -158 -105 -115 -30 27
-29 44 8 155 37 112 49 126 102 119 21 -3 40 -7 43 -9z m-192 -527 c6 -9 -81
-269 -95 -285 -11 -12 -56 19 -64 44 -8 24 50 206 73 233 16 18 77 24 86 8z
m186 -1091 l0 -40 -40 0 -40 0 0 40 0 40 40 0 40 0 0 -40z m260 0 l0 -40 -85
0 -85 0 0 40 0 40 85 0 85 0 0 -40z m270 0 l0 -40 -85 0 -85 0 0 40 0 40 85 0
85 0 0 -40z m170 0 l0 -40 -40 0 -40 0 0 40 0 40 40 0 40 0 0 -40z"/>
</g>
</svg>
