<?xml version="1.0" standalone="no"?>
<!DOCTYPE svg PUBLIC "-//W3C//DTD SVG 20010904//EN"
 "http://www.w3.org/TR/2001/REC-SVG-20010904/DTD/svg10.dtd">
<svg version="1.0" xmlns="http://www.w3.org/2000/svg"
 width="450.000000pt" height="450.000000pt" viewBox="0 0 450.000000 450.000000"
 preserveAspectRatio="xMidYMid meet">
<metadata>
Created by potrace 1.10, written by Peter Selinger 2001-2011
</metadata>
<g transform="translate(0.000000,450.000000) scale(0.100000,-0.100000)"
fill="#ffffff" stroke="none">
<path d="M3059 3960 l-307 -6 -68 -59 c-414 -358 -931 -833 -1159 -1064 l-79
-80 -91 -21 c-49 -12 -182 -38 -295 -59 l-205 -37 0 -136 0 -136 -29 -31 c-19
-20 -60 -41 -119 -63 l-90 -32 7 -65 c3 -36 6 -80 6 -97 0 -32 1 -32 208 -123
l207 -92 31 -202 c17 -111 27 -207 23 -212 -4 -6 -4 -17 1 -25 6 -8 10 -32 10
-52 0 -29 6 -41 24 -54 14 -8 26 -25 28 -37 2 -18 10 -22 38 -22 32 0 35 3 35
28 0 17 9 35 21 45 28 22 42 106 21 119 -12 7 -11 29 4 151 9 79 19 145 21
146 1 2 111 -43 243 -99 132 -57 378 -161 547 -233 l307 -130 51 19 c59 22 79
24 84 6 4 -11 18 -115 50 -352 11 -80 12 -113 4 -123 -8 -9 -8 -16 0 -24 7 -7
12 -33 12 -59 0 -41 4 -51 34 -77 21 -18 36 -41 38 -58 2 -21 11 -31 31 -38
39 -14 63 3 60 42 -3 27 2 32 32 43 42 16 46 25 36 87 -4 29 -3 55 3 64 7 12
7 24 -1 40 -22 45 -23 80 -9 221 8 78 18 171 21 207 l6 65 60 34 c49 29 59 39
59 62 0 40 16 51 137 100 59 23 145 59 190 80 l81 37 4 -36 c3 -21 2 -39 -2
-42 -4 -3 -11 -24 -14 -46 -7 -37 -4 -44 17 -61 14 -11 27 -30 29 -44 2 -20 9
-24 38 -24 33 0 35 2 36 34 0 26 6 37 22 44 23 10 28 34 23 107 -1 20 9 114
23 210 13 96 27 200 31 231 l6 56 57 18 c127 39 197 92 213 161 14 61 11 424
-4 453 -20 41 -70 61 -204 86 -148 27 -437 65 -495 65 -21 0 -47 4 -57 9 -16
9 -97 130 -90 134 2 2 42 18 89 36 251 99 506 266 585 383 43 64 44 97 6 140
l-29 33 -259 5 c-247 5 -283 9 -283 31 0 15 99 116 185 190 65 55 75 68 75 96
0 17 -3 33 -7 35 -5 2 -146 1 -314 -2z m299 -31 c3 -17 -8 -18 -375 -35 -135
-6 -143 -6 -143 12 -1 16 -3 15 -16 -6 -13 -21 -15 -22 -11 -4 4 17 0 20 -24
16 -17 -3 -29 0 -29 7 0 6 21 12 53 12 28 1 156 5 282 9 276 8 259 9 263 -11z
m-608 -31 c0 -4 -7 -8 -16 -8 -14 0 -15 -2 -3 -17 10 -11 10 -14 2 -9 -7 4
-13 3 -13 -3 0 -13 -61 -69 -285 -267 -200 -176 -482 -433 -621 -567 -79 -76
-94 -86 -114 -79 -21 8 -4 26 186 204 321 299 413 380 424 373 6 -4 9 -1 8 5
-3 14 401 376 420 377 6 0 12 -4 12 -9z m450 -12 c0 -13 -463 -425 -471 -420
-5 3 12 25 38 49 27 23 129 117 228 208 155 143 205 183 205 163z m40 -20
c-151 -143 -483 -437 -488 -432 -8 8 16 31 273 265 115 105 216 191 224 191
11 0 9 -7 -9 -24z m64 6 c-12 -9 -134 -119 -270 -243 -137 -125 -252 -227
-256 -228 -5 -1 -9 2 -9 5 -3 14 517 483 536 483 19 1 19 0 -1 -17z m-394 3
c0 -2 -177 -165 -392 -363 -216 -197 -449 -411 -518 -475 -106 -99 -150 -133
-150 -113 0 5 365 341 753 694 252 230 307 276 307 257z m40 -19 c-118 -113
-293 -265 -301 -261 -5 4 17 30 49 59 204 188 249 226 262 226 10 0 7 -7 -10
-24z m75 16 c-6 -5 -86 -77 -178 -162 -92 -84 -171 -149 -175 -145 -4 4 38 48
93 98 55 51 129 120 165 154 36 35 74 63 85 63 11 0 15 -3 10 -8z m55 4 c0 -6
-378 -347 -384 -347 -18 2 6 28 174 181 158 145 210 186 210 166z m59 0 c-124
-119 -425 -383 -432 -379 -5 3 -5 9 0 13 4 4 97 89 206 189 109 99 205 181
214 181 9 0 14 -2 12 -4z m-349 -10 c0 -2 -143 -134 -317 -293 -175 -159 -401
-367 -503 -461 -102 -95 -193 -172 -203 -172 -21 0 605 577 893 823 121 104
130 111 130 103z m38 -21 c-83 -73 -716 -651 -845 -773 -84 -79 -160 -142
-168 -140 -9 2 23 38 83 92 53 49 250 229 437 399 187 171 372 341 411 379 40
37 80 68 90 68 16 -1 15 -4 -8 -25z m284 -184 c-23 -38 -314 -301 -325 -294
-5 3 -5 9 0 13 21 21 338 309 340 310 2 0 -5 -13 -15 -29z m265 -61 c181 0
241 -3 268 -14 40 -17 48 -30 9 -16 -14 6 -131 10 -260 10 -229 0 -274 5 -274
32 0 9 3 9 12 0 9 -9 77 -12 245 -12z m-269 1 c-7 -19 -290 -271 -299 -265 -9
5 13 27 196 192 83 76 112 96 103 73z m-409 -119 c35 -59 197 -323 360 -587
162 -264 295 -488 295 -497 0 -9 4 -14 8 -12 8 5 28 -28 28 -45 0 -6 -5 -11
-11 -11 -5 0 -7 5 -4 10 3 6 2 10 -2 10 -5 0 -23 24 -40 53 -17 28 -74 125
-127 214 -53 89 -147 240 -210 335 -173 266 -390 639 -369 638 4 -1 37 -49 72
-108z m441 94 c0 -10 -302 -277 -308 -272 -7 8 9 24 163 165 101 93 145 125
145 107z m-536 -36 c-11 -9 -102 -93 -204 -186 -102 -93 -253 -232 -336 -310
-87 -83 -155 -139 -162 -135 -10 6 118 127 541 513 89 80 166 144 170 141 5
-3 1 -13 -9 -23z m574 22 c-1 -4 -57 -57 -123 -117 -66 -60 -139 -126 -161
-148 -23 -21 -44 -35 -48 -29 -3 5 67 75 155 156 142 129 189 165 177 138z
m62 5 c0 -4 -293 -274 -340 -313 -15 -14 -31 -21 -34 -16 -5 9 325 313 352
324 22 9 22 9 22 5z m48 -5 c-8 -22 -391 -363 -398 -356 -4 5 80 89 188 187
175 158 221 196 210 169z m62 4 c0 -2 -99 -95 -221 -206 -122 -112 -219 -195
-218 -185 5 20 408 394 427 395 6 0 12 -2 12 -4z m55 -5 c-133 -127 -471 -427
-474 -420 -2 6 34 46 80 88 246 227 376 341 389 341 9 0 10 -3 5 -9z m54 2 c0
-5 -28 -32 -62 -62 -34 -30 -147 -133 -250 -229 -104 -96 -192 -170 -197 -166
-9 10 477 462 498 463 6 1 12 -2 11 -6z m36 -22 c-149 -143 -517 -472 -523
-467 -8 9 27 42 298 290 124 113 232 206 240 206 9 0 4 -10 -15 -29z m24 -28
c-35 -32 -146 -134 -248 -228 -257 -238 -281 -259 -281 -243 0 19 556 528 577
528 10 0 -10 -23 -48 -57z m101 48 c0 -5 -19 -26 -42 -47 -24 -20 -144 -130
-267 -243 -199 -184 -266 -240 -276 -229 -1 2 47 48 107 103 60 55 189 173
286 262 97 89 180 162 185 163 4 0 7 -4 7 -9z m-8 -65 c-31 -28 -140 -128
-242 -222 -102 -93 -198 -175 -215 -182 -16 -8 -25 -9 -20 -4 189 179 518 471
525 467 6 -3 -16 -30 -48 -59z m-1018 -15 c-79 -72 -521 -480 -579 -535 -53
-50 -86 -69 -84 -48 1 15 694 640 698 629 2 -6 -14 -27 -35 -46z m1085 24
c-180 -168 -381 -346 -409 -360 -28 -14 -21 -5 35 47 251 233 380 346 388 341
5 -3 -2 -15 -14 -28z m-1029 -14 c0 -5 -48 -53 -107 -107 -59 -55 -204 -188
-321 -297 -118 -111 -219 -197 -227 -195 -14 3 629 606 648 607 4 1 7 -3 7 -8z
m1037 -16 c-22 -43 -275 -265 -301 -265 -6 0 306 289 312 290 1 0 -3 -11 -11
-25z m-1078 -82 c-187 -171 -450 -417 -494 -462 -27 -28 -57 -51 -67 -51 -28
0 -21 11 46 70 34 30 176 160 316 289 140 128 256 228 258 222 2 -6 -25 -37
-59 -68z m79 28 c-1 -5 -97 -96 -213 -202 -286 -264 -351 -326 -345 -332 3 -3
131 112 285 254 154 142 283 259 288 259 21 0 -10 -32 -205 -212 -195 -180
-349 -331 -288 -283 13 11 133 120 267 243 133 122 244 218 247 213 3 -5 -78
-87 -181 -182 -295 -275 -309 -288 -298 -288 6 0 117 98 248 219 209 193 268
242 255 212 -1 -4 -97 -96 -213 -203 -115 -108 -217 -204 -225 -214 -33 -41
30 13 235 202 115 106 213 189 218 186 5 -3 -33 -44 -85 -92 -216 -200 -303
-285 -311 -301 -7 -14 -29 -18 -126 -24 -64 -4 -127 -3 -139 1 -24 9 -59 -26
408 402 150 137 188 168 178 142z m-14 -275 c-65 -61 -150 -141 -189 -179
-123 -121 -42 -57 134 106 94 87 175 156 180 153 5 -4 -23 -36 -62 -73 -40
-37 -117 -112 -173 -166 l-101 -98 -47 3 -46 3 202 186 c112 103 207 184 212
181 5 -3 -45 -55 -110 -116z m64 -44 c-51 -47 -119 -112 -151 -143 -32 -32
-70 -60 -85 -64 -32 -8 -47 -23 157 164 84 77 158 138 163 135 5 -3 -33 -45
-84 -92z m-13 -66 c-135 -128 -149 -140 -166 -134 -6 2 54 63 133 135 78 72
147 129 152 126 5 -3 -49 -60 -119 -127z m135 86 c0 -18 -200 -202 -227 -208
-24 -6 -18 2 37 52 36 32 90 82 120 111 54 51 70 62 70 45z m-46 -106 c-83
-77 -100 -89 -114 -84 -5 2 31 40 81 85 50 46 96 80 101 77 5 -3 -25 -38 -68
-78z m43 -13 c-30 -29 -64 -53 -74 -53 -12 1 1 19 47 60 80 72 104 67 27 -7z
m73 18 c0 -11 -38 -36 -68 -46 -19 -5 -16 0 14 28 36 32 54 38 54 18z m55 -87
c19 -26 33 -48 32 -49 -1 0 -92 2 -202 5 l-200 5 70 13 c39 8 113 28 165 46
52 18 96 31 98 31 1 -1 18 -24 37 -51z m-1189 -19 c43 -8 93 -20 110 -25 l32
-11 -14 -52 c-7 -29 -29 -124 -49 -212 -19 -88 -37 -170 -40 -181 l-5 -22 -89
28 c-49 16 -114 34 -145 41 -32 7 -59 16 -62 20 -2 5 26 103 63 219 78 241 58
222 199 195z m-173 -52 c-15 -31 -25 -39 -56 -44 l-38 -6 22 23 c12 13 24 22
28 21 3 -1 6 1 6 5 0 13 50 59 53 49 2 -6 -5 -28 -15 -48z m937 -26 c0 -43 -1
-43 -30 -39 -26 4 -30 8 -30 37 0 29 4 34 28 38 15 2 28 5 30 6 1 0 2 -18 2
-42z m17 -24 c-2 -16 -4 -5 -4 22 0 28 2 40 4 28 2 -13 2 -35 0 -50z m52 17
l-2 -45 -7 40 -7 40 -2 -37 c-2 -54 -21 -47 -21 6 0 39 3 45 20 43 17 -1 20
-8 19 -47z m31 5 c0 -25 -4 -45 -10 -45 -5 0 -10 20 -10 45 0 25 5 45 10 45 6
0 10 -20 10 -45z m29 -27 c1 -16 -3 -28 -9 -28 -6 0 -10 24 -9 53 1 41 3 47 9
27 4 -14 8 -37 9 -52z m21 20 c0 -62 -5 -60 -13 5 -4 28 -3 47 3 47 6 0 10
-23 10 -52z m34 46 c11 -4 17 -20 18 -48 l1 -41 7 45 7 45 1 -47 c2 -37 -2
-48 -13 -48 -11 0 -16 12 -17 43 l-1 42 -4 -42 c-6 -60 -23 -54 -23 7 0 28 2
50 4 50 2 0 11 -3 20 -6z m-619 -19 c90 -14 153 -31 168 -45 11 -9 -13 -133
-65 -344 l-41 -168 -34 5 c-18 3 -84 26 -146 51 -61 24 -121 46 -132 48 -12 3
-18 10 -16 19 2 8 12 43 23 79 10 36 16 76 13 90 -4 16 -2 20 3 12 9 -13 52
153 52 200 0 13 3 33 6 46 8 27 38 29 169 7z m282 -52 c-2 -16 -4 -5 -4 22 0
28 2 40 4 28 2 -13 2 -35 0 -50z m20 5 c-2 -13 -4 -3 -4 22 0 25 2 35 4 23 2
-13 2 -33 0 -45z m20 0 c-2 -13 -4 -3 -4 22 0 25 2 35 4 23 2 -13 2 -33 0 -45z
m28 22 c1 -22 -3 -40 -7 -40 -4 0 -8 18 -8 40 0 22 3 40 8 40 4 0 7 -18 7 -40z
m322 -37 c-2 -16 -4 -3 -4 27 0 30 2 43 4 28 2 -16 2 -40 0 -55z m47 30 l-3
-48 9 44 c5 24 11 46 14 48 3 3 43 2 89 -2 l84 -7 37 -55 38 -55 -64 5 c-35 4
-102 9 -150 13 l-88 6 0 49 c0 41 3 49 19 49 16 0 18 -6 15 -47z m-456 -5 l-1
-43 -5 40 -6 40 -6 -40 -6 -40 -11 35 c-6 19 -12 29 -12 22 -1 -8 -6 -10 -13
-5 -7 4 -17 8 -23 9 -52 6 -51 6 -25 13 14 4 44 8 68 10 l42 2 -2 -43z m1047
-4 c263 -35 239 -26 231 -92 -8 -64 -8 -65 -30 -56 -11 4 -16 20 -18 58 l-2
51 -3 -47 c-2 -27 -7 -48 -11 -48 -16 1 -30 17 -35 40 l-4 25 -2 -26 -1 -26
-61 13 c-34 7 -120 18 -193 25 -72 7 -134 17 -138 23 -4 6 -19 31 -34 55 l-27
44 74 -7 c41 -4 155 -18 254 -32z m-1113 -38 c2 -19 1 -33 -2 -31 -3 2 -16
-47 -28 -108 -27 -132 -73 -309 -79 -303 -3 2 5 37 16 78 31 110 83 379 77
395 -3 8 -2 12 3 9 5 -3 11 -21 13 -40z m-722 16 c0 -3 -18 -61 -40 -128 -22
-68 -40 -130 -40 -139 0 -9 -9 -15 -24 -15 -13 0 -26 -5 -28 -11 -2 -6 -14 -8
-31 -4 l-27 7 23 28 c13 15 31 58 41 96 27 107 49 157 75 170 22 11 51 9 51
-4z m-107 -29 c-10 -30 -14 -34 -24 -27 -6 4 -3 14 7 25 21 24 25 24 17 2z
m1052 9 c-15 -13 -89 -32 -121 -31 -24 1 -19 4 26 19 58 20 111 26 95 12z
m1140 -79 c-4 -35 -9 -62 -12 -60 -2 3 -1 38 3 79 4 40 9 67 12 60 2 -8 1 -43
-3 -79z m-1280 67 c-11 -5 -31 -8 -45 -8 -23 0 -22 1 5 8 42 11 65 11 40 0z
m233 5 c-7 -7 -139 -45 -157 -45 -25 0 -2 14 52 31 50 16 116 25 105 14z
m1075 -47 c-3 -29 -10 -60 -15 -68 -6 -10 -8 -4 -4 19 3 18 6 49 6 67 0 19 4
34 10 34 5 0 7 -22 3 -52z m-995 37 c-11 -11 -165 -51 -178 -46 -18 6 113 49
154 50 16 1 27 -1 24 -4z m1060 -18 c6 -5 12 -21 11 -36 l-1 -26 -8 25 -8 25
-2 -25 c-2 -24 -3 -23 -10 5 -7 28 -8 27 -10 -15 l-3 -45 -7 40 -7 40 -2 -37
c0 -21 -5 -38 -9 -38 -8 0 -6 38 4 87 4 23 23 23 52 0z m61 -20 c12 -30 12
-437 1 -462 -5 -13 -9 44 -9 153 -1 94 -4 172 -8 172 -5 0 -7 -82 -5 -181 2
-127 0 -185 -8 -193 -9 -8 -10 21 -4 118 5 96 4 127 -5 122 -7 -5 -12 -52 -13
-134 l-2 -127 -3 113 c-2 62 -7 110 -12 108 -5 -3 -6 -57 -3 -121 3 -73 1
-115 -5 -115 -11 0 -23 115 -23 217 0 35 -4 63 -10 63 -9 0 -6 -193 5 -262 5
-31 -13 -42 -117 -73 l-50 -15 5 193 c3 117 2 167 -3 127 -4 -36 -8 -125 -9
-197 -1 -92 -4 -133 -12 -133 -9 0 -10 34 -6 123 4 67 3 113 -2 102 -4 -11 -6
-26 -3 -34 4 -10 1 -12 -8 -6 -10 6 -12 -4 -8 -49 3 -36 1 -53 -5 -47 -6 6 -7
51 -3 113 10 150 11 169 6 208 -4 27 -1 35 13 38 14 3 17 -4 19 -35 l1 -38 7
45 c6 38 7 40 10 15 l2 -30 7 29 c5 26 14 31 101 57 52 16 96 29 98 29 1 0 2
-17 3 -37 0 -21 5 -47 10 -58 6 -14 8 -1 4 44 -4 53 -3 62 10 57 8 -3 15 0 15
7 0 8 4 6 10 -3 8 -12 10 -11 10 8 0 25 -3 26 -31 11 -11 -6 -111 -37 -222
-70 -111 -33 -208 -66 -216 -74 -12 -12 -7 -21 37 -64 118 -112 70 -139 -508
-287 -102 -26 -189 -46 -195 -46 -5 1 -23 4 -40 7 l-30 6 28 -16 c15 -9 27
-24 27 -34 0 -10 3 -33 6 -50 6 -28 4 -31 -17 -32 -24 -1 -24 -1 2 -10 25 -9
27 -15 33 -93 4 -45 5 -89 2 -97 -2 -8 -7 -26 -10 -41 -3 -14 -18 -41 -33 -58
-28 -34 -102 -85 -110 -77 -3 3 5 11 17 17 12 6 20 14 17 16 -2 2 -24 -7 -48
-21 -24 -15 -34 -23 -21 -20 12 3 22 4 22 1 0 -12 -136 -46 -162 -41 -39 9
-35 21 10 29 50 8 160 61 195 94 63 59 73 116 53 297 -11 100 -11 133 -2 142
12 13 455 128 462 120 4 -4 -43 -17 -306 -86 -41 -10 -67 -20 -58 -20 49 -3
483 122 506 146 8 8 23 12 34 10 10 -3 16 -2 13 3 -5 8 42 21 85 24 37 2 36
30 -4 97 -20 33 -36 65 -36 70 0 5 -4 9 -10 9 -5 0 -10 5 -10 10 0 6 6 10 14
10 7 0 19 7 27 16 7 9 22 14 36 11 14 -2 20 0 16 6 -4 6 0 8 10 4 16 -6 307
82 359 109 35 18 44 48 23 80 -16 25 -16 25 5 14 11 -6 25 -21 29 -33z m-1034
27 c-37 -15 -250 -73 -253 -69 -3 3 -3 7 -1 9 13 11 200 64 229 64 19 0 31 -1
25 -4z m81 -1 c10 -4 -52 -26 -167 -59 -160 -47 -205 -56 -188 -40 2 2 78 27
169 54 91 28 166 51 167 51 1 1 9 -2 19 -6z m-444 -24 c51 -12 94 -22 96 -24
1 -1 -8 -24 -20 -51 -12 -27 -48 -132 -79 -234 -54 -175 -59 -185 -80 -181
-13 1 -33 14 -45 26 -12 13 -37 27 -56 30 l-35 7 13 36 c6 21 31 116 55 212
23 96 43 181 45 188 4 15 -4 16 106 -9z m544 14 c-9 -9 -426 -132 -450 -133
-42 -1 4 17 202 76 192 57 265 74 248 57z m-1516 -13 c21 -13 19 -14 -288 -68
-237 -42 -275 -47 -290 -35 -16 13 -15 14 5 10 18 -4 192 29 468 88 77 16 87
17 105 5z m1608 5 c-9 -9 -483 -145 -503 -144 -29 1 -18 5 230 80 191 58 291
81 273 64z m52 -14 c0 -10 -529 -165 -537 -157 -4 3 -4 7 -2 9 6 5 512 154
527 156 6 0 12 -3 12 -8z m105 -11 c-27 -12 -35 -12 -35 0 0 6 12 10 28 9 24
0 25 -1 7 -9z m99 2 c2 -4 -22 -15 -55 -23 -72 -19 -90 -6 -22 15 57 17 70 19
77 8z m92 -9 c-13 -13 -186 -60 -192 -52 -2 4 30 19 73 33 76 24 133 33 119
19z m-1956 -23 c0 -28 -38 -41 -128 -45 -40 -2 -76 -6 -80 -10 -4 -4 13 -5 38
-1 l45 6 -49 -15 c-27 -7 -73 -12 -103 -10 -29 1 -56 -1 -59 -6 -3 -5 3 -10
13 -10 17 -1 17 -2 0 -6 -11 -3 -25 3 -33 14 -9 10 -12 11 -8 3 6 -12 5 -13
-7 -4 -8 6 -24 10 -37 9 -12 -1 -21 3 -19 9 2 6 15 11 30 11 14 1 29 4 33 8 4
4 22 7 40 7 18 0 82 10 141 21 59 12 119 23 131 24 13 2 26 6 30 9 11 12 22 5
22 -14z m1680 12 c0 -8 -552 -172 -559 -166 -10 9 19 19 271 94 274 81 288 85
288 72z m355 0 c-11 -9 -225 -72 -246 -72 -28 0 8 16 104 46 100 31 160 42
142 26z m63 -17 c-11 -10 -289 -87 -295 -82 -3 4 -4 8 -2 10 14 10 276 83 287
79 7 -2 12 -6 10 -7z m-398 -15 c0 -5 -6 -10 -12 -10 -7 0 -136 -36 -287 -80
-150 -45 -279 -79 -285 -77 -16 7 -10 8 284 96 275 82 300 88 300 71z m444 1
c6 -9 -313 -105 -322 -97 -9 9 -4 11 153 59 172 52 162 50 169 38z m34 -26
c-7 -7 -270 -77 -274 -73 -6 6 259 85 269 80 5 -2 7 -5 5 -7z m-463 -3 c-14
-12 -607 -184 -613 -177 -3 3 -3 7 -1 9 8 7 584 175 604 175 11 1 15 -3 10 -7z
m-2297 -21 c9 -6 15 -44 19 -122 5 -94 3 -120 -10 -146 -9 -17 -14 -32 -12
-35 2 -2 -5 -5 -17 -5 -20 -2 -20 -2 2 22 12 13 20 30 17 37 -4 9 -6 8 -6 -3
-1 -9 -10 -24 -21 -34 -11 -10 -17 -22 -14 -27 7 -11 -83 -51 -96 -43 -17 11
-11 23 15 29 41 10 94 64 106 108 10 37 5 165 -7 211 -6 18 3 22 24 8z m562 0
c0 -36 -39 -59 -41 -23 0 13 -2 12 -9 -5 -11 -27 -25 -31 -16 -5 5 15 5 15 -8
-1 -14 -18 -14 -18 -19 0 -4 14 -5 14 -6 -4 0 -13 -6 -23 -12 -23 -6 0 -8 8
-5 18 6 16 5 16 -8 0 -7 -10 -16 -18 -19 -18 -4 0 -4 8 -1 18 3 9 -1 6 -9 -7
-12 -21 -15 -21 -21 -6 -5 14 -9 15 -21 5 -9 -7 -15 -8 -15 -2 0 5 -10 8 -22
5 -13 -3 -20 -3 -17 1 6 6 206 53 237 55 6 1 12 -3 12 -8z m1744 -10 c-5 -5
-142 -47 -304 -94 -162 -47 -303 -89 -312 -92 -11 -4 -18 -3 -18 4 0 6 25 18
55 27 31 8 174 50 318 93 144 43 264 76 266 74 3 -2 0 -7 -5 -12z m-1975 -56
c119 -31 338 -96 486 -145 149 -49 392 -125 540 -170 149 -44 271 -85 273 -89
2 -5 12 -7 22 -4 16 4 20 0 19 -18 0 -22 -1 -23 -9 -4 -7 15 -9 16 -9 4 -1
-15 -7 -14 -58 3 -32 10 -317 99 -633 198 -889 276 -920 285 -881 261 9 -6 11
-18 7 -39 -6 -24 -11 -29 -28 -24 -16 4 -19 10 -14 34 3 18 2 27 -4 23 -6 -3
-10 -2 -10 4 0 11 22 18 59 20 13 0 121 -24 240 -54z m1326 43 c48 -22 43 -51
-40 -252 -28 -67 -36 -98 -32 -126 l5 -38 -39 16 c-27 10 -39 21 -39 35 0 28
107 377 115 377 2 0 16 -5 30 -12z m664 -18 c-8 -4 -153 -48 -324 -98 -170
-50 -318 -94 -327 -97 -11 -4 -18 -3 -18 4 0 7 6 13 13 16 6 2 146 42 310 90
164 47 308 90 320 94 25 10 47 2 26 -9z m-2207 -30 c-2 -16 -8 -30 -13 -30
-10 0 -11 7 -3 38 9 33 21 27 16 -8z m201 -35 c95 -30 267 -83 382 -118 449
-137 950 -299 953 -308 2 -5 7 -7 12 -4 4 3 6 -5 3 -17 -4 -22 -3 -22 11 2 16
26 20 20 10 -16 -6 -22 -6 -22 -62 -4 -56 17 -621 190 -877 268 -605 185 -605
185 -606 212 l-1 25 -8 -25 c-5 -15 -8 -18 -9 -8 -1 19 9 48 16 48 3 0 82 -25
176 -55z m227 47 c0 -12 -46 -32 -54 -25 -11 12 -6 25 7 20 8 -3 20 -1 28 4
18 11 19 11 19 1z m1808 -8 c-3 -2 -159 -49 -347 -104 -189 -55 -348 -103
-353 -107 -6 -3 -9 0 -6 8 3 9 136 53 349 115 297 87 375 106 357 88z m107 6
c-11 -5 -27 -9 -35 -9 -9 0 -8 4 5 9 11 5 27 9 35 9 9 0 8 -4 -5 -9z m158
-103 c2 -44 0 -73 -4 -65 -5 7 -8 47 -8 88 1 92 6 82 12 -23z m-253 74 c0 -10
0 -10 -429 -135 -162 -48 -299 -85 -305 -82 -17 6 1 11 373 121 389 115 361
108 361 96z m210 -16 c2 30 2 30 10 5 4 -14 8 -41 8 -60 l0 -35 -8 30 c-4 17
-8 22 -9 12 -2 -38 -21 -4 -20 36 1 40 2 40 9 12 l8 -30 2 30z m-31 -17 l-1
-33 -8 30 c-5 18 -8 23 -9 11 0 -11 -4 -17 -7 -13 -9 9 3 37 16 37 5 0 9 -15
9 -32z m-1849 -8 c30 -7 176 -52 323 -101 147 -49 276 -88 285 -87 36 3 53 -2
46 -14 -5 -8 -2 -9 9 -5 21 8 70 -10 62 -22 -3 -6 13 -16 36 -23 23 -6 37 -14
31 -16 -26 -8 -895 275 -886 289 3 5 12 5 22 0 9 -4 42 -14 72 -21z m-614 7
c11 4 14 -5 15 -38 1 -24 4 -34 6 -23 3 14 16 25 36 31 27 7 67 -2 252 -58
1321 -402 1227 -372 1250 -396 13 -13 15 -12 16 4 1 10 5 5 9 -12 6 -24 8 -26
9 -7 1 26 -1 25 39 11 29 -10 30 -13 37 -88 7 -81 -4 -144 -32 -188 -20 -30
-33 -29 -33 2 0 29 -8 32 -24 9 -10 -13 -52 -1 -346 104 -184 66 -481 175
-660 242 -179 67 -377 142 -440 165 l-115 43 -7 39 c-4 21 -7 64 -7 95 -1 47
-4 56 -16 52 -10 -4 -15 0 -14 12 0 11 3 14 5 7 3 -7 12 -9 20 -6z m2298 5 c6
-9 -754 -235 -762 -227 -3 3 -3 7 -1 9 2 2 168 52 369 111 201 59 367 109 369
111 7 7 19 5 25 -4z m16 -32 c0 -5 -12 -13 -27 -16 -16 -4 -192 -56 -393 -115
-201 -59 -367 -105 -369 -103 -2 2 -1 7 2 10 5 6 759 231 780 233 4 1 7 -3 7
-9z m20 -28 c0 -4 -181 -60 -401 -125 -346 -101 -429 -122 -408 -103 5 5 781
234 797 235 6 1 12 -2 12 -7z m-2353 -69 c-3 -10 -5 -2 -5 17 0 19 2 27 5 18
2 -10 2 -26 0 -35z m2363 39 c0 -5 -96 -36 -212 -70 -117 -34 -294 -87 -393
-116 -99 -30 -184 -51 -188 -47 -4 4 86 35 200 69 114 34 289 86 388 116 193
58 205 60 205 48z m20 -32 c0 -5 -5 -10 -12 -10 -6 0 -171 -48 -366 -106 -194
-58 -366 -104 -380 -102 -23 3 708 225 746 227 6 1 12 -3 12 -9z m156 -25 c-8
-22 -24 -247 -32 -447 l-6 -176 -137 -60 c-204 -91 -338 -144 -584 -233 -122
-44 -239 -87 -260 -95 -20 -7 -42 -14 -47 -14 -6 0 -10 46 -10 114 l0 114 37
7 c119 22 249 109 274 183 13 37 14 101 5 270 -4 84 -3 92 13 92 23 0 191 43
436 111 190 53 274 89 290 127 11 24 31 31 21 7z m-151 -4 c-20 -19 -420 -129
-430 -119 -5 4 400 125 425 127 8 1 10 -2 5 -8z m-2406 -43 c-1 -31 -1 -32 -9
-8 -7 21 -8 22 -10 5 -1 -12 -4 -15 -7 -7 -4 11 13 42 23 42 2 0 4 -15 3 -32z
m2576 -110 c6 -89 5 -98 -10 -98 -14 0 -16 6 -11 31 3 17 6 63 6 102 0 39 2
68 4 66 2 -2 7 -48 11 -101z m-2622 79 c-4 -6 0 -8 10 -4 10 3 17 2 17 -4 0
-6 -8 -9 -18 -7 -11 2 -27 -4 -37 -12 -11 -8 -16 -10 -12 -3 4 6 3 14 -2 17
-5 3 -11 -4 -14 -16 -4 -12 -9 -19 -12 -16 -9 9 14 50 25 43 5 -3 11 -2 14 3
3 5 12 9 20 9 8 0 12 -5 9 -10z m-144 -11 c15 -18 51 -27 51 -13 0 6 2 8 5 5
8 -8 -6 -38 -17 -38 -5 0 -6 5 -3 10 3 6 1 10 -4 10 -6 0 -11 -10 -11 -23 0
-13 -4 -27 -9 -32 -5 -6 -11 -19 -14 -30 -3 -14 -5 -10 -6 11 0 16 4 35 11 42
6 6 9 14 6 17 -3 4 -12 -8 -19 -24 -17 -38 -28 -40 -26 -3 1 18 10 31 27 39
19 9 21 12 8 14 -22 2 -41 2 -70 0 -21 -1 -21 -3 -5 -12 9 -6 17 -22 17 -38 0
-55 -17 -46 605 -311 165 -70 391 -165 503 -210 111 -46 201 -85 198 -87 -2
-2 -88 30 -192 71 -103 42 -183 72 -178 67 19 -18 361 -151 375 -146 8 3 86
-24 174 -59 87 -36 163 -63 167 -60 4 3 8 27 8 55 0 48 12 65 24 33 3 -8 11
-12 16 -9 8 5 10 -26 9 -97 -1 -56 -3 -106 -5 -110 -3 -4 -18 -2 -34 4 -17 5
-27 14 -24 19 3 5 -2 6 -10 3 -9 -3 -16 -1 -16 4 0 11 -27 25 -294 143 -98 44
-183 78 -189 76 -6 -2 40 -25 102 -51 61 -27 110 -51 108 -53 -3 -2 -78 28
-168 67 -90 39 -219 94 -287 122 -68 28 -121 52 -119 54 2 2 48 -14 102 -36
104 -42 115 -46 100 -31 -14 14 -227 92 -233 86 -3 -3 1 -5 8 -5 7 0 11 -2 8
-5 -8 -9 -38 6 -32 16 3 5 -1 10 -8 10 -7 1 -20 3 -28 4 -8 1 -21 3 -28 4 -7
0 -10 6 -6 13 5 8 2 9 -9 5 -10 -3 -17 -2 -17 4 0 6 -4 8 -9 5 -12 -8 -112 35
-105 45 3 5 -1 6 -9 4 -7 -3 -37 5 -66 19 -29 13 -47 26 -41 28 7 2 -87 46
-209 98 l-221 95 -1 73 c-1 39 -2 77 -3 83 -1 6 15 17 34 24 47 17 46 17 59 1z
m281 10 c0 -2 -27 -14 -60 -26 -33 -12 -60 -26 -60 -30 0 -14 -79 -43 -97 -35
-14 5 -3 13 47 37 89 42 170 67 170 54z m45 -26 c-3 -5 -10 -10 -15 -10 -5 0
-46 -18 -92 -40 -82 -40 -108 -47 -108 -32 0 8 50 31 81 38 9 2 40 15 70 29
59 27 74 31 64 15z m-55 -62 c-57 -27 -107 -45 -112 -40 -10 10 192 103 206
95 5 -4 -37 -28 -94 -55z m140 37 c0 -3 -24 -17 -52 -30 -29 -14 -72 -37 -95
-51 -31 -18 -47 -23 -59 -16 -14 8 -5 15 47 38 35 16 79 37 99 46 36 17 60 22
60 13z m-45 -74 c-58 -28 -106 -46 -113 -42 -9 5 -1 13 25 23 21 9 65 27 98
41 102 43 95 29 -10 -22z m140 30 c-18 -16 -205 -94 -212 -88 -8 9 -12 6 92
54 84 39 142 55 120 34z m-437 -13 c19 -19 14 -30 -8 -18 -11 6 -20 15 -20 20
0 14 14 12 28 -2z m476 3 c3 -5 -16 -16 -42 -26 -26 -10 -56 -26 -67 -36 -28
-25 -84 -44 -96 -32 -6 6 30 27 93 55 57 26 104 47 105 47 1 1 4 -3 7 -8z
m2243 -43 c-2 -13 -4 -5 -4 17 -1 22 1 32 4 23 2 -10 2 -28 0 -40z m-2657 5
c0 -10 -6 -13 -16 -9 -9 3 -18 6 -20 6 -2 0 -4 6 -4 14 0 9 7 12 20 9 11 -3
20 -12 20 -20z m380 -34 c-57 -27 -111 -47 -120 -44 -10 4 1 13 35 27 28 11
75 31 105 44 101 43 86 24 -20 -27z m-340 20 c0 -5 -7 -9 -15 -9 -8 0 -15 7
-15 15 0 9 6 12 15 9 8 -4 15 -10 15 -15z m474 13 c6 -10 -200 -101 -213 -93
-5 4 36 27 92 53 110 51 113 52 121 40z m1206 -11 c5 7 12 10 15 7 10 -10 -4
-28 -21 -28 -8 0 -14 9 -13 23 1 19 2 19 6 3 4 -15 7 -16 13 -5z m-1640 -11
c8 -5 11 -12 8 -16 -10 -9 -38 3 -38 16 0 12 10 13 30 0z m475 2 c-6 -5 -30
-17 -55 -26 -25 -10 -52 -24 -60 -31 -30 -26 -76 -44 -90 -35 -18 11 -21 9 90
58 90 39 136 53 115 34z m-517 -24 c6 -6 22 -13 34 -15 13 -2 25 -8 26 -13 2
-6 8 -8 13 -4 5 3 9 1 9 -4 0 -6 6 -10 13 -9 32 1 48 -4 42 -13 -3 -6 4 -10
17 -10 13 -1 83 -25 157 -54 123 -48 132 -54 101 -58 -30 -5 -63 5 -80 22 -3
3 -14 7 -25 8 -11 2 -21 8 -23 13 -2 5 -12 9 -22 9 -25 0 -70 21 -70 32 0 6
-6 8 -12 5 -7 -2 -40 8 -73 23 -33 15 -75 33 -92 41 -18 7 -33 18 -33 22 0 5
-5 5 -12 1 -7 -4 -8 -3 -4 4 9 15 19 15 34 0z m92 2 c8 -5 11 -12 8 -16 -10
-9 -38 3 -38 16 0 12 10 13 30 0z m485 2 c-6 -5 -48 -26 -95 -46 -47 -21 -90
-42 -95 -47 -6 -4 -17 -4 -25 1 -12 7 -11 10 5 16 11 4 61 25 110 45 90 38
118 47 100 31z m2048 -16 c-4 -5 3 -7 15 -4 12 4 22 2 22 -3 0 -5 -4 -9 -9 -9
-5 0 -17 -3 -27 -7 -13 -5 -15 -3 -9 8 7 12 6 12 -9 0 -16 -13 -16 -16 -2 -26
11 -9 12 -15 4 -23 -16 -16 -17 -52 -2 -52 7 0 16 5 20 12 4 6 3 8 -3 5 -15
-10 -24 18 -10 32 24 24 40 13 34 -26 -4 -21 -9 -68 -13 -105 -4 -37 -10 -66
-14 -63 -3 2 -4 -10 -2 -27 3 -16 0 -33 -5 -37 -5 -3 -13 -34 -19 -67 -8 -52
-7 -64 6 -72 12 -9 11 -11 -8 -11 -13 -1 -20 -5 -17 -11 4 -6 11 -7 17 -4 6 4
8 2 4 -4 -3 -5 -1 -12 5 -14 18 -6 -8 -57 -36 -70 -33 -15 -52 0 -37 29 15 27
0 48 -24 34 -17 -9 -17 -10 -1 -11 9 0 17 -8 17 -17 0 -15 -2 -16 -10 -3 -8
12 -10 10 -11 -10 l-1 -25 -8 25 c-4 14 -8 19 -9 11 -1 -8 -4 -11 -8 -8 -4 4
3 20 15 37 14 19 18 31 11 36 -6 3 -9 20 -7 36 3 16 1 31 -4 34 -15 10 -8 24
12 24 11 0 20 5 20 11 0 5 5 7 12 3 9 -6 9 -9 0 -12 -10 -3 -10 -7 -1 -18 14
-17 -2 -19 -21 -1 -8 7 -7 2 3 -15 16 -26 16 -27 0 -21 -17 6 -17 5 -1 -13 9
-10 17 -23 17 -29 0 -5 4 -11 9 -13 6 -2 12 32 15 75 3 43 12 112 20 153 8 41
13 78 11 82 -2 4 0 9 6 13 6 4 8 11 5 16 -4 5 -2 9 4 9 5 0 12 -19 14 -42 4
-38 4 -36 4 10 -1 43 -3 51 -16 47 -13 -4 -16 6 -17 60 -1 36 3 65 8 65 5 0 7
4 4 8 -2 4 4 8 14 8 10 0 16 -5 13 -10z m-2492 -9 c-1 -12 -15 -9 -19 4 -3 6
1 10 8 8 6 -3 11 -8 11 -12z m390 -38 c-105 -50 -121 -55 -121 -41 0 12 172
90 200 90 16 1 -14 -18 -79 -49z m1160 8 c-13 -13 -15 1 -4 30 7 17 8 17 11
-1 2 -10 -1 -23 -7 -29z m-1496 3 c-8 -13 -35 0 -35 16 0 12 4 12 20 4 11 -6
18 -15 15 -20z m475 22 c0 -4 -25 -16 -56 -27 -31 -10 -58 -24 -61 -31 -7 -18
-82 -46 -98 -36 -10 5 18 22 88 54 103 47 127 54 127 40z m-425 -42 c-8 -13
-35 0 -35 16 0 12 4 12 20 4 11 -6 18 -15 15 -20z m2425 20 c0 -5 -10 -10 -22
-10 -19 0 -20 2 -8 10 19 13 30 13 30 0z m-1920 -10 c28 -8 39 -1 -124 -74
-102 -46 -95 -26 9 24 55 27 94 49 87 49 -7 1 -55 -19 -108 -44 -52 -24 -102
-41 -110 -38 -11 4 -2 11 28 23 23 10 70 29 103 43 64 27 76 29 115 17z m54
-19 c3 -5 -21 -19 -54 -31 -33 -12 -60 -27 -60 -32 0 -5 -16 -16 -35 -24 -39
-16 -85 -19 -69 -5 6 7 194 96 211 100 1 1 4 -3 7 -8z m-479 -12 c4 -6 5 -12
2 -15 -7 -7 -37 7 -37 17 0 13 27 11 35 -2z m62 -21 c18 -7 33 -18 33 -25 0
-7 -7 -10 -15 -7 -8 4 -15 10 -15 16 0 5 -4 7 -9 4 -12 -8 -41 3 -41 15 0 12
7 11 47 -3z m384 -38 c-57 -28 -113 -50 -124 -50 -31 0 -10 14 53 38 30 11 75
30 100 41 25 11 52 20 60 20 8 0 -32 -22 -89 -49z m133 32 c6 -10 -213 -106
-222 -97 -4 4 -2 9 3 12 6 2 53 23 105 48 102 48 106 49 114 37z m-434 -39 c0
-11 -4 -11 -20 -3 -11 6 -20 15 -20 19 0 5 9 7 20 4 11 -3 20 -12 20 -20z
m475 19 c-6 -5 -30 -17 -55 -26 -25 -10 -52 -24 -60 -31 -34 -29 -80 -46 -98
-36 -9 6 -15 11 -12 11 3 0 50 20 105 45 93 42 142 57 120 37z m-425 -39 c0
-11 -4 -11 -20 -3 -11 6 -20 15 -20 19 0 5 9 7 20 4 11 -3 20 -12 20 -20z
m485 19 c-6 -5 -39 -21 -75 -36 -36 -16 -80 -37 -98 -47 -21 -12 -39 -16 -48
-11 -11 6 -5 12 23 24 21 8 72 29 113 46 77 32 102 39 85 24z m85 -32 c0 -3
-25 -14 -56 -25 -31 -10 -58 -24 -61 -31 -5 -13 -74 -44 -98 -44 -35 0 -9 18
86 60 55 24 96 46 91 48 -6 2 -54 -18 -108 -43 -54 -25 -107 -44 -118 -43 -11
2 27 24 93 54 100 46 116 50 142 41 16 -6 29 -14 29 -17z m-532 1 c3 -8 -1
-12 -9 -9 -7 2 -15 10 -17 17 -3 8 1 12 9 9 7 -2 15 -10 17 -17z m-65 -5 c18
-8 39 -17 47 -19 8 -3 -3 -6 -26 -6 -23 -1 -56 4 -75 11 -34 12 -34 12 -9 19
14 4 27 7 28 8 2 1 18 -5 35 -13z m112 -7 c4 -6 5 -12 2 -15 -7 -7 -37 7 -37
17 0 13 27 11 35 -2z m544 -12 c-16 -11 -199 -90 -216 -94 -41 -9 -24 12 25
31 26 10 78 31 117 46 38 16 72 27 74 24 2 -2 2 -5 0 -7z m-494 -8 c4 -6 5
-12 2 -15 -7 -7 -37 7 -37 17 0 13 27 11 35 -2z m-430 -37 c-4 -4 -12 -7 -18
-7 -6 0 -12 -13 -12 -28 l-2 -28 23 22 c13 12 21 25 19 30 -3 4 -1 10 5 14 16
10 24 -25 9 -38 -8 -7 -25 -25 -39 -42 -23 -27 -21 -27 13 4 20 19 37 31 37
26 0 -11 -61 -75 -71 -75 -3 0 -6 18 -6 40 0 22 -2 43 -6 47 -4 3 -7 21 -7 40
l0 34 31 -16 c17 -9 28 -20 24 -23z m443 -22 c-18 -3 -46 -1 -63 4 l-30 10 25
8 c19 6 16 7 -12 3 -21 -2 -38 0 -38 6 0 5 -10 10 -22 10 -18 1 -16 3 7 8 21
4 51 -1 98 -19 67 -24 68 -25 35 -30z m531 56 c-15 -14 -233 -104 -241 -100
-13 8 190 102 221 103 13 1 22 -1 20 -3z m-499 -16 c0 -5 -7 -10 -15 -10 -8 0
-15 5 -15 10 0 6 7 10 15 10 8 0 15 -4 15 -10z m534 3 c3 -4 -22 -17 -56 -30
-34 -13 -65 -27 -68 -32 -12 -19 -91 -51 -106 -43 -11 6 16 22 98 60 124 56
122 55 132 45z m-484 -24 c0 -5 -9 -9 -20 -9 -11 0 -20 6 -20 14 0 9 7 12 20
9 11 -3 20 -9 20 -14z m50 -24 c0 -8 -8 -11 -20 -8 -11 3 -20 11 -20 18 0 8 8
11 20 8 11 -3 20 -11 20 -18z m460 7 c-19 -9 -70 -33 -113 -54 -52 -25 -84
-35 -94 -30 -11 6 -2 13 34 26 26 10 77 31 113 47 67 30 122 40 60 11z m-975
-2 c-4 -6 6 -11 22 -11 21 -1 23 -3 7 -6 -12 -2 -26 -14 -32 -26 -10 -19 -10
-18 -7 13 4 43 4 40 11 40 3 0 2 -4 -1 -10z m1050 1 c-20 -17 -225 -103 -237
-98 -7 2 7 14 32 25 25 11 74 34 110 51 61 28 116 42 95 22z m-538 -36 c32
-13 50 -24 41 -25 -10 0 -18 -4 -18 -10 0 -6 9 -6 22 -1 23 8 104 -17 173 -53
17 -9 37 -16 46 -16 9 0 19 -3 23 -7 4 -5 22 -13 39 -20 l32 -12 -40 6 c-22 3
-44 9 -50 13 -5 4 -27 11 -48 14 -29 6 -37 4 -32 -5 5 -7 -3 -6 -21 3 -16 9
-42 21 -57 27 -15 6 -25 16 -22 21 4 6 -8 10 -29 10 -19 0 -41 7 -50 15 -8 8
-24 15 -35 15 -12 0 -21 6 -21 14 0 9 -18 16 -52 21 -49 7 -51 9 -23 15 35 9
46 6 122 -25z m41 17 c2 -7 -3 -12 -12 -12 -9 0 -16 7 -16 16 0 17 22 14 28
-4z m536 9 c3 -4 -26 -20 -64 -35 -39 -15 -70 -31 -70 -35 0 -14 -79 -44 -97
-37 -13 5 8 18 77 50 52 23 106 47 120 53 14 7 26 12 27 12 1 1 4 -3 7 -8z
m-1008 -23 c4 -7 3 -8 -4 -4 -8 5 -12 -1 -12 -16 0 -16 -3 -19 -8 -10 -5 7
-16 10 -25 6 -12 -4 -17 -1 -17 11 0 12 6 16 20 12 11 -3 20 -1 20 4 0 13 17
11 26 -3z m513 3 c9 -6 10 -11 2 -15 -13 -8 -31 1 -31 15 0 11 11 11 29 0z
m560 -4 c-21 -18 -241 -107 -250 -102 -7 5 6 14 32 25 24 10 78 32 119 48 64
27 114 41 99 29z m-509 -17 c8 -5 11 -12 8 -16 -10 -9 -38 3 -38 16 0 12 10
13 30 0z m550 3 c0 -5 -21 -17 -48 -27 -26 -11 -78 -34 -116 -52 -38 -18 -75
-30 -83 -27 -8 3 38 29 104 59 116 53 143 61 143 47z m-1248 -46 c-18 -18 -32
-36 -32 -41 0 -4 15 9 34 28 32 34 62 48 54 25 -2 -6 -6 -9 -10 -7 -10 5 -48
-34 -42 -44 3 -4 0 -7 -7 -6 -6 2 -13 -2 -16 -9 -2 -6 3 -10 12 -9 18 3 36 26
29 37 -2 4 0 10 6 14 20 12 11 -71 -10 -90 -25 -22 -26 -9 -3 19 10 12 3 8
-15 -8 -31 -29 -32 -29 -32 -7 0 12 4 20 9 16 5 -3 13 -1 16 5 4 6 3 10 -2 9
-41 -7 -41 37 -1 78 18 18 34 30 37 28 2 -3 -10 -20 -27 -38z m1298 29 c0 -2
-28 -13 -62 -26 -35 -12 -72 -30 -83 -40 -30 -27 -90 -49 -106 -39 -9 5 -1 13
31 27 25 11 74 34 110 50 56 26 110 40 110 28z m-1203 -71 c1 -36 -2 -65 -7
-65 -4 0 -8 6 -7 13 1 36 -4 46 -20 41 -17 -5 -17 -5 -1 9 10 8 15 17 11 20
-3 4 -1 7 6 7 7 0 11 6 8 14 -4 11 0 26 7 26 1 0 2 -29 3 -65z m693 39 c0 -12
-4 -12 -20 -4 -11 6 -18 15 -15 20 8 13 35 0 35 -16z m-665 -4 c-3 -4 0 -10 7
-12 12 -4 13 -76 2 -110 -7 -22 -24 -24 -24 -2 0 8 5 12 10 9 6 -4 10 7 10 25
0 17 -4 29 -8 26 -5 -3 -9 1 -9 9 0 8 4 12 9 9 4 -3 8 2 8 11 0 9 -4 13 -10
10 -6 -4 -10 5 -10 20 0 15 4 24 10 20 6 -4 8 -10 5 -15z m1274 4 c6 -5 9 -4
-114 -58 -126 -55 -145 -62 -145 -50 0 5 50 31 110 58 60 27 108 51 106 53 -5
6 -139 -51 -195 -82 -30 -17 -48 -22 -59 -16 -13 7 -9 12 22 25 21 9 41 16 45
16 3 0 42 16 86 35 59 26 88 33 110 29 17 -4 32 -8 34 -10z m-554 -24 c-8 -13
-35 0 -35 16 0 12 4 12 20 4 11 -6 18 -15 15 -20z m589 11 c3 -4 -47 -30 -112
-57 -64 -26 -120 -52 -123 -57 -4 -5 -12 -6 -19 -2 -9 6 143 82 247 124 1 1 4
-3 7 -8z m-509 -32 c4 -6 5 -12 2 -15 -7 -7 -37 7 -37 17 0 13 27 11 35 -2z
m62 -21 c18 -7 33 -18 33 -24 0 -9 -10 -8 -40 3 -22 9 -40 20 -40 25 0 11 7
10 47 -4z m-90 -22 c29 1 50 -3 47 -8 -4 -5 0 -8 7 -7 8 1 21 0 29 -4 8 -3 39
-13 68 -23 28 -10 52 -21 52 -25 0 -10 -40 -22 -47 -15 -4 3 2 6 13 7 21 1
-32 17 -83 26 -18 3 -33 9 -33 13 0 5 -8 6 -17 4 -10 -3 -45 7 -78 21 -33 14
-49 23 -35 19 14 -4 48 -8 77 -8z m157 -2 c24 -9 20 -33 -4 -27 -11 3 -20 12
-20 19 0 16 2 16 24 8z m-1029 -34 c-14 -16 -20 -17 -27 -8 -4 8 -8 8 -8 2 0
-21 14 -24 32 -7 22 20 24 6 2 -18 -22 -24 -24 -60 -5 -82 17 -20 11 -30 -13
-21 -13 5 -17 15 -14 35 3 16 0 29 -5 29 -5 0 -3 8 4 17 11 13 11 15 1 9 -10
-6 -13 -1 -10 20 2 16 8 29 15 29 7 0 18 6 24 12 21 21 24 5 4 -17z m44 -27
c0 -26 1 -60 2 -75 0 -29 -7 -48 -19 -48 -4 0 -6 41 -4 90 4 94 18 117 21 33z
m1035 41 c24 -9 20 -33 -4 -27 -11 3 -20 12 -20 19 0 16 2 16 24 8z m-1010
-28 c-3 -8 0 -17 6 -21 9 -6 9 -9 0 -15 -8 -5 -7 -12 5 -24 9 -9 12 -16 6 -16
-6 0 -11 -5 -11 -11 0 -5 5 -7 11 -4 6 4 5 -2 -3 -14 -7 -12 -15 -21 -18 -21
-3 0 -6 34 -6 75 -1 41 3 72 7 69 5 -2 6 -11 3 -18z m1064 -4 c2 -7 -3 -12
-12 -12 -9 0 -16 7 -16 16 0 17 22 14 28 -4z m33 -15 c-1 -12 -15 -9 -19 4 -3
6 1 10 8 8 6 -3 11 -8 11 -12z m-1156 -29 c-2 -18 -4 -37 -4 -41 -1 -5 -6 -5
-12 -1 -8 5 -8 9 1 14 9 5 9 9 1 14 -8 5 -8 13 -1 27 15 27 19 24 15 -13z
m1143 -2 c12 -12 12 -15 -5 -20 -11 -4 -31 -2 -44 4 -22 10 -22 10 8 7 18 -2
30 0 27 5 -3 4 -19 8 -35 8 -18 0 -28 4 -24 10 8 13 55 5 73 -14z m634 -68
c-9 -18 -21 -36 -27 -40 -14 -10 -18 8 -6 30 7 14 7 19 -4 19 -7 0 -11 -7 -7
-15 3 -10 1 -13 -6 -8 -8 5 -15 -4 -19 -26 -7 -32 -7 -32 -14 -8 l-7 25 -1
-26 c-1 -19 -10 -30 -37 -43 -20 -9 -39 -15 -41 -12 -3 3 0 19 6 37 6 18 9 35
6 37 -3 3 -5 0 -5 -6 0 -7 -6 -12 -14 -12 -15 0 -26 -21 -26 -50 0 -15 -8 -17
-67 -15 -38 1 -70 4 -73 5 -3 1 -9 2 -13 1 -5 -1 -6 3 -2 9 3 6 10 8 15 5 5
-3 11 -1 15 5 4 6 11 8 16 4 6 -3 16 2 24 12 7 11 17 16 21 11 4 -4 2 -7 -4
-7 -7 0 -12 -4 -12 -10 0 -5 7 -6 17 -3 10 4 14 2 10 -4 -4 -6 0 -13 8 -17 8
-3 17 0 21 6 4 7 3 8 -4 4 -21 -13 -13 8 13 37 14 15 31 28 38 29 7 0 17 2 22
2 6 1 20 7 33 14 18 10 22 10 22 0 0 -8 5 -6 11 5 6 9 14 15 20 12 5 -4 9 -1
9 5 0 6 12 8 29 5 17 -3 33 -1 36 5 15 24 13 7 -3 -22z m-862 7 c14 -8 21 -14
15 -14 -5 0 -21 6 -35 14 -14 8 -20 14 -15 14 6 0 21 -6 35 -14z m1374 -22
c-14 -10 -19 -10 -26 0 -12 19 -10 25 15 29 28 4 35 -11 11 -29z m-2181 -15
c-6 -7 -13 -24 -15 -37 -4 -30 -25 -39 -31 -14 -3 12 -5 9 -6 -9 -1 -38 -28
-51 -63 -30 -16 9 -29 23 -29 32 -1 8 -3 30 -5 48 -4 33 9 44 20 16 3 -9 11
-12 18 -8 10 6 10 4 0 -8 -18 -22 -23 -56 -10 -64 7 -4 8 -2 4 4 -5 8 -2 10 8
6 9 -3 13 -10 10 -15 -3 -5 0 -9 5 -9 6 0 11 9 11 21 0 14 -5 19 -15 16 -22
-9 -25 6 -5 30 17 21 77 42 65 22 -4 -5 -11 -6 -17 -3 -7 4 -8 2 -4 -4 10 -17
46 4 46 25 0 13 3 14 12 5 8 -8 8 -15 1 -24z m877 7 c14 -8 21 -14 15 -14 -5
0 -21 6 -35 14 -14 8 -20 14 -15 14 6 0 21 -6 35 -14z m560 -40 c-7 -9 -15
-13 -18 -10 -3 2 1 11 8 20 7 9 15 13 18 10 3 -2 -1 -11 -8 -20z m51 -31 c-5
-16 -10 -21 -10 -12 -1 18 10 51 15 45 2 -1 -1 -16 -5 -33z m-180 -105 c-19
-18 -20 -18 -16 9 2 15 4 32 4 37 1 6 6 3 11 -5 6 -9 10 -10 10 -3 0 6 -5 15
-11 19 -8 4 -7 9 2 15 24 15 24 -50 0 -72z m67 44 c-2 -16 -7 -27 -13 -25 -5
2 -13 -7 -17 -20 -4 -16 -6 -8 -7 25 -1 41 2 47 20 47 16 0 20 -5 17 -27z m41
-32 c-2 -46 -2 -46 -9 -11 l-7 35 -2 -43 c0 -24 3 -41 8 -38 14 9 7 -216 -8
-242 -7 -13 -10 -26 -7 -30 3 -3 6 -1 6 4 0 6 7 19 16 30 15 18 15 18 5 -3
-14 -28 -15 -54 -1 -33 5 8 10 11 9 5 0 -13 -28 -63 -29 -51 0 5 -6 3 -13 -3
-8 -6 -16 -9 -18 -7 -2 2 -5 -6 -5 -19 -1 -14 3 -23 9 -22 6 1 12 -5 12 -13 2
-11 1 -12 -3 -1 -3 12 -5 12 -13 0 -6 -10 -9 -10 -9 -2 0 7 -7 10 -15 7 -8 -4
-15 -2 -15 4 0 5 6 12 14 15 11 4 12 14 4 44 -7 28 -7 46 3 68 7 17 13 42 14
57 2 15 13 44 26 65 l23 38 -26 -27 c-15 -15 -29 -37 -33 -48 -3 -11 -12 -20
-18 -20 -13 0 -15 18 -16 120 -1 49 -4 61 -12 50 -8 -11 -9 -8 -4 15 9 40 27
59 25 25 -1 -14 -1 -38 0 -55 3 -28 3 -27 10 10 7 37 7 38 10 10 3 -26 4 -23
10 15 l8 45 0 -55 c0 -30 1 -59 2 -65 5 -20 0 -35 -11 -35 -6 0 -9 9 -6 20 3
11 1 18 -4 14 -5 -3 -9 -26 -8 -52 0 -39 2 -43 9 -24 5 12 21 39 35 59 26 40
35 70 10 37 -11 -15 -14 -16 -15 -3 0 8 6 21 13 28 10 11 9 13 -1 7 -11 -7
-12 14 -3 110 1 6 8 11 16 11 11 0 15 -12 14 -46z m119 28 c-10 -7 -9 -9 5 -9
28 0 19 -15 -18 -29 -19 -7 -35 -16 -35 -21 0 -16 20 -21 37 -10 15 9 14 10
-7 5 -24 -6 -24 -5 -5 10 32 26 38 -3 24 -128 -15 -138 -14 -234 1 -252 19
-23 6 -39 -46 -54 -30 -9 -42 -16 -31 -18 9 -3 15 -8 13 -11 -2 -4 11 -7 30
-8 21 0 30 3 22 8 -10 6 -8 8 5 8 9 0 17 -7 17 -15 0 -8 -3 -15 -7 -15 -5 0
-19 -3 -33 -6 -20 -4 -22 -3 -10 5 8 6 10 11 4 11 -5 0 -19 -7 -30 -15 -18
-15 -18 -15 0 -8 13 4 17 3 12 -5 -4 -7 -2 -12 4 -12 6 0 9 -4 6 -9 -4 -5 4
-7 16 -3 20 5 20 6 3 12 -17 6 -17 7 -1 13 27 11 36 8 36 -8 0 -17 -34 -41
-72 -50 -28 -7 -28 -6 -28 40 0 38 -3 46 -15 41 -8 -3 -15 0 -15 7 -1 7 -8 -1
-16 -16 -9 -16 -13 -31 -11 -34 3 -2 8 6 12 18 7 21 8 21 21 -10 16 -39 18
-65 4 -56 -6 4 -8 11 -5 16 4 5 2 9 -4 9 -6 0 -8 8 -5 18 5 14 3 14 -10 -2 -9
-11 -16 -14 -16 -8 0 7 -3 11 -7 11 -27 -4 -32 2 -22 31 6 16 16 30 22 30 7 0
7 -4 -1 -12 -7 -7 -12 -21 -11 -32 0 -14 2 -16 6 -6 2 8 7 22 10 30 9 23 10
28 13 58 l2 27 8 -25 c5 -15 8 -18 9 -8 1 9 5 18 11 20 5 2 10 100 11 239 1
193 4 236 15 236 8 0 14 -4 14 -9 0 -5 5 -6 10 -3 6 4 10 3 9 -2 -5 -26 2 -33
20 -23 12 6 18 18 16 29 -3 14 1 18 12 14 12 -5 12 -7 1 -14z m-197 -320 l-10
-24 0 26 c-1 14 2 29 6 33 12 12 14 -9 4 -35z m85 -103 c0 -15 -5 -21 -10 -16
-5 5 -6 16 -3 24 9 23 15 19 13 -8z m-26 -8 c0 -16 -3 -19 -11 -11 -6 6 -8 16
-5 22 11 17 16 13 16 -11z m-25 -67 c17 -7 17 -8 -8 -13 -19 -4 -27 -1 -27 8
0 15 6 16 35 5z m150 -1 c-11 -5 -27 -9 -35 -9 -9 0 -8 4 5 9 11 5 27 9 35 9
9 0 8 -4 -5 -9z m-55 -159 c0 -11 -4 -23 -10 -26 -6 -4 -10 5 -10 19 0 14 5
26 10 26 6 0 10 -9 10 -19z"/>
<path d="M2080 3316 c-177 -165 -369 -351 -331 -320 14 11 100 90 191 176 91
85 192 179 225 208 52 47 83 80 73 80 -2 0 -73 -65 -158 -144z"/>
<path d="M1682 2888 c-7 -7 -12 -20 -12 -30 0 -15 3 -16 19 -6 17 11 22 30 10
43 -3 2 -11 -1 -17 -7z"/>
<path d="M1730 2860 c0 -14 6 -20 23 -19 12 0 33 -3 46 -7 18 -5 22 -4 19 7
-3 8 -15 13 -27 12 -13 -2 -20 1 -16 7 9 14 -9 12 -24 -2 -10 -11 -11 -10 -6
5 4 10 2 17 -4 17 -6 0 -11 -9 -11 -20z"/>
<path d="M1882 2831 c-7 -18 -7 -31 -2 -31 11 0 25 48 17 56 -2 3 -9 -9 -15
-25z"/>
<path d="M1663 2804 c4 -4 33 -9 63 -11 33 -2 62 -10 71 -19 13 -13 17 -13 24
-2 5 8 2 15 -10 19 -28 11 -157 22 -148 13z"/>
<path d="M1647 2774 c-12 -12 4 -24 34 -24 16 0 29 -4 29 -10 0 -12 2 -12 -38
-1 -23 7 -32 7 -30 -1 2 -6 23 -12 47 -14 37 -4 42 -2 37 12 -5 13 -1 15 16
11 45 -12 113 -20 107 -13 -4 4 -42 13 -85 20 -44 7 -86 16 -95 20 -8 4 -18 4
-22 0z"/>
<path d="M1857 2716 c-4 -15 -6 -31 -2 -34 10 -10 16 6 13 35 l-3 28 -8 -29z"/>
<path d="M1660 2693 c14 -3 28 -9 31 -14 3 -6 23 -12 45 -14 l39 -4 -37 11
c-21 6 -38 15 -38 20 0 4 -15 7 -32 7 -28 -2 -29 -2 -8 -6z"/>
<path d="M1793 2673 c-29 -11 -6 -43 30 -43 8 0 8 3 0 11 -6 6 -9 18 -6 25 5
14 -2 16 -24 7z"/>
<path d="M1837 2633 c-7 -39 -1 -40 11 -4 6 17 7 31 3 31 -5 0 -11 -12 -14
-27z"/>
<path d="M1695 2630 c-6 -10 14 -25 22 -16 3 3 12 1 20 -5 7 -7 13 -7 13 -2 0
14 -48 34 -55 23z"/>
<path d="M1615 2603 c13 -14 95 -24 95 -12 0 5 -12 9 -27 9 -16 0 -39 3 -53 6
-17 5 -22 3 -15 -3z"/>
<path d="M1745 2580 c3 -5 18 -10 32 -10 32 0 28 5 -10 14 -19 4 -26 3 -22 -4z"/>
<path d="M1620 2572 c8 -5 40 -13 70 -17 30 -3 64 -9 75 -11 16 -4 17 -3 5 4
-8 5 -37 13 -65 16 -27 4 -61 10 -75 12 -19 4 -21 3 -10 -4z"/>
<path d="M1620 2540 c0 -5 7 -10 15 -10 8 0 15 5 15 10 0 6 -7 10 -15 10 -8 0
-15 -4 -15 -10z"/>
<path d="M1664 2529 c-2 -4 11 -7 31 -5 20 1 38 -1 41 -6 8 -13 26 -9 22 4 -5
14 -86 20 -94 7z"/>
<path d="M1580 2511 c8 -6 23 -11 33 -11 11 0 34 -7 53 -16 28 -13 37 -14 49
-4 13 11 14 10 9 -4 -7 -18 3 -21 26 -6 10 6 11 10 3 10 -7 0 -13 7 -13 15 0
18 -11 19 -29 3 -8 -7 -11 -8 -8 -2 4 6 -6 10 -26 10 -18 0 -50 3 -72 8 -29 5
-36 5 -25 -3z"/>
<path d="M1979 2822 c-9 -11 -13 -25 -9 -31 9 -16 33 12 28 34 -3 14 -5 13
-19 -3z"/>
<path d="M2011 2813 c-6 -14 -9 -28 -7 -31 3 -3 8 3 12 12 3 9 12 16 20 16 8
0 11 -6 8 -15 -4 -8 -2 -15 4 -15 5 0 13 7 16 16 8 20 8 39 0 31 -4 -3 -14 -2
-24 3 -13 7 -20 4 -29 -17z"/>
<path d="M2110 2797 c0 -17 2 -17 16 -7 8 8 14 9 12 4 -2 -5 0 -10 5 -11 4 -2
7 -1 7 2 0 3 0 11 0 18 0 7 -9 13 -20 13 -13 0 -20 -7 -20 -19z"/>
<path d="M2210 2794 c0 -13 -3 -14 -13 -5 -8 6 -17 8 -21 4 -3 -4 8 -13 25
-20 18 -7 34 -11 37 -8 3 3 0 5 -7 5 -7 0 -11 7 -8 15 4 8 2 17 -3 20 -6 4
-10 -1 -10 -11z"/>
<path d="M1984 2732 c-16 -14 -18 -20 -9 -29 7 -7 15 -9 18 -6 3 3 20 1 36 -5
18 -6 33 -7 36 -2 3 5 -10 12 -30 16 -29 5 -35 10 -30 25 8 23 6 23 -21 1z"/>
<path d="M2080 2690 c0 -15 21 -23 32 -12 6 6 2 11 -11 15 -12 3 -21 1 -21 -3z"/>
<path d="M2154 2679 c29 -23 47 -19 26 6 -7 8 -22 15 -33 15 -18 0 -17 -2 7
-21z"/>
<path d="M1963 2642 c1 -19 6 -23 32 -21 35 3 95 -18 95 -34 0 -6 2 -8 5 -5
11 10 -8 38 -25 38 -10 0 -20 4 -22 9 -1 5 -19 11 -38 12 -19 2 -38 8 -42 14
-4 5 -6 -1 -5 -13z"/>
<path d="M2140 2603 c0 -5 6 -10 13 -11 6 0 23 -4 37 -8 18 -5 22 -4 15 4 -14
15 -65 26 -65 15z"/>
<path d="M1933 2574 c11 -11 67 -14 67 -4 0 6 -16 10 -37 10 -20 0 -34 -3 -30
-6z"/>
<path d="M2060 2549 c0 -5 6 -9 13 -10 24 -1 52 -6 80 -14 34 -9 36 2 1 15
-37 14 -94 20 -94 9z"/>
<path d="M2028 2518 c15 -15 16 -32 2 -23 -5 3 -10 -1 -10 -10 0 -9 6 -15 13
-12 6 2 22 0 34 -4 14 -5 23 -4 27 4 3 9 7 9 14 -1 5 -7 13 -12 18 -10 5 1 19
-3 31 -10 14 -8 24 -9 28 -2 6 10 -34 30 -60 30 -7 0 -21 7 -29 16 -9 8 -16
11 -16 6 0 -17 -30 -9 -36 10 -3 10 -10 18 -17 18 -8 0 -8 -3 1 -12z"/>
<path d="M1947 2513 c-13 -12 -7 -26 6 -15 17 15 29 15 37 2 5 -9 9 -8 13 2 3
10 -4 15 -22 16 -15 1 -31 -1 -34 -5z"/>
<path d="M1902 2460 c-19 -32 -3 -47 20 -19 l19 24 -6 -23 c-6 -19 -3 -23 12
-22 40 5 84 0 79 -9 -3 -5 6 -8 19 -8 36 0 28 23 -9 25 -5 0 -13 6 -17 14 -7
10 -9 10 -9 -2 -1 -11 -4 -10 -15 4 -8 11 -15 14 -15 8 0 -7 -5 -12 -11 -12
-5 0 -8 4 -5 9 3 4 -6 13 -20 20 -31 14 -27 15 -42 -9z"/>
<path d="M3589 2745 c-6 -40 -4 -53 7 -43 3 3 4 23 2 44 l-3 39 -6 -40z"/>
<path d="M3638 2724 c-2 -25 0 -48 4 -50 5 -3 8 18 8 45 0 64 -7 66 -12 5z"/>
<path d="M3750 2521 c0 -17 5 -31 10 -31 6 0 10 11 10 24 0 14 -4 28 -10 31
-6 4 -10 -7 -10 -24z"/>
<path d="M3594 2526 c-3 -7 -4 -35 -2 -62 l3 -49 5 63 c5 63 4 73 -6 48z"/>
<path d="M3587 2246 c-4 -65 -6 -120 -3 -123 6 -7 18 156 14 202 -1 22 -7 -13
-11 -79z"/>
<path d="M2390 2678 c0 -5 5 -6 10 -3 6 3 10 1 10 -5 0 -6 5 -8 10 -5 6 3 10
3 10 -2 0 -4 13 -8 30 -9 16 -1 27 3 24 7 -3 5 -16 9 -30 9 -14 0 -23 4 -20 9
3 5 -6 9 -19 9 -14 0 -25 -5 -25 -10z"/>
<path d="M2335 2620 c-3 -5 3 -10 14 -10 12 0 21 5 21 10 0 6 -6 10 -14 10 -8
0 -18 -4 -21 -10z"/>
<path d="M2380 2605 c0 -8 5 -15 10 -15 6 0 10 7 10 15 0 8 -4 15 -10 15 -5 0
-10 -7 -10 -15z"/>
<path d="M2424 2595 c22 -17 46 -20 46 -6 0 10 -25 21 -48 21 -15 -1 -14 -3 2
-15z"/>
<path d="M2320 2560 c0 -12 28 -20 45 -14 8 3 17 0 20 -8 3 -8 16 -14 28 -13
12 1 26 -3 30 -9 5 -7 7 -3 4 9 -2 11 -9 19 -15 18 -7 -2 -12 2 -12 8 0 5 -8
9 -17 8 -10 -1 -20 0 -23 1 -19 7 -60 7 -60 0z"/>
<path d="M2313 2518 c2 -7 14 -13 26 -13 12 0 25 -5 29 -11 7 -12 52 -1 52 12
0 4 -3 5 -6 1 -4 -3 -22 0 -41 8 -43 18 -66 19 -60 3z"/>
<path d="M2304 2461 c5 -7 10 -10 13 -8 2 3 27 -1 56 -9 55 -14 77 -11 33 6
-48 18 -110 25 -102 11z"/>
<path d="M2280 2351 c0 -5 6 -11 13 -14 8 -3 6 -9 -8 -20 -19 -15 -18 -15 18
-22 20 -4 40 -11 43 -16 3 -5 10 -9 17 -9 18 0 -26 29 -45 30 -10 0 -18 5 -18
10 0 9 13 13 26 8 9 -5 26 33 19 40 -4 4 -10 2 -12 -5 -3 -8 -12 -9 -29 -3
-14 6 -24 6 -24 1z"/>
<path d="M2350 2320 c0 -19 3 -21 12 -12 9 9 9 15 0 24 -9 9 -12 7 -12 -12z"/>
<path d="M1044 2517 c-8 -21 -3 -29 13 -19 8 5 9 13 3 22 -7 12 -10 12 -16 -3z"/>
<path d="M1515 2373 c-3 -8 -5 -16 -5 -18 0 -6 241 -82 271 -87 15 -2 25 2 27
12 4 22 -284 114 -293 93z m139 -50 c21 -15 21 -15 -4 -8 -14 4 -36 14 -50 22
l-25 14 29 -6 c16 -3 39 -13 50 -22z m91 -23 c3 -5 -1 -10 -9 -10 -8 0 -18 5
-21 10 -3 6 1 10 9 10 8 0 18 -4 21 -10z"/>
<path d="M1287 2333 c-15 -15 -5 -44 18 -55 17 -8 24 -17 20 -28 -7 -21 20
-47 30 -29 4 6 2 15 -5 19 -10 6 -9 9 1 15 8 5 19 -1 31 -16 70 -88 90 -94
164 -54 53 29 84 29 84 0 0 -9 5 -13 10 -10 16 10 12 23 -14 40 -21 14 -27 14
-77 -9 -46 -22 -56 -24 -74 -12 -26 17 -32 54 -10 62 9 4 19 3 23 -1 4 -4 1
-10 -5 -12 -20 -7 -16 -35 4 -31 22 4 29 34 13 53 -33 39 -82 -5 -60 -53 10
-23 10 -24 -6 -11 -9 8 -25 31 -34 52 -19 42 -58 68 -90 60 -16 -4 -19 -2 -14
11 6 17 2 21 -9 9z"/>
<path d="M1688 2193 c-10 -2 -18 -11 -18 -20 0 -13 3 -13 15 -3 26 22 61 -3
86 -60 31 -72 68 -100 131 -100 28 0 68 5 89 11 30 9 42 9 54 -1 21 -18 19
-33 -5 -25 -14 5 -20 2 -20 -9 0 -24 51 -21 57 3 4 16 9 18 39 10 22 -7 40 -6
54 1 21 11 27 35 10 45 -5 3 -10 -1 -10 -9 0 -22 -17 -20 -30 4 -6 11 -21 20
-33 20 -13 0 -28 5 -33 10 -7 7 -28 3 -65 -14 -30 -13 -70 -27 -89 -31 l-35
-7 35 24 c19 13 36 32 38 42 5 24 -26 56 -54 56 -22 0 -54 -23 -54 -39 0 -15
30 -33 45 -27 20 7 19 24 -2 29 -17 4 -17 4 0 12 12 5 24 2 35 -8 14 -15 14
-18 -3 -37 -40 -44 -100 -20 -139 57 -15 29 -61 74 -75 72 -3 -1 -14 -3 -23
-6z"/>
<path d="M2593 1935 c0 -22 2 -30 4 -17 2 12 2 30 0 40 -3 9 -5 -1 -4 -23z"/>
<path d="M2613 1920 c0 -30 2 -43 4 -27 2 15 2 39 0 55 -2 15 -4 2 -4 -28z"/>
<path d="M3245 2204 c-55 -19 -165 -50 -245 -70 -161 -41 -212 -63 -74 -33
158 35 420 113 439 130 15 15 -13 8 -120 -27z"/>
<path d="M2751 2063 c0 -11 3 -13 6 -5 2 6 9 10 14 6 5 -3 9 0 9 5 0 6 -7 11
-15 11 -8 0 -15 -8 -14 -17z"/>
<path d="M2701 1670 c-33 -45 -119 -98 -203 -125 -40 -13 -63 -24 -50 -25 37
0 134 38 188 75 47 32 101 92 92 101 -3 2 -14 -10 -27 -26z"/>
<path d="M3310 1682 c-16 -5 -510 -194 -683 -262 -60 -23 -106 -44 -103 -47 5
-6 790 290 805 303 8 7 -4 11 -19 6z"/>
<path d="M2424 1410 c0 -52 1 -74 3 -47 2 26 2 68 0 95 -2 26 -3 4 -3 -48z"/>
<path d="M750 2071 c8 -5 96 -43 195 -84 99 -41 212 -90 250 -107 96 -44 117
-52 111 -41 -3 5 -122 58 -263 119 -242 103 -330 137 -293 113z"/>
<path d="M3480 1540 c12 -8 12 -10 1 -10 -8 0 -12 -2 -9 -5 3 -3 13 -3 22 1
19 7 11 24 -12 24 -15 0 -15 -2 -2 -10z"/>
<path d="M2803 1397 c-4 -6 -1 -7 7 -2 9 6 10 2 5 -16 -7 -23 -7 -24 9 -4 8
11 16 23 16 26 0 10 -30 6 -37 -4z"/>
<path d="M1175 1380 c-17 -18 -17 -20 -2 -14 9 3 17 10 17 16 0 5 5 6 12 2 7
-4 8 -3 4 4 -9 16 -10 15 -31 -8z"/>
<path d="M2647 964 c-31 -63 -34 -84 -11 -84 13 0 14 3 5 14 -10 11 -7 25 14
66 15 29 25 54 23 56 -2 2 -16 -21 -31 -52z"/>
<path d="M2729 1262 c9 -7 10 -12 2 -16 -6 -4 -9 -12 -5 -17 3 -5 9 -7 14 -4
13 8 5 38 -11 43 -12 3 -12 2 0 -6z"/>
<path d="M2723 968 c3 -13 7 -53 8 -90 1 -38 5 -68 8 -68 3 1 17 8 31 16 l25
15 -27 -6 -28 -5 0 80 c0 52 -4 80 -11 80 -7 0 -9 -9 -6 -22z"/>
</g>
</svg>
