<svg width="20" height="20" viewBox="0 0 20 20" fill="none" xmlns="http://www.w3.org/2000/svg">
<g id="mood">
<path id="mood_2" d="M12.9167 9.16663C13.264 9.16663 13.5591 9.0451 13.8022 8.80204C14.0452 8.55899 14.1667 8.26385 14.1667 7.91663C14.1667 7.5694 14.0452 7.27427 13.8022 7.03121C13.5591 6.78815 13.264 6.66663 12.9167 6.66663C12.5695 6.66663 12.2744 6.78815 12.0313 7.03121C11.7883 7.27427 11.6667 7.5694 11.6667 7.91663C11.6667 8.26385 11.7883 8.55899 12.0313 8.80204C12.2744 9.0451 12.5695 9.16663 12.9167 9.16663ZM7.08342 9.16663C7.43064 9.16663 7.72578 9.0451 7.96883 8.80204C8.21189 8.55899 8.33342 8.26385 8.33342 7.91663C8.33342 7.5694 8.21189 7.27427 7.96883 7.03121C7.72578 6.78815 7.43064 6.66663 7.08342 6.66663C6.73619 6.66663 6.44105 6.78815 6.198 7.03121C5.95494 7.27427 5.83342 7.5694 5.83342 7.91663C5.83342 8.26385 5.95494 8.55899 6.198 8.80204C6.44105 9.0451 6.73619 9.16663 7.08342 9.16663ZM10.0001 14.5833C10.9445 14.5833 11.8022 14.3159 12.573 13.7812C13.3438 13.2465 13.9029 12.5416 14.2501 11.6666H5.75008C6.0973 12.5416 6.65633 13.2465 7.42717 13.7812C8.198 14.3159 9.05564 14.5833 10.0001 14.5833ZM10.0001 18.3333C8.8473 18.3333 7.76397 18.1145 6.75008 17.677C5.73619 17.2395 4.85425 16.6458 4.10425 15.8958C3.35425 15.1458 2.7605 14.2638 2.323 13.25C1.8855 12.2361 1.66675 11.1527 1.66675 9.99996C1.66675 8.84718 1.8855 7.76385 2.323 6.74996C2.7605 5.73607 3.35425 4.85413 4.10425 4.10413C4.85425 3.35413 5.73619 2.76038 6.75008 2.32288C7.76397 1.88538 8.8473 1.66663 10.0001 1.66663C11.1529 1.66663 12.2362 1.88538 13.2501 2.32288C14.264 2.76038 15.1459 3.35413 15.8959 4.10413C16.6459 4.85413 17.2397 5.73607 17.6772 6.74996C18.1147 7.76385 18.3334 8.84718 18.3334 9.99996C18.3334 11.1527 18.1147 12.2361 17.6772 13.25C17.2397 14.2638 16.6459 15.1458 15.8959 15.8958C15.1459 16.6458 14.264 17.2395 13.2501 17.677C12.2362 18.1145 11.1529 18.3333 10.0001 18.3333ZM10.0001 16.6666C11.8612 16.6666 13.4376 16.0208 14.7292 14.7291C16.0209 13.4375 16.6667 11.8611 16.6667 9.99996C16.6667 8.13885 16.0209 6.56246 14.7292 5.27079C13.4376 3.97913 11.8612 3.33329 10.0001 3.33329C8.13897 3.33329 6.56258 3.97913 5.27092 5.27079C3.97925 6.56246 3.33341 8.13885 3.33341 9.99996C3.33341 11.8611 3.97925 13.4375 5.27092 14.7291C6.56258 16.0208 8.13897 16.6666 10.0001 16.6666Z" fill="#1D1B20"/>
</g>
</svg>
